<svg width="100" height="100" viewBox="0 0 100 100" fill="none" xmlns="http://www.w3.org/2000/svg">
<path d="M29.1014 74.834C30.8592 74.2187 31.7381 72.2265 30.9666 70.5859C30.8299 70.3125 27.949 66.8652 23.4764 61.6504L16.2107 53.1738L53.8377 53.125L91.4549 53.0761L92.0701 52.7441C92.7537 52.373 93.0564 52.0605 93.4373 51.3281C93.6521 50.9082 93.6912 50.7031 93.6912 50C93.701 49.3164 93.6521 49.082 93.4568 48.6816C93.1541 48.0566 92.5682 47.4707 91.9432 47.1679L91.4549 46.9238L53.8279 46.875L16.2107 46.8261L23.4764 38.3496C27.6853 33.4375 30.8396 29.6777 30.9666 29.414C31.1521 29.0429 31.201 28.789 31.201 28.125C31.201 27.4121 31.1619 27.2265 30.9373 26.7969C30.5467 26.0644 30.2537 25.7519 29.5994 25.4004C28.4764 24.8047 27.2068 24.9023 26.2303 25.664C25.615 26.1523 6.79667 48.1738 6.52323 48.7304C6.1912 49.4043 6.21073 50.6543 6.56229 51.3281C6.88456 51.9433 25.5955 73.8281 26.2303 74.3261C27.0408 74.9707 28.1639 75.166 29.1014 74.834Z" fill="white"/>
</svg>
