<svg width="50" height="50" viewBox="0 0 50 50" fill="none" xmlns="http://www.w3.org/2000/svg">
<path d="M36.0352 0.0682964C35.3516 0.3515 34.9707 0.996031 34.9609 1.8847C34.9609 3.58392 34.1504 5.62494 32.9395 7.04095C31.377 8.86712 29.4434 9.82416 26.8945 10.039C26.1035 10.1074 25.8398 10.166 25.5859 10.3515C25.2441 10.5956 24.9023 11.2304 24.9023 11.621C24.9023 12.0117 25.2441 12.6464 25.5859 12.8906C25.8398 13.0761 26.1035 13.1347 26.8945 13.2031C29.4434 13.4179 31.3965 14.3847 32.959 16.2109C34.1602 17.6171 34.9609 19.6777 34.9609 21.3574C34.9609 22.5195 35.6738 23.291 36.6504 23.2128C37.168 23.164 37.5391 22.9492 37.8516 22.4804C38.0078 22.2558 38.0762 21.9531 38.125 21.2402C38.4473 16.8163 41.6895 13.5742 46.1523 13.2031C46.9336 13.1347 47.2461 13.0663 47.4414 12.9199C48.3789 12.2265 48.3789 11.0156 47.4414 10.3222C47.2461 10.1757 46.9336 10.1074 46.1523 10.039C41.6895 9.66791 38.4473 6.42572 38.125 2.00189C38.0566 0.996031 37.9102 0.654234 37.3828 0.263609C37.1191 0.0682964 36.3184 -0.0488911 36.0352 0.0682964ZM37.3145 8.48627C37.9688 9.3847 39.1699 10.537 40.0586 11.1327C40.4199 11.3769 40.7129 11.5917 40.7129 11.621C40.7129 11.6503 40.4199 11.8652 40.0586 12.1093C38.916 12.8808 37.3047 14.5605 36.6602 15.6738C36.5723 15.83 36.4844 15.7421 35.9863 15.0292C35.2734 14.0136 34.0234 12.7734 33.0566 12.1191L32.3242 11.6308L33.1348 11.0742C34.1602 10.3515 35.2539 9.25775 35.9863 8.21283C36.4844 7.49994 36.5723 7.41205 36.6602 7.5683C36.7188 7.66595 37.0117 8.07611 37.3145 8.48627Z" fill="black"/>
<path d="M15.42 11.9043C14.6778 12.1387 14.2578 12.7441 14.2578 13.5938C14.2578 13.877 14.1895 14.5312 14.1114 15.0391C13.4668 19.2969 10.2246 22.8906 6.06448 23.9355C5.65433 24.0332 4.74612 24.1797 4.043 24.248C2.60745 24.3945 2.29495 24.5312 2.00198 25.1562C1.78714 25.6055 1.84573 26.377 2.11917 26.7383C2.4805 27.2266 2.85159 27.3633 4.09183 27.4512C6.94339 27.666 9.23831 28.7402 11.211 30.8008C12.4121 32.0508 13.2032 33.3594 13.7012 34.9121C14.0332 35.9375 14.1407 36.5527 14.2383 37.8027C14.3067 38.6523 14.3653 38.8965 14.5508 39.1602C14.795 39.502 15.4297 39.8438 15.8203 39.8438C16.211 39.8438 16.8457 39.502 17.0899 39.1602C17.2754 38.8965 17.334 38.6523 17.4024 37.8027C17.5 36.5527 17.6075 35.9375 17.9395 34.9121C18.4473 33.3398 19.2285 32.0508 20.4004 30.8203C22.4121 28.7402 24.6875 27.666 27.5489 27.4512C28.7891 27.3633 29.1602 27.2266 29.5215 26.7383C29.795 26.377 29.8535 25.6055 29.6387 25.1562C29.3457 24.5312 29.0332 24.3945 27.5977 24.248C24.9317 23.9746 23.0664 23.2129 21.1719 21.6309C18.9746 19.7949 17.3828 16.4453 17.3828 13.6426C17.3828 12.9492 17.1289 12.4023 16.6797 12.1289C16.2891 11.8945 15.7617 11.7969 15.42 11.9043ZM15.918 20C15.918 20.0488 16.2305 20.5664 16.6211 21.1523C17.7637 22.8809 19.4727 24.4727 21.4649 25.6543L21.7774 25.8398L20.8399 26.4258C19.0821 27.5098 17.3242 29.2871 16.2891 31.0254C16.0547 31.416 15.8496 31.7383 15.8203 31.7383C15.791 31.7383 15.6446 31.5234 15.4981 31.25C14.4532 29.3848 12.4219 27.3438 10.4785 26.2109L9.87308 25.8594L10.7227 25.3223C12.4805 24.2188 13.9063 22.8223 15.0489 21.1035C15.42 20.5469 15.7227 20.0488 15.7227 20C15.7227 19.9609 15.7715 19.9219 15.8203 19.9219C15.8789 19.9219 15.918 19.9609 15.918 20Z" fill="black"/>
<path d="M35.7422 30C35.166 30.4004 35.0488 30.6445 34.9609 31.6992C34.7266 34.4238 33.2129 36.6211 30.8398 37.6855C30.0879 38.0273 28.9941 38.2812 28.3008 38.2812C27.2363 38.2812 26.4648 38.9453 26.4648 39.8633C26.4648 40.918 26.9238 41.2891 28.4668 41.4648C30.4395 41.6992 31.8945 42.4121 33.1543 43.7695C34.209 44.9121 34.9609 46.7383 34.9609 48.1641C34.9609 49.2676 35.6934 50.0488 36.6504 49.9707C37.5684 49.8926 38.0273 49.3164 38.1152 48.125C38.4082 44.4141 41.0645 41.748 44.7852 41.4453C45.3906 41.3965 45.7031 41.3184 45.918 41.1719C46.6406 40.6836 46.8457 39.9609 46.4941 39.2187C46.1719 38.5742 45.8008 38.3789 44.6484 38.2812C42.7637 38.1055 41.5137 37.5293 40.1855 36.1914C38.8672 34.873 38.3105 33.6328 38.1055 31.582C38.0371 30.8984 37.959 30.625 37.793 30.3906C37.334 29.7754 36.3574 29.5898 35.7422 30ZM37.998 38.4961C38.3105 38.7988 38.8086 39.2285 39.1113 39.4531C39.4043 39.668 39.6484 39.8633 39.6484 39.8828C39.6484 39.9023 39.3457 40.1367 38.9746 40.4101C38.2715 40.9375 37.4316 41.7969 36.9043 42.5293C36.7285 42.7734 36.5625 42.9687 36.5234 42.9687C36.4941 42.9687 36.3867 42.8223 36.2793 42.6562C35.9961 42.1777 34.5313 40.6836 33.9258 40.2734C33.6328 40.0684 33.3984 39.9023 33.3984 39.8926C33.3984 39.8828 33.6914 39.6484 34.0625 39.375C34.8047 38.8184 35.6348 37.9785 36.1719 37.2363L36.543 36.7187L36.9922 37.334C37.2363 37.666 37.6855 38.1934 37.998 38.4961Z" fill="black"/>
</svg>
