<svg width="45" height="45" viewBox="0 0 45 45" fill="none" xmlns="http://www.w3.org/2000/svg">
<path d="M11.7246 0.799828C10.248 1.89846 8.45508 3.59475 7.3125 4.98342C4.22754 8.69241 2.24121 13.4649 1.7666 18.3164C1.64355 19.5469 1.64355 21.9375 1.7666 23.168C2.20605 27.6768 3.90234 32.001 6.65332 35.666C7.63769 36.9756 9.58887 38.9883 10.916 40.0518L11.9531 40.878V42.5918C11.9531 44.1826 11.9619 44.3057 12.1289 44.4727C12.3662 44.71 12.709 44.6924 12.9639 44.4287C13.1836 44.2178 13.1836 44.209 13.1836 42.5039V40.7989L13.7812 40.3594C15.249 39.2696 17.0859 37.4326 18.29 35.8506C18.5801 35.4639 18.8613 35.1563 18.9228 35.1563C19.0898 35.1563 22.4473 36.0528 22.5264 36.1231C22.5615 36.1582 22.79 36.9053 23.0273 37.793C23.2646 38.6719 23.5283 39.4717 23.6074 39.5596C23.8008 39.7705 24.2754 39.7793 24.46 39.5684C24.6797 39.3311 24.6445 39.041 24.1787 37.3535L23.7568 35.8155L25.1543 34.4004L26.5518 32.9854L28.4502 33.4951C29.4961 33.7764 30.3574 34.0225 30.3662 34.0313C30.375 34.0489 30.5859 34.8047 30.832 35.7276L31.2803 37.3975L30.9287 37.6963C30.3662 38.1621 30.1113 38.7598 30.1025 39.5508C30.1025 40.0606 30.1465 40.2891 30.2959 40.5703C30.7881 41.4932 31.4912 41.9326 32.4756 41.9326C34.5498 41.9326 35.6572 39.5508 34.3037 37.9776C33.9521 37.5557 33.5039 37.3008 32.8887 37.169L32.458 37.0811L32.0098 35.3936L31.5527 33.7061L32.959 32.3086L34.3564 30.9024L36.0352 31.3594C37.8545 31.8428 38.0566 31.8428 38.2412 31.4297C38.373 31.1485 38.2764 30.7969 38.0478 30.6651C37.9424 30.6123 37.1514 30.375 36.2812 30.1465C35.4199 29.918 34.6904 29.7158 34.6728 29.6983C34.6641 29.6807 34.4268 28.8194 34.1455 27.7823L33.6445 25.9014L34.8926 24.6533L36.1318 23.4141L36.6328 23.5811C38.4434 24.1963 40.2275 22.4737 39.6914 20.6367C39.5244 20.0655 38.9883 19.4151 38.4697 19.1426C37.96 18.8877 37.1426 18.835 36.5537 19.0283C35.3408 19.4326 34.6465 20.9531 35.1211 22.1573L35.2705 22.5176L34.0049 23.7744L32.7393 25.0313L30.8672 24.5215C29.8389 24.2403 28.9775 24.003 28.9687 23.9854C28.9512 23.9678 28.7139 23.1065 28.4326 22.0694L27.9316 20.1885L29.1885 18.9317C30.2783 17.8418 30.4365 17.6397 30.4365 17.3936C30.4365 17.209 30.375 17.0596 30.2432 16.9453C29.8301 16.6201 29.6719 16.708 28.3096 18.0528L27.0264 19.3184L25.1807 18.8174L23.335 18.3252L23.1943 17.2881C23.0625 16.3828 22.834 15.2051 22.7109 14.7393C22.667 14.5987 22.9395 14.5899 27.5713 14.5899H32.4668L36.0879 10.9776L39.709 7.35647L40.0693 7.50588C40.2715 7.58498 40.6758 7.64651 40.9834 7.64651C43.1455 7.64651 44.1562 4.93948 42.5391 3.48928C41.8799 2.89162 41.124 2.69827 40.3154 2.93557C38.9707 3.32229 38.2148 4.71975 38.6455 5.99416L38.8125 6.49514L35.3848 9.92287L31.9482 13.3594H27.1494H22.3506L21.9023 12.1377C21.6475 11.461 21.4453 10.8897 21.4453 10.8633C21.4453 10.8369 22.957 10.8106 24.8027 10.8106H28.1602L30.5068 8.47268L32.8535 6.126L33.2139 6.27541C33.8027 6.50393 34.5059 6.45998 35.1475 6.14358C35.9297 5.74807 36.3691 5.09768 36.4482 4.21877C36.5713 2.85647 35.4199 1.58205 34.0576 1.58205C33.0996 1.58205 32.0801 2.32912 31.7725 3.24319C31.5967 3.78811 31.623 4.55276 31.8428 4.98342L31.9834 5.2383L29.8125 7.4092L27.6416 9.5801H24.2051H20.7773L20.6191 9.24612C20.5312 9.07034 20.2412 8.54299 19.9687 8.08596C19.6875 7.62893 19.459 7.22463 19.4414 7.18948C19.4238 7.15432 20.3818 7.11916 21.5684 7.10159L23.7305 7.07522L24.8203 5.98537L25.9189 4.89553L26.376 5.03616C26.9736 5.2383 27.4922 5.22073 28.0723 5.001C28.9336 4.68459 29.6191 3.69143 29.6191 2.76858C29.6191 1.77541 28.8545 0.755882 27.9053 0.474632C26.7187 0.131859 25.5937 0.615257 25.0488 1.69631C24.7412 2.31155 24.6973 2.97952 24.917 3.61233L25.0576 3.99026L24.1084 4.93948L23.1592 5.88869H20.8301H18.501L17.9121 5.15041C16.2949 3.14651 13.1572 0.351585 12.5156 0.351585C12.4189 0.351585 12.0586 0.553734 11.7246 0.799828ZM27.7822 1.7842C28.4414 2.22366 28.5381 2.9883 28.0107 3.57717C27.29 4.3594 26.0156 3.84084 26.0156 2.76858C26.0156 1.84573 27.0264 1.28323 27.7822 1.7842ZM13.4033 2.38186C14.2207 3.03225 16.6113 5.37893 16.7783 5.70412C16.875 5.88869 16.8662 5.88869 16.1279 5.88869C15.4951 5.88869 15.3545 5.91506 15.2051 6.06448C14.9854 6.2842 14.9766 6.60061 15.1963 6.86428C15.3545 7.06643 15.4248 7.07522 16.6289 7.10159L17.8857 7.12795L18.2549 7.68166C18.457 7.98928 18.8086 8.5342 19.0195 8.90334L19.415 9.56252L18.3252 9.59768C17.4111 9.61526 17.2178 9.65041 17.0596 9.79104C16.8311 9.99319 16.8223 10.3711 17.0332 10.626C17.1738 10.793 17.2793 10.8106 18.624 10.8281L20.0654 10.8545L20.4873 11.9092C20.7158 12.4893 20.9268 13.0518 20.9619 13.1573L21.0146 13.3594H19.7754C18.5801 13.3594 18.5273 13.3682 18.3252 13.5791C18.0791 13.8164 18.0439 14.124 18.2285 14.3789C18.3428 14.5283 18.501 14.5459 19.8809 14.5899L21.4014 14.6338L21.5947 15.4248C21.8057 16.2862 22.0605 17.8506 22.0605 18.3076C22.0605 18.5537 21.8848 18.7647 20.5576 20.083C19.7314 20.9092 19.002 21.6826 18.9404 21.8057C18.7998 22.0694 18.7559 21.8672 19.5205 24.7324L19.9687 26.3848L18.3779 27.9844C17.0332 29.3379 16.7871 29.628 16.7871 29.8477C16.7871 29.9883 17.042 31.0518 17.3496 32.2031L17.9121 34.3037L17.5518 34.7871C16.9717 35.5869 16.2861 36.378 15.4775 37.2041C14.7393 37.96 13.3506 39.1992 13.2363 39.1992C13.21 39.1992 13.1836 32.1768 13.1836 23.5899C13.1836 7.8135 13.1836 7.7344 12.8848 7.54104C12.709 7.42678 12.2783 7.47073 12.1113 7.62014C11.9619 7.75198 11.9531 7.95412 11.9531 10.3623V12.9551L10.6963 11.7071C9.61523 10.6436 9.39551 10.459 9.1582 10.459C8.85937 10.459 8.52539 10.793 8.52539 11.1006C8.52539 11.2237 9.12305 11.8828 10.2393 13.0078L11.9531 14.7305V17.0948V19.4678L9.46582 16.9805C7.81348 15.3281 6.91699 14.502 6.79394 14.502C6.48633 14.502 6.15234 14.836 6.15234 15.1436C6.15234 15.3897 6.47754 15.7412 9.05273 18.3252L11.9531 21.2256V23.5371C11.9531 24.8028 11.9268 25.8399 11.8828 25.8399C11.8477 25.8399 10.6348 24.6533 9.18457 23.2031C6.36328 20.3819 6.30176 20.3291 5.88867 20.7422C5.47559 21.1553 5.50195 21.1817 8.83301 24.5215L11.9531 27.6504V29.5752V31.5088L10.1689 29.7246C8.63086 28.1865 8.3584 27.9492 8.12109 27.9492C7.69922 27.9492 7.38281 28.4063 7.56738 28.7666C7.62012 28.8721 8.63086 29.9268 9.80859 31.1133L11.9531 33.2666L11.9355 36.2901L11.9092 39.3047L11.2061 38.7071C6.89941 35.0684 4.00781 29.8653 3.12012 24.1699C2.90039 22.7637 2.84766 19.6612 3.02344 18.167C3.6123 13.0957 5.61621 8.67483 9.0791 4.83401C10.0723 3.72659 12.3047 1.75784 12.5596 1.75784C12.5947 1.75784 12.9727 2.03909 13.4033 2.38186ZM34.5234 2.93557C35.3936 3.3926 35.4902 4.52639 34.6904 5.00979C34.3301 5.22952 33.7852 5.22952 33.4336 5.01858C33.126 4.83401 32.8711 4.3594 32.8711 3.97268C32.8711 3.45412 33.5391 2.81252 34.084 2.81252C34.1982 2.81252 34.3916 2.86526 34.5234 2.93557ZM41.4404 4.21877C41.9326 4.45608 42.1436 4.8428 42.0732 5.41409C42.0381 5.75686 41.9678 5.89748 41.7129 6.126C41.458 6.3633 41.3262 6.41604 41.001 6.41604C40.4297 6.41604 40.0957 6.21389 39.8848 5.73928C39.6035 5.09768 39.8408 4.4385 40.4648 4.16604C40.8428 4.00784 41.0186 4.01662 41.4404 4.21877ZM24.8467 20.0039C25.8486 20.2676 26.7012 20.5225 26.7275 20.5489C26.7627 20.584 27.0088 21.4365 27.2725 22.4561L27.7646 24.3018L26.3848 25.6817C25.6289 26.4463 24.9609 27.0703 24.8994 27.0703C24.7324 27.0703 21.252 26.1211 21.1904 26.0596C21.1641 26.0244 20.9092 25.1631 20.6367 24.1436L20.1357 22.2803L21.5156 20.8916C22.2715 20.1358 22.9219 19.5117 22.957 19.5117C22.9922 19.5117 23.8359 19.7315 24.8467 20.0039ZM38.1973 20.5049C38.5752 20.9092 38.6543 21.3311 38.4434 21.7617C38.1269 22.3946 37.4678 22.6494 36.8701 22.3594C36.2725 22.0781 36.0352 21.3399 36.3428 20.7334C36.7031 20.0479 37.6699 19.9248 38.1973 20.5049ZM30.665 25.7344L32.458 26.2354L32.9678 28.125L33.4775 30.0147L32.0801 31.4121L30.6826 32.8184L28.8984 32.3438C27.9141 32.0889 27.0527 31.8516 26.9824 31.8076C26.9033 31.7725 26.6572 31.0254 26.3496 29.8653L25.8486 27.9932L27.2285 26.6045C27.9844 25.8487 28.6699 25.2246 28.7402 25.2334C28.8105 25.2334 29.6807 25.4619 30.665 25.7344ZM22.8428 27.8174C23.8271 28.0811 24.6445 28.3096 24.6533 28.3184C24.6621 28.336 24.8994 29.1885 25.1807 30.2256L25.6816 32.1065L24.2842 33.5039L22.8779 34.9102L20.9971 34.4092C19.96 34.128 19.1074 33.8994 19.0898 33.8819C19.0459 33.8467 18.1055 30.2783 18.1055 30.1465C18.1055 29.9795 20.7422 27.334 20.918 27.334C20.9883 27.334 21.8584 27.5537 22.8428 27.8174ZM32.792 38.4082C34.0752 38.7686 33.8555 40.6934 32.5195 40.6934C30.9727 40.6934 30.8936 38.5928 32.4316 38.3291C32.458 38.3203 32.6162 38.3643 32.792 38.4082Z" fill="white"/>
</svg>
