<svg width="45" height="45" viewBox="0 0 45 45" fill="none" xmlns="http://www.w3.org/2000/svg">
<path d="M4.65855 4.6582C4.32457 4.99219 4.51793 5.33496 5.04527 5.37891C5.45836 5.41406 5.45836 5.42285 5.67808 6.92578C5.91539 8.56055 5.76598 11.918 5.39683 13.1133C5.36168 13.2275 5.25621 13.2715 5.05406 13.2715C4.63219 13.2715 4.36851 13.6582 4.57066 13.9746C4.64098 14.0801 4.99254 14.1152 6.56578 14.1504L8.4818 14.1943L8.63121 14.9414C9.01793 16.8311 8.93883 20.3379 8.47301 21.9023C8.42906 22.043 8.26207 22.0605 6.63609 22.0605C4.71129 22.0605 4.57066 22.0957 4.57066 22.5352C4.57066 22.8164 4.73765 22.9395 5.1068 22.9395C5.48473 22.9395 5.46715 22.9043 5.6693 24.0381C5.97691 25.7432 5.94176 28.0459 5.57262 30.0762L5.43199 30.8496H5.1068C4.73765 30.8496 4.57066 30.9727 4.57066 31.2363C4.57945 31.667 4.6234 31.6846 6.60973 31.7285L8.4818 31.7725L8.63121 32.5195C8.9564 34.1016 8.97398 36.7031 8.66637 38.4961C8.46422 39.6562 8.47301 39.6387 8.13023 39.6387C7.8314 39.6387 7.55894 39.8232 7.55894 40.0166C7.55894 40.0781 7.62047 40.2188 7.69957 40.3242L7.8314 40.5176H23.5462C38.3998 40.5176 39.2699 40.5088 39.3929 40.3594C39.5863 40.1396 39.9466 39.1816 40.1576 38.3203C40.5531 36.6943 40.597 35.1123 40.2982 33.5127C40.0873 32.4141 39.6039 31.0869 39.3402 30.9199C39.2875 30.8848 38.6722 30.8496 37.9779 30.8496C36.9408 30.8496 36.7298 30.832 36.765 30.7266C37.2572 29.4521 37.4769 27.9756 37.4154 26.332C37.3714 25.0664 37.2923 24.583 36.8617 23.1328L36.8089 22.9395H38.0394C39.0062 22.9395 39.305 22.9131 39.4017 22.8076C39.6039 22.6143 40.0521 21.2871 40.263 20.2852C40.5179 19.0986 40.5355 17.1123 40.3158 15.9697C40.1312 15.0557 39.7005 13.8076 39.4457 13.4912C39.2787 13.2715 39.2611 13.2715 37.9779 13.2715H36.6771L36.8441 12.7617C37.3275 11.3027 37.5121 9.67676 37.3539 8.21777C37.1957 6.60938 36.6244 4.79004 36.2201 4.5791C36.097 4.50879 31.2191 4.48242 20.4437 4.48242C4.94859 4.48242 4.83433 4.48242 4.65855 4.6582ZM35.8685 5.75684C36.308 6.75 36.4134 7.42676 36.4222 9.18457C36.431 10.9336 36.3959 11.1797 35.9652 12.542L35.7367 13.2715H21.0238H6.30211L6.36363 12.9375C6.83824 10.2129 6.86461 7.98926 6.45152 6.03809C6.38121 5.7041 6.32848 5.42285 6.32848 5.39648C6.32848 5.37891 12.9379 5.36133 21.015 5.36133H35.6927L35.8685 5.75684ZM25.9281 15.1172V16.084H24.1439C22.8695 16.084 22.3334 16.1104 22.2543 16.1895C22.0873 16.3564 22.1224 16.7695 22.3158 16.875C22.4212 16.9277 23.1947 16.9629 24.2054 16.9629H25.9281V19.5117V22.0605H17.6664C12.8236 22.0605 9.40465 22.0254 9.40465 21.9814C9.40465 21.9375 9.49254 21.4365 9.58922 20.8564C9.91441 19.0547 9.83531 15.75 9.4398 14.3438L9.38707 14.1504H17.6576H25.9281V15.1172ZM32.0629 20.8477C32.0716 25.2422 32.0541 27.5098 31.9925 27.5098C31.9486 27.5098 31.4037 27.1494 30.7972 26.71C30.1908 26.2705 29.6371 25.8926 29.5755 25.8662C29.4086 25.8047 29.1976 25.9365 28.0199 26.7715C27.4574 27.1758 26.974 27.5098 26.9476 27.5098C26.9212 27.5098 26.8949 24.5039 26.8949 20.8301V14.1504L29.4701 14.168L32.0365 14.1943L32.0629 20.8477ZM39.1029 14.959C39.4896 16.1982 39.5863 16.9453 39.5248 18.4746C39.472 19.8193 39.4017 20.2412 39.015 21.4189L38.8129 22.0605H35.8861H32.9593V18.1055V14.1504H35.9037H38.8392L39.1029 14.959ZM25.9457 25.7783C25.972 28.8105 25.9896 28.916 26.4027 28.916C26.4994 28.916 27.2201 28.459 27.9935 27.9053C28.767 27.3516 29.4525 26.9209 29.514 26.9385C29.5755 26.9648 30.2347 27.4131 30.9818 27.9492C31.7201 28.4766 32.4144 28.916 32.5111 28.916C32.6078 28.916 32.7484 28.8281 32.8187 28.7227C32.9418 28.5557 32.9593 28.1162 32.9593 25.7344V22.9395L34.392 22.957L35.8158 22.9834L36.0531 23.6514C36.7298 25.6025 36.7211 27.9053 36.0179 30.1465L35.807 30.8057L21.0589 30.832C7.04039 30.8496 6.31969 30.8408 6.36363 30.7002C6.5482 30.1113 6.7064 28.7227 6.75914 27.3779L6.81187 25.7959L9.52769 25.7695C11.3558 25.7607 12.2875 25.7168 12.3666 25.6553C12.5248 25.5234 12.5072 25.1807 12.3402 25.0137C12.2259 24.8906 11.8392 24.873 9.45738 24.873H6.71519L6.60973 24.1436C6.5482 23.748 6.47789 23.3174 6.44273 23.1768L6.39879 22.9395H16.1546H25.9193L25.9457 25.7783ZM39.015 32.2207C39.1117 32.4932 39.2787 33.1084 39.3841 33.6006C39.7357 35.2969 39.516 37.8457 38.9095 39.3047L38.7689 39.6387H24.0912C13.4125 39.6387 9.40465 39.6123 9.40465 39.542C9.40465 39.4893 9.46617 39.0938 9.54527 38.6631L9.69469 37.8809H13.263C15.9261 37.8809 16.8666 37.8545 16.9457 37.7754C17.0775 37.6436 17.0775 37.2393 16.9457 37.1074C16.8666 37.0283 15.9437 37.002 13.3158 37.002H9.80015L9.79137 35.3936C9.78258 33.9697 9.64195 32.5283 9.4398 31.8779C9.39586 31.7373 10.1341 31.7285 24.1087 31.7285H38.8216L39.015 32.2207Z" fill="white" stroke="white" stroke-width="0.25"/>
<path d="M10.3011 7.22461C10.1517 7.37402 10.1693 7.69922 10.3363 7.85742C10.4505 7.98047 10.846 7.99805 13.2718 7.99805C15.8822 7.99805 16.0755 7.98926 16.2689 7.83105C16.4447 7.69043 16.4622 7.62891 16.3919 7.41797L16.304 7.16309L13.3509 7.13672C11.1361 7.11914 10.3802 7.14551 10.3011 7.22461Z" fill="white" stroke="white" stroke-width="0.25"/>
<path d="M18.9144 7.22461C18.7474 7.3916 18.7826 7.80469 18.9759 7.91016C19.0814 7.96289 19.8812 7.99805 20.9623 7.99805C22.0433 7.99805 22.8431 7.96289 22.9486 7.91016C23.1419 7.80469 23.1771 7.3916 23.0101 7.22461C22.8607 7.0752 19.0638 7.0752 18.9144 7.22461Z" fill="white" stroke="white" stroke-width="0.25"/>
<path d="M12.3927 10.8105C12.1817 11.0215 12.1729 11.1533 12.3399 11.3906C12.463 11.5488 12.6036 11.5576 16.0401 11.5576C19.4766 11.5576 19.6173 11.5488 19.7403 11.3906C19.9073 11.1533 19.8985 11.0215 19.6876 10.8105C19.5206 10.6436 19.3975 10.6348 16.0401 10.6348C12.6827 10.6348 12.5597 10.6436 12.3927 10.8105Z" fill="white" stroke="white" stroke-width="0.25"/>
<path d="M25.8313 10.8193C25.7346 10.916 25.6731 11.0566 25.6995 11.1357C25.7259 11.2061 25.7522 11.2939 25.7522 11.3291C25.7522 11.5576 26.3147 11.6016 29.5139 11.6016C32.0012 11.6016 32.8801 11.5752 33.0471 11.4873C33.346 11.3379 33.3899 10.96 33.1175 10.7754C32.9417 10.6523 32.4846 10.6348 29.47 10.6348C26.0862 10.6348 26.0159 10.6348 25.8313 10.8193Z" fill="white" stroke="white" stroke-width="0.25"/>
<path d="M14.0276 16.2246C13.8431 16.4092 13.8519 16.6377 14.0452 16.8135C14.1858 16.9453 14.5022 16.9629 16.6731 16.9629C18.9407 16.9629 19.1429 16.9541 19.2747 16.8047C19.4593 16.6025 19.4681 16.4004 19.2835 16.2246C19.1692 16.1016 18.8001 16.084 16.6556 16.084C14.511 16.084 14.1419 16.1016 14.0276 16.2246Z" fill="white" stroke="white" stroke-width="0.25"/>
<path d="M16.2335 19.4062C16.0401 19.6172 16.0489 19.8018 16.2423 19.9775C16.3917 20.1094 16.7872 20.127 20.1358 20.127C22.9219 20.127 23.8975 20.1006 23.9766 20.0215C24.1085 19.8896 24.1085 19.4854 23.9766 19.3535C23.8975 19.2744 22.9219 19.248 20.127 19.248C16.6026 19.248 16.3653 19.2568 16.2335 19.4062Z" fill="white" stroke="white" stroke-width="0.25"/>
<path d="M17.4027 25.0488C17.1917 25.2598 17.183 25.4268 17.3675 25.6113C17.4818 25.7344 17.807 25.752 19.5999 25.752C21.5863 25.752 21.7093 25.7432 21.7972 25.585C21.9203 25.3389 21.9115 25.251 21.7093 25.0488C21.5423 24.8818 21.4193 24.873 19.556 24.873C17.6927 24.873 17.5697 24.8818 17.4027 25.0488Z" fill="white" stroke="white" stroke-width="0.25"/>
<path d="M11.391 28.0898C11.224 28.248 11.2064 28.5732 11.3558 28.7227C11.5052 28.8721 18.9935 28.8721 19.1429 28.7227C19.3099 28.5557 19.2747 28.1426 19.0814 28.0371C18.9671 27.9844 17.596 27.9492 15.2142 27.9492C11.9798 27.9492 11.514 27.9668 11.391 28.0898Z" fill="white" stroke="white" stroke-width="0.25"/>
<path d="M20.7957 33.6797C20.6199 33.9346 20.6199 33.9785 20.8309 34.1895C20.9979 34.3564 21.1209 34.3652 23.9598 34.3652C25.8231 34.3652 26.9656 34.3301 27.0799 34.2773C27.2732 34.1719 27.3084 33.7588 27.1414 33.5918C27.0623 33.5127 26.2361 33.4863 23.9861 33.4863H20.9275L20.7957 33.6797Z" fill="white" stroke="white" stroke-width="0.25"/>
<path d="M29.8828 33.6533C29.751 33.8994 29.7774 34.0576 29.9532 34.2158C30.0938 34.3477 30.375 34.3652 32.0713 34.3652C33.2491 34.3652 34.0928 34.3301 34.1983 34.2773C34.3916 34.1719 34.4268 33.7588 34.2598 33.5918C34.1807 33.5127 33.5743 33.4863 32.0625 33.4863C30.0938 33.4863 29.9707 33.4951 29.8828 33.6533Z" fill="white" stroke="white" stroke-width="0.25"/>
<path d="M22.9749 37.2217C22.843 37.4238 22.843 37.459 22.9749 37.6611L23.1155 37.8809H26.8948H30.6741L30.8147 37.6611C30.9465 37.459 30.9465 37.4238 30.8147 37.2217L30.6741 37.002H26.8948H23.1155L22.9749 37.2217Z" fill="white" stroke="white" stroke-width="0.25"/>
</svg>
