<svg width="50" height="50" viewBox="0 0 50 50" fill="none" xmlns="http://www.w3.org/2000/svg">
<g clip-path="url(#clip0_30_6)">
<path d="M10.1563 7.13867C8.68164 7.2168 6.83594 7.5 5.52735 7.83203C4.41406 8.11523 4.26758 8.29102 4.21875 9.33594L4.17969 10.0586H2.40235C0.507815 10.0586 0.371096 10.0977 0.107424 10.6152C-0.0585911 10.9375 -0.0390599 42.0508 0.126956 42.3828C0.195315 42.5195 0.410159 42.7051 0.605471 42.8027L0.966799 42.9785L2.2168 42.4414C8.83789 39.6191 16.1426 39.0039 23.6523 40.625L24.9902 40.918L26.2891 40.6348C27.8906 40.2832 29.8633 39.9805 31.3477 39.8438C33.5938 39.6484 37.6953 39.7656 39.6387 40.0977C42.8906 40.6348 45.3027 41.3379 47.8613 42.4609C49.1113 43.0176 49.3652 43.0273 49.7559 42.5586L50 42.2656V26.5527C50 9.45312 50.0293 10.4297 49.4629 10.1758C49.2969 10.0977 48.6035 10.0586 47.4609 10.0586H45.7031V9.31641C45.7031 8.48633 45.6152 8.26172 45.2344 8.06641C44.5312 7.71484 41.875 7.26562 39.6387 7.13867C33.9551 6.79688 29.2188 8.19336 25.7324 11.2207L24.9609 11.8945L24.2578 11.2402C22.1875 9.30664 19.1699 7.92969 15.7715 7.38281C14.8535 7.23633 12.2559 7.02148 11.7188 7.05078C11.582 7.05078 10.8789 7.08984 10.1563 7.13867ZM15.5566 9.36523C18.7988 9.98047 21.2207 11.1426 23.1934 13.0078L24.0234 13.7891V25.8398C24.0234 32.4707 24.0039 37.8906 23.9746 37.8906C23.9453 37.8906 23.7402 37.7734 23.5059 37.627C21.9043 36.6113 19.1504 35.6836 16.4941 35.2637C13.5254 34.7852 10.8496 34.7461 6.91406 35.1172L6.15235 35.1855V22.4414V9.69727L6.96289 9.54102C7.67578 9.4043 8.61328 9.26758 9.66797 9.14062C9.85352 9.12109 11.0254 9.11133 12.2559 9.13086C14.0234 9.15039 14.7266 9.20898 15.5566 9.36523ZM41.7578 9.31641C42.3535 9.4043 43.0566 9.53125 43.3203 9.59961L43.7988 9.7168L43.8281 22.4512L43.8477 35.1855L43.0957 35.1172C40.8691 34.9121 40.0391 34.8633 38.5156 34.8633C34.0332 34.8633 30.0879 35.7129 26.9824 37.3535L25.9766 37.8809V25.8398V13.7988L26.6406 13.1445C28.916 10.9082 31.582 9.76562 35.9863 9.14062C36.6797 9.04297 40.7324 9.16992 41.7578 9.31641ZM4.29688 24.3457V36.6797L4.50196 36.9043C4.81446 37.2363 5.08789 37.3047 5.78125 37.1973C7.2461 36.9824 9.76563 36.8164 11.5723 36.8164C14.2578 36.8164 16.5137 37.1094 18.6523 37.7344L19.4824 37.9785L18.5547 37.9102C17.0898 37.8027 12.8516 37.8418 11.6699 37.9688C8.63282 38.3203 5.36133 39.1113 2.61719 40.166L1.95313 40.4199V26.2207V12.0117H3.125H4.29688V24.3457ZM48.0469 26.2207V40.4199L47.3926 40.166C44.209 38.9648 40.6738 38.1641 37.2656 37.8809C35.9277 37.7734 32.2363 37.8125 30.957 37.9395C30.5859 37.9785 30.6445 37.9492 31.2988 37.7441C32.3926 37.4121 34.3164 37.041 35.6934 36.9043C37.1582 36.7578 41.4844 36.8457 43.1152 37.0508C44.5117 37.2363 45.0586 37.2461 45.332 37.0996C45.8105 36.8457 45.8008 37.1973 45.8008 24.1699V12.0117H46.9238H48.0469V26.2207Z" fill="black"/>
</g>
<defs>
<clipPath id="clip0_30_6">
<rect width="50" height="50" fill="white"/>
</clipPath>
</defs>
</svg>
