<svg width="45" height="45" viewBox="0 0 45 45" fill="none" xmlns="http://www.w3.org/2000/svg">
<path d="M35.2713 1.85451C34.1639 2.05666 33.1707 3.12014 32.4588 4.86037L32.1687 5.58107L31.6678 5.53713C30.7537 5.45803 29.0574 5.49318 28.6971 5.60744C28.5037 5.66018 28.1258 5.83596 27.8621 5.99416C27.2996 6.33693 26.8514 6.99611 26.7547 7.62893C26.614 8.55178 27.1502 9.95803 28.073 11.1094C28.3455 11.4434 28.5652 11.751 28.5652 11.7949C28.5652 11.8301 28.3455 12.1289 28.0818 12.4541C27.5193 13.1572 26.9392 14.2647 26.7986 14.9326C26.5262 16.2334 27.1414 17.3672 28.3894 17.8594C28.7937 18.0176 29.0574 18.0528 30.0594 18.0528C30.7098 18.0615 31.4568 18.044 31.7117 18.0176L32.1687 17.9737L32.4676 18.6944C32.8455 19.626 33.2586 20.3203 33.7596 20.8301C34.8582 21.9727 36.2644 22.0606 37.4158 21.0586C37.9256 20.6104 38.5935 19.5733 38.9451 18.6768L39.2351 17.9297L39.6746 17.9912C39.9207 18.0352 40.659 18.0615 41.3094 18.0528C42.6717 18.0528 43.199 17.9033 43.8494 17.3496C45.1414 16.2334 44.8601 14.3877 43.032 12.0938L42.7859 11.7774L43.2254 11.2324C44.4383 9.70314 44.8953 8.27932 44.5174 7.19826C44.0691 5.93264 42.8387 5.37014 40.7908 5.48439C40.2283 5.51076 39.6482 5.5635 39.4988 5.58986C39.2351 5.6426 39.2088 5.61623 39.1121 5.29982C38.9012 4.66701 38.1453 3.29592 37.7498 2.83889C37.4861 2.53127 37.1609 2.29396 36.8006 2.11818C36.1765 1.82814 35.7986 1.75783 35.2713 1.85451ZM36.0623 3.28713C36.493 3.46291 37.0379 4.12209 37.4246 4.93068C37.9519 6.02932 37.9432 6.00295 37.5037 6.13478C37.3015 6.19631 36.8094 6.37209 36.4226 6.53908L35.7019 6.82033L34.7527 6.4424C34.2254 6.24025 33.742 6.06447 33.6717 6.06447C33.4959 6.06447 33.6014 5.65139 33.9793 4.87795C34.3484 4.12209 34.8933 3.45412 35.2889 3.28713C35.6228 3.13771 35.7195 3.13771 36.0623 3.28713ZM31.4217 6.93459C31.615 6.96975 31.7644 7.04006 31.7557 7.10158C31.7381 7.15432 31.6678 7.60256 31.5887 8.10353C31.5183 8.60451 31.4305 9.08791 31.4129 9.18459C31.3865 9.28127 30.9734 9.66799 30.49 10.0547C29.4705 10.8545 29.5496 10.8633 28.8728 9.84377C27.8709 8.33205 27.8973 7.36525 28.9607 6.98732C29.3387 6.85549 30.824 6.82033 31.4217 6.93459ZM42.3289 6.95217C42.5486 7.01369 42.8387 7.17189 42.9881 7.31252C43.2078 7.53225 43.243 7.63771 43.243 8.02443C43.243 8.59572 42.8826 9.37795 42.2586 10.2129L41.8103 10.8018L41.1072 10.2129C40.7205 9.88771 40.3162 9.54494 40.2019 9.44826C40.0349 9.29885 39.9646 9.08791 39.824 8.18264C39.7185 7.58498 39.6394 7.06643 39.6394 7.02248C39.6394 6.85549 41.7312 6.80275 42.3289 6.95217ZM33.5926 7.4883C33.7771 7.54103 33.9178 7.62014 33.909 7.66408C33.8914 7.70803 33.6717 7.85744 33.408 8.00686L32.9422 8.27932L33.0037 7.98049C33.1355 7.30373 33.1004 7.33889 33.5926 7.4883ZM38.2683 7.45314C38.2947 7.49709 38.3387 7.69924 38.3738 7.90139L38.4353 8.26174L37.9344 7.98049C37.6619 7.82228 37.4422 7.67287 37.4422 7.63771C37.4422 7.58498 37.9168 7.4092 38.1189 7.39162C38.1717 7.38283 38.242 7.41799 38.2683 7.45314ZM36.4754 8.75393C36.8885 8.97365 37.5476 9.35158 37.9432 9.59768L38.6551 10.0459L38.7166 10.916C38.7517 11.3906 38.7517 12.1729 38.7166 12.6563L38.6551 13.5352L37.8816 14.0098C37.4598 14.2735 36.7918 14.6514 36.3963 14.8535L35.6756 15.2139L34.8055 14.7569C34.3308 14.502 33.6717 14.1153 33.3377 13.8955L32.74 13.4912V11.7862V10.0811L33.2234 9.74709C33.6892 9.43068 35.5965 8.34963 35.6844 8.34963C35.7107 8.34963 36.0623 8.5342 36.4754 8.75393ZM31.2723 12.0762L31.2459 12.375L30.9031 12.085L30.5603 11.8037L30.9031 11.4873L31.2459 11.1709L31.2723 11.4785C31.2898 11.6455 31.2898 11.9092 31.2723 12.0762ZM40.782 11.7862C40.782 11.8213 40.6238 11.9795 40.4305 12.1289L40.0789 12.4102V11.7774V11.1533L40.4305 11.4346C40.6238 11.5928 40.782 11.751 40.782 11.7862ZM30.534 13.5791L31.4392 14.3174L31.5008 14.8711C31.5271 15.1787 31.6062 15.6709 31.6765 15.9785C31.7381 16.2862 31.7644 16.5498 31.7293 16.5674C31.5447 16.6817 30.0418 16.7696 29.5584 16.708C28.1609 16.5059 27.7918 15.7852 28.4334 14.4844C28.6619 14.0186 29.4881 12.8321 29.5848 12.8321C29.6111 12.8321 30.0418 13.166 30.534 13.5791ZM42.0301 13.0694C42.7068 13.8076 43.243 14.8887 43.243 15.5127C43.243 16.2598 42.909 16.5498 41.8543 16.6992C41.3182 16.7696 39.7713 16.6817 39.657 16.5762C39.6394 16.5586 39.7098 16.0313 39.8152 15.4072C39.9998 14.2998 40.0086 14.2735 40.325 14.0186C40.5008 13.8692 40.8875 13.5528 41.1775 13.2979C41.4676 13.0518 41.7312 12.8408 41.7576 12.8408C41.784 12.8321 41.907 12.9375 42.0301 13.0694ZM33.9265 15.9082C33.9265 15.9697 33.3904 16.1719 33.241 16.1719C33.1443 16.1719 33.1004 16.0664 33.0037 15.583L32.9422 15.293L33.4344 15.583C33.7068 15.7324 33.9265 15.8819 33.9265 15.9082ZM38.365 15.75C38.3299 15.961 38.2859 16.1455 38.2683 16.1631C38.2244 16.2158 37.4422 15.9785 37.4422 15.917C37.4422 15.8555 38.2332 15.3985 38.3474 15.3897C38.3914 15.3809 38.4002 15.5479 38.365 15.75ZM36.0623 16.8926C36.1678 16.9453 36.616 17.1211 37.0467 17.2793C37.9607 17.6045 37.9432 17.5518 37.4861 18.5274C37.073 19.3975 36.6775 19.9248 36.2469 20.1797C35.6404 20.5313 35.2625 20.4258 34.6297 19.7139C34.0232 19.0283 33.364 17.4903 33.6805 17.4903C33.7508 17.4903 34.199 17.3321 34.6824 17.1475C35.6404 16.7608 35.781 16.7344 36.0623 16.8926Z" fill="white"/>
<path d="M14.8012 6.31934C13.9663 6.53027 13.1665 7.18945 12.8061 7.98046C12.6567 8.29687 12.6127 8.56054 12.6127 9.14062C12.6127 10.0986 12.8852 10.7051 13.5883 11.3115L14.0629 11.7246V15.7412V19.7578L11.5317 22.8691C2.96236 33.3896 1.24849 35.5078 0.993608 35.9473C-0.649947 38.6719 1.05513 42.1787 4.43892 43.04C5.019 43.1894 5.88912 43.1982 18.9848 43.1982C34.6381 43.1982 33.311 43.251 34.7963 42.5303C36.2729 41.8096 37.3188 40.3857 37.5473 38.8037C37.6704 37.9336 37.5034 36.9756 37.0903 36.167C36.9233 35.8506 35.4028 33.8994 33.1967 31.1924C31.2016 28.749 28.3012 25.1807 26.7456 23.2646L23.9067 19.7842V15.7148V11.6455L24.2143 11.4434C25.2426 10.7314 25.6645 9.1582 25.1284 7.99804C24.8032 7.30371 24.4165 6.89941 23.7485 6.57422L23.1596 6.28418L19.1167 6.2666C16.893 6.25781 14.9506 6.28418 14.8012 6.31934ZM23.2036 7.84863C23.8627 8.20019 24.1616 9.01757 23.8715 9.69433C23.7309 10.0371 23.3354 10.415 23.0014 10.5381C22.8432 10.5996 21.4194 10.6348 18.9497 10.6348H15.144L14.7573 10.4326C14.2124 10.1426 13.9575 9.68554 14.0014 9.04394C14.0366 8.46386 14.2739 8.07714 14.7485 7.82226C15.0561 7.66406 15.2846 7.65527 18.9497 7.64648H22.8256L23.2036 7.84863ZM22.5004 16.0312C22.5004 18.2285 22.5356 20.1182 22.5795 20.2324C22.6235 20.3467 23.4936 21.4629 24.5131 22.7197C25.5327 23.9678 26.3501 25.0137 26.3325 25.0312C26.3149 25.0488 25.9106 25.0137 25.4272 24.9521C24.2934 24.8115 21.9379 24.8115 21.0502 24.9521C20.6635 25.0137 19.9516 25.207 19.4682 25.374C17.9038 25.9189 17.4204 26.0244 16.2163 26.0771C15.4077 26.1123 14.7573 26.0771 13.9751 25.9805C12.9379 25.8398 11.3559 25.5322 11.2768 25.4531C11.2504 25.4355 12.1733 24.2754 13.3071 22.8779L15.3725 20.3467L15.3813 16.1894V12.041H18.9409H22.5004V16.0312ZM25.1811 26.376C26.4643 26.5078 27.7915 26.7891 27.9585 26.9648C28.2661 27.29 35.4555 36.1582 35.684 36.501C37.0551 38.54 35.5258 41.3437 32.8276 41.748C32.4145 41.8096 27.7211 41.8359 18.5893 41.8184L4.96626 41.792L4.40376 41.5898C3.29634 41.1943 2.51412 40.5088 2.03951 39.5508C1.82857 39.1289 1.8022 38.9619 1.8022 38.2324C1.8022 37.5117 1.83736 37.3359 2.03072 36.9141C2.18013 36.6152 3.70064 34.6728 6.0649 31.7725C8.15669 29.2061 9.94087 27.0176 10.0288 26.9033L10.2045 26.6924L11.1889 26.9209C13.0786 27.3603 13.8256 27.457 15.6889 27.457C17.5961 27.4658 18.3256 27.3516 19.5122 26.8506C20.9272 26.2529 22.6235 26.1123 25.1811 26.376Z" fill="white"/>
<path d="M18.5365 28.0107C18.4047 28.0283 18.0883 28.1689 17.8334 28.3271C16.6645 29.0303 16.4359 30.5771 17.3412 31.6143C17.807 32.1328 18.2641 32.335 18.9496 32.3438C19.8285 32.3438 20.5404 31.9219 20.9447 31.166C21.1908 30.6914 21.2084 29.7158 20.9711 29.2676C20.7514 28.8457 20.3207 28.4062 19.9428 28.2129C19.6088 28.0371 18.9233 27.9404 18.5365 28.0107ZM19.2397 29.4521C19.5297 29.5576 19.7758 29.9092 19.7758 30.2344C19.7758 30.5332 19.31 30.9375 18.9672 30.9375C18.1586 30.9375 17.9125 29.8652 18.6332 29.5137C18.8002 29.4258 18.9408 29.3555 18.9496 29.3555C18.9584 29.3555 19.0815 29.3994 19.2397 29.4521Z" fill="white"/>
<path d="M10.7936 31.2275C9.07978 31.8691 8.13935 33.5654 8.56123 35.2441C8.81611 36.2461 9.53681 37.0986 10.5124 37.5469C10.8727 37.7139 11.0925 37.749 11.822 37.749C12.6042 37.749 12.7536 37.7227 13.1931 37.5029C14.2302 37.002 14.9069 36.123 15.1179 35.0068C15.3991 33.6006 14.6257 32.1064 13.2897 31.4473C12.78 31.1924 12.6042 31.1572 11.9099 31.1309C11.4089 31.1221 11.0046 31.1572 10.7936 31.2275ZM12.6218 32.6865C13.8962 33.2666 14.1335 35.0332 13.0524 35.9297C12.2438 36.5977 11.1804 36.5273 10.4509 35.7715C9.75654 35.0596 9.68623 34.1279 10.2575 33.293C10.7233 32.6074 11.8308 32.3262 12.6218 32.6865Z" fill="white"/>
<path d="M24.61 32.0273C23.4147 32.2822 22.3951 33.0908 21.8326 34.2422C21.525 34.8574 21.4899 34.998 21.4635 35.7715C21.4371 36.4219 21.4635 36.7471 21.5778 37.1074C22.149 38.8652 23.6608 39.9902 25.4449 39.9902C26.6051 39.9902 27.5719 39.5771 28.3717 38.7246C29.8746 37.1338 29.8483 34.6729 28.3102 33.1523C27.7213 32.5547 27.1237 32.2207 26.359 32.0361C25.6998 31.8867 25.278 31.8779 24.61 32.0273ZM26.6051 33.627C28.2135 34.3916 28.5475 36.6064 27.2467 37.8721C26.5699 38.5225 25.4889 38.751 24.5572 38.4346C23.9684 38.2324 23.2037 37.4678 23.0016 36.8789C22.7203 36.0527 22.8346 35.2002 23.318 34.4883C24.0475 33.416 25.4098 33.0557 26.6051 33.627Z" fill="white"/>
</svg>
