<svg width="50" height="50" viewBox="0 0 50 50" fill="none" xmlns="http://www.w3.org/2000/svg">
<g clip-path="url(#clip0_30_25)">
<path d="M22.666 0.107422C17.9199 0.527344 13.0078 2.53906 9.22852 5.61523C8.11523 6.51367 6.35742 8.29102 5.47852 9.39453C3.24219 12.1973 1.40625 15.9863 0.644531 19.3848C0.166016 21.5137 0.0585938 22.5586 0.0585938 25C0.0585938 27.4414 0.166016 28.4863 0.644531 30.6152C1.41602 34.082 3.30078 37.9297 5.61523 40.7715C6.51367 41.8848 8.29102 43.6426 9.39453 44.5215C12.1973 46.7578 15.9863 48.5938 19.3848 49.3555C21.5137 49.834 22.5586 49.9414 25 49.9414C27.4414 49.9414 28.4863 49.834 30.6152 49.3555C33.1641 48.7891 36.5039 47.3633 38.7012 45.9082C42.5 43.3789 45.4199 40.0586 47.4219 35.9863C49.0332 32.6953 49.8242 29.5605 49.9707 25.8984C50.1953 20.0586 48.3301 14.3457 44.6484 9.57031C43.8281 8.50586 41.4941 6.17188 40.4297 5.35156C35.2734 1.37695 29.0625 -0.458984 22.666 0.107422ZM28.3203 1.9043C29.6191 2.09961 31.4746 2.54883 32.7539 2.98828C34.8438 3.71094 37.6465 5.25391 39.4922 6.71875C40.3809 7.41211 42.5879 9.61914 43.2812 10.5078C44.7461 12.3535 46.2891 15.1562 47.0117 17.2461C47.9199 19.9121 48.2812 22.0996 48.2812 25C48.2812 27.373 48.1348 28.6035 47.6074 30.7129C45.5273 38.9551 38.9551 45.5273 30.7129 47.6074C28.6035 48.1348 27.373 48.2812 25 48.2812C22.0996 48.2812 19.9121 47.9199 17.2461 47.0117C15.1562 46.2891 12.3535 44.7461 10.5078 43.2812C9.61914 42.5879 7.41211 40.3809 6.71875 39.4922C5.25391 37.6465 3.71094 34.8438 2.98828 32.7539C2.54883 31.4551 2.09961 29.6191 1.88477 28.2227C1.65039 26.6699 1.65039 23.3301 1.88477 21.7773C2.26562 19.248 2.94922 17.041 4.04297 14.7949C5.27344 12.2852 6.49414 10.5762 8.53516 8.53516C9.9707 7.10938 10.7227 6.48438 12.2266 5.48828C15.3223 3.44727 18.9844 2.1582 22.8027 1.76758C24.0039 1.64062 27.0703 1.71875 28.3203 1.9043Z" fill="black"/>
<path d="M22.5586 4.30668C16.2793 5.02934 10.5371 8.75005 7.16799 14.2579C5.64455 16.7774 4.62893 19.7461 4.2969 22.7051C4.08205 24.6582 4.19924 27.168 4.59963 29.1993C5.70315 34.7364 9.28713 39.795 14.2578 42.8321C18.6719 45.5176 24.0039 46.4356 29.1992 45.4004C34.7363 44.2969 39.7949 40.7129 42.8321 35.7422C45.6543 31.0938 46.5137 25.4395 45.2149 20.0489C44.3262 16.377 42.4512 13.0567 39.6973 10.3028C36.377 6.98247 32.2461 4.95121 27.6074 4.34575C26.3672 4.1895 23.7891 4.16996 22.5586 4.30668ZM27.461 6.00591C31.7383 6.59184 35.5078 8.45708 38.5254 11.4747C41.5625 14.5118 43.4082 18.252 44.0039 22.6075C44.1895 23.9844 44.1504 26.6797 43.916 28.0274C43.1934 32.1485 41.3965 35.6543 38.5254 38.5254C35.6543 41.3965 32.1485 43.1934 28.0274 43.9161C26.6797 44.1504 23.9844 44.1895 22.6074 44.004C18.252 43.4082 14.5117 41.5625 11.4746 38.5254C7.85158 34.9024 5.8594 30.1075 5.8594 25C5.8594 16.9825 10.8789 9.79497 18.3985 7.02153C21.1914 5.99614 24.5801 5.61528 27.461 6.00591Z" fill="black"/>
<path d="M24.4433 7.7539L24.1699 7.98827L24.1406 9.83398C24.121 11.4453 24.1308 11.709 24.2871 12.0117C24.3847 12.207 24.58 12.3926 24.7363 12.4414C25.1269 12.5781 25.5078 12.4121 25.7128 12.0117C25.8691 11.709 25.8789 11.4453 25.8593 9.83398L25.83 7.98827L25.5566 7.7539C25.4003 7.62695 25.1562 7.51952 25 7.51952C24.8437 7.51952 24.5996 7.62695 24.4433 7.7539Z" fill="black"/>
<path d="M36.1816 12.6562C36.0254 12.7343 32.5879 14.6972 28.5449 17.0019L21.2012 21.2011L16.8848 28.7402C14.0918 33.6327 12.5586 36.4062 12.5293 36.6406C12.4805 36.9335 12.5195 37.0409 12.7442 37.2558C12.959 37.4804 13.0664 37.5195 13.3594 37.4706C13.5938 37.4413 16.3672 35.9081 21.2598 33.1152L28.7988 28.7988L33.1152 21.2597C35.9082 16.3671 37.4414 13.5937 37.4707 13.3593C37.5195 13.0663 37.4805 12.9589 37.2754 12.7538C36.9824 12.4609 36.6113 12.4316 36.1816 12.6562ZM31.2402 21.2011C29.5117 24.2284 28.0762 26.7284 28.0566 26.7577C28.0371 26.7773 26.9434 25.7226 25.6348 24.414C24.2676 23.0468 23.2813 21.9921 23.3301 21.9433C23.457 21.8163 34.3164 15.6249 34.3457 15.664C34.3652 15.6835 32.9688 18.1738 31.2402 21.2011ZM24.4141 25.6347C25.7227 26.9433 26.7774 28.037 26.7578 28.0566C26.7188 28.0859 17.002 33.6132 15.6836 34.3554C15.5762 34.414 15.5762 34.414 19.1406 28.1445C20.6738 25.4491 21.9434 23.2519 21.9727 23.2421C22.002 23.2421 23.0957 24.3163 24.4141 25.6347Z" fill="black"/>
<path d="M8.13477 24.1894C7.8418 24.248 7.51953 24.6679 7.51953 25.0097C7.51953 25.1562 7.62695 25.4101 7.75391 25.5566L7.98828 25.83L9.83398 25.8593C11.4453 25.8788 11.709 25.8691 12.0117 25.7128C12.4121 25.5077 12.5781 25.1269 12.4414 24.7265C12.2656 24.2187 11.8652 24.121 10.0098 24.1308C9.10156 24.1405 8.25195 24.1698 8.13477 24.1894Z" fill="black"/>
<path d="M37.9883 24.287C37.793 24.3847 37.6074 24.58 37.5586 24.7265C37.4219 25.1269 37.5879 25.5077 37.9883 25.7128C38.291 25.8691 38.5547 25.8788 40.166 25.8593L42.0117 25.83L42.2461 25.5566C42.3731 25.4003 42.4805 25.1562 42.4805 24.9999C42.4805 24.8437 42.3731 24.5995 42.2461 24.4433L42.0117 24.1698L40.166 24.1405C38.5547 24.121 38.291 24.1308 37.9883 24.287Z" fill="black"/>
<path d="M24.4629 37.7344C24.1406 38.0566 24.1015 38.3984 24.1406 40.332L24.1699 42.0117L24.4433 42.2461C24.7949 42.5488 25.205 42.5488 25.5566 42.2461L25.83 42.0117L25.8593 40.332C25.8789 39.4043 25.8691 38.4961 25.83 38.3105C25.7422 37.8516 25.3808 37.5 25 37.5C24.8144 37.5 24.6093 37.5879 24.4629 37.7344Z" fill="black"/>
</g>
<defs>
<clipPath id="clip0_30_25">
<rect width="50" height="50" fill="white"/>
</clipPath>
</defs>
</svg>
