<svg width="35" height="21" viewBox="0 0 35 21" fill="none" xmlns="http://www.w3.org/2000/svg">
<mask id="path-1-outside-1_54_15" maskUnits="userSpaceOnUse" x="0" y="0" width="35" height="21" fill="black">
<rect fill="white" width="35" height="21"/>
<path d="M2.34722 20C1.99522 20 1.69922 19.88 1.45922 19.64C1.21922 19.4 1.09922 19.104 1.09922 18.752V2.504C1.09922 2.136 1.21922 1.84 1.45922 1.616C1.69922 1.376 1.99522 1.256 2.34722 1.256H6.69122C8.06722 1.256 9.31522 1.488 10.4352 1.952C11.5712 2.4 12.5552 3.048 13.3872 3.896C14.2192 4.728 14.8592 5.712 15.3072 6.848C15.7552 7.984 15.9792 9.24 15.9792 10.616C15.9792 11.992 15.7552 13.256 15.3072 14.408C14.8592 15.544 14.2192 16.536 13.3872 17.384C12.5552 18.216 11.5712 18.864 10.4352 19.328C9.31522 19.776 8.06722 20 6.69122 20H2.34722ZM3.59522 17.792H6.69122C8.03522 17.792 9.21922 17.488 10.2432 16.88C11.2832 16.256 12.0992 15.408 12.6912 14.336C13.2832 13.248 13.5792 12.008 13.5792 10.616C13.5792 9.208 13.2832 7.968 12.6912 6.896C12.0992 5.824 11.2832 4.984 10.2432 4.376C9.21922 3.768 8.03522 3.464 6.69122 3.464H3.59522V17.792ZM21.1441 20C20.7921 20 20.4961 19.88 20.2561 19.64C20.0161 19.4 19.8961 19.104 19.8961 18.752V2.504C19.8961 2.136 20.0161 1.84 20.2561 1.616C20.4961 1.376 20.7921 1.256 21.1441 1.256H31.9921C32.3601 1.256 32.6561 1.368 32.8801 1.592C33.1041 1.8 33.2161 2.08 33.2161 2.432C33.2161 2.768 33.1041 3.04 32.8801 3.248C32.6561 3.456 32.3601 3.56 31.9921 3.56H22.3921V9.392H29.2801C29.6481 9.392 29.9441 9.504 30.1681 9.728C30.3921 9.936 30.5041 10.208 30.5041 10.544C30.5041 10.88 30.3921 11.16 30.1681 11.384C29.9441 11.592 29.6481 11.696 29.2801 11.696H22.3921V17.696H31.9921C32.3601 17.696 32.6561 17.8 32.8801 18.008C33.1041 18.216 33.2161 18.488 33.2161 18.824C33.2161 19.176 33.1041 19.464 32.8801 19.688C32.6561 19.896 32.3601 20 31.9921 20H21.1441Z"/>
</mask>
<path d="M2.34722 20C1.99522 20 1.69922 19.88 1.45922 19.64C1.21922 19.4 1.09922 19.104 1.09922 18.752V2.504C1.09922 2.136 1.21922 1.84 1.45922 1.616C1.69922 1.376 1.99522 1.256 2.34722 1.256H6.69122C8.06722 1.256 9.31522 1.488 10.4352 1.952C11.5712 2.4 12.5552 3.048 13.3872 3.896C14.2192 4.728 14.8592 5.712 15.3072 6.848C15.7552 7.984 15.9792 9.24 15.9792 10.616C15.9792 11.992 15.7552 13.256 15.3072 14.408C14.8592 15.544 14.2192 16.536 13.3872 17.384C12.5552 18.216 11.5712 18.864 10.4352 19.328C9.31522 19.776 8.06722 20 6.69122 20H2.34722ZM3.59522 17.792H6.69122C8.03522 17.792 9.21922 17.488 10.2432 16.88C11.2832 16.256 12.0992 15.408 12.6912 14.336C13.2832 13.248 13.5792 12.008 13.5792 10.616C13.5792 9.208 13.2832 7.968 12.6912 6.896C12.0992 5.824 11.2832 4.984 10.2432 4.376C9.21922 3.768 8.03522 3.464 6.69122 3.464H3.59522V17.792ZM21.1441 20C20.7921 20 20.4961 19.88 20.2561 19.64C20.0161 19.4 19.8961 19.104 19.8961 18.752V2.504C19.8961 2.136 20.0161 1.84 20.2561 1.616C20.4961 1.376 20.7921 1.256 21.1441 1.256H31.9921C32.3601 1.256 32.6561 1.368 32.8801 1.592C33.1041 1.8 33.2161 2.08 33.2161 2.432C33.2161 2.768 33.1041 3.04 32.8801 3.248C32.6561 3.456 32.3601 3.56 31.9921 3.56H22.3921V9.392H29.2801C29.6481 9.392 29.9441 9.504 30.1681 9.728C30.3921 9.936 30.5041 10.208 30.5041 10.544C30.5041 10.88 30.3921 11.16 30.1681 11.384C29.9441 11.592 29.6481 11.696 29.2801 11.696H22.3921V17.696H31.9921C32.3601 17.696 32.6561 17.8 32.8801 18.008C33.1041 18.216 33.2161 18.488 33.2161 18.824C33.2161 19.176 33.1041 19.464 32.8801 19.688C32.6561 19.896 32.3601 20 31.9921 20H21.1441Z" fill="white"/>
<path d="M1.45922 19.64L0.752112 20.3471H0.752112L1.45922 19.64ZM1.45922 1.616L2.14154 2.34705L2.15414 2.33529L2.16632 2.32311L1.45922 1.616ZM10.4352 1.952L10.0525 2.87586L10.0604 2.87913L10.0684 2.88227L10.4352 1.952ZM13.3872 3.896L12.6734 4.59637L12.6801 4.60311L13.3872 3.896ZM15.3072 6.848L16.2375 6.48113L15.3072 6.848ZM15.3072 14.408L16.2375 14.7749L16.2392 14.7704L15.3072 14.408ZM13.3872 17.384L14.0944 18.0911L14.101 18.0843L13.3872 17.384ZM10.4352 19.328L10.8066 20.2565L10.8133 20.2538L10.4352 19.328ZM3.59522 17.792H2.59522V18.792H3.59522V17.792ZM10.2432 16.88L10.7538 17.7399L10.7577 17.7375L10.2432 16.88ZM12.6912 14.336L13.5666 14.8194L13.5696 14.8139L12.6912 14.336ZM12.6912 6.896L11.8158 7.37942L12.6912 6.896ZM10.2432 4.376L9.73267 5.23587L9.73852 5.2393L10.2432 4.376ZM3.59522 3.464V2.464H2.59522V3.464H3.59522ZM2.34722 20V19C2.24945 19 2.21116 18.9777 2.16633 18.9329L1.45922 19.64L0.752112 20.3471C1.18727 20.7823 1.74099 21 2.34722 21V20ZM1.45922 19.64L2.16633 18.9329C2.12149 18.8881 2.09922 18.8498 2.09922 18.752H1.09922H0.0992188C0.0992188 19.3582 0.31695 19.9119 0.752112 20.3471L1.45922 19.64ZM1.09922 18.752H2.09922V2.504H1.09922H0.0992188V18.752H1.09922ZM1.09922 2.504H2.09922C2.09922 2.42939 2.11113 2.39361 2.11596 2.3817C2.11976 2.37233 2.12484 2.36264 2.14154 2.34705L1.45922 1.616L0.776901 0.884944C0.308687 1.32194 0.0992188 1.89586 0.0992188 2.504H1.09922ZM1.45922 1.616L2.16632 2.32311C2.21116 2.27827 2.24945 2.256 2.34722 2.256V1.256V0.256C1.74099 0.256 1.18727 0.47373 0.752112 0.908892L1.45922 1.616ZM2.34722 1.256V2.256H6.69122V1.256V0.256H2.34722V1.256ZM6.69122 1.256V2.256C7.95352 2.256 9.06912 2.46846 10.0525 2.87586L10.4352 1.952L10.818 1.02814C9.56132 0.507534 8.18092 0.256 6.69122 0.256V1.256ZM10.4352 1.952L10.0684 2.88227C11.0776 3.28028 11.9424 3.8513 12.6734 4.59634L13.3872 3.896L14.101 3.19566C13.168 2.2447 12.0648 1.51971 10.8021 1.02173L10.4352 1.952ZM13.3872 3.896L12.6801 4.60311C13.4115 5.33451 13.9773 6.20144 14.3769 7.21487L15.3072 6.848L16.2375 6.48113C15.7412 5.22256 15.0269 4.12149 14.0943 3.18889L13.3872 3.896ZM15.3072 6.848L14.3769 7.21487C14.7734 8.22016 14.9792 9.34974 14.9792 10.616H15.9792H16.9792C16.9792 9.13025 16.737 7.74784 16.2375 6.48113L15.3072 6.848ZM15.9792 10.616H14.9792C14.9792 11.882 14.7735 13.0215 14.3752 14.0456L15.3072 14.408L16.2392 14.7704C16.737 13.4905 16.9792 12.102 16.9792 10.616H15.9792ZM15.3072 14.408L14.3769 14.0411C13.9767 15.0562 13.409 15.9339 12.6734 16.6837L13.3872 17.384L14.101 18.0843C15.0294 17.1381 15.7418 16.0318 16.2375 14.7749L15.3072 14.408ZM13.3872 17.384L12.6801 16.6769C11.9462 17.4108 11.0754 17.9863 10.0571 18.4022L10.4352 19.328L10.8133 20.2538C12.0671 19.7417 13.1643 19.0212 14.0943 18.0911L13.3872 17.384ZM10.4352 19.328L10.0638 18.3995C9.07738 18.7941 7.95775 19 6.69122 19V20V21C8.17669 21 9.55306 20.7579 10.8066 20.2565L10.4352 19.328ZM6.69122 20V19H2.34722V20V21H6.69122V20ZM3.59522 17.792V18.792H6.69122V17.792V16.792H3.59522V17.792ZM6.69122 17.792V18.792C8.19129 18.792 9.55615 18.4509 10.7538 17.7399L10.2432 16.88L9.73268 16.0201C8.88229 16.5251 7.87915 16.792 6.69122 16.792V17.792ZM10.2432 16.88L10.7577 17.7375C11.9504 17.0219 12.8903 16.0442 13.5666 14.8194L12.6912 14.336L11.8158 13.8526C11.3082 14.7718 10.616 15.4901 9.72872 16.0225L10.2432 16.88ZM12.6912 14.336L13.5696 14.8139C14.2509 13.5619 14.5792 12.154 14.5792 10.616H13.5792H12.5792C12.5792 11.862 12.3156 12.9341 11.8128 13.8581L12.6912 14.336ZM13.5792 10.616H14.5792C14.5792 9.0645 14.2519 7.65348 13.5666 6.41258L12.6912 6.896L11.8158 7.37942C12.3146 8.28252 12.5792 9.3515 12.5792 10.616H13.5792ZM12.6912 6.896L13.5666 6.41258C12.889 5.18562 11.9461 4.21319 10.7479 3.5127L10.2432 4.376L9.73852 5.2393C10.6203 5.7548 11.3094 6.46238 11.8158 7.37942L12.6912 6.896ZM10.2432 4.376L10.7538 3.51614C9.55615 2.80506 8.19129 2.464 6.69122 2.464V3.464V4.464C7.87915 4.464 8.88229 4.73094 9.73268 5.23585L10.2432 4.376ZM6.69122 3.464V2.464H3.59522V3.464V4.464H6.69122V3.464ZM3.59522 3.464H2.59522V17.792H3.59522H4.59522V3.464H3.59522ZM20.2561 19.64L19.549 20.3471L20.2561 19.64ZM20.2561 1.616L20.9384 2.34705L20.951 2.33529L20.9632 2.32311L20.2561 1.616ZM32.8801 1.592L32.173 2.29911L32.1861 2.3122L32.1996 2.32479L32.8801 1.592ZM32.8801 3.248L33.5605 3.98079L33.5605 3.98079L32.8801 3.248ZM22.3921 3.56V2.56H21.3921V3.56H22.3921ZM22.3921 9.392H21.3921V10.392H22.3921V9.392ZM30.1681 9.728L29.461 10.4351L29.4741 10.4482L29.4876 10.4608L30.1681 9.728ZM30.1681 11.384L30.8485 12.1168L30.8621 12.1042L30.8752 12.0911L30.1681 11.384ZM22.3921 11.696V10.696H21.3921V11.696H22.3921ZM22.3921 17.696H21.3921V18.696H22.3921V17.696ZM32.8801 18.008L33.5605 17.2752L32.8801 18.008ZM32.8801 19.688L33.5605 20.4208L33.5741 20.4082L33.5872 20.3951L32.8801 19.688ZM21.1441 20V19C21.0463 19 21.008 18.9777 20.9632 18.9329L20.2561 19.64L19.549 20.3471C19.9841 20.7823 20.5379 21 21.1441 21V20ZM20.2561 19.64L20.9632 18.9329C20.9184 18.8881 20.8961 18.8498 20.8961 18.752H19.8961H18.8961C18.8961 19.3582 19.1138 19.9119 19.549 20.3471L20.2561 19.64ZM19.8961 18.752H20.8961V2.504H19.8961H18.8961V18.752H19.8961ZM19.8961 2.504H20.8961C20.8961 2.42939 20.908 2.39361 20.9128 2.3817C20.9166 2.37233 20.9217 2.36264 20.9384 2.34705L20.2561 1.616L19.5738 0.884944C19.1056 1.32194 18.8961 1.89586 18.8961 2.504H19.8961ZM20.2561 1.616L20.9632 2.32311C21.008 2.27827 21.0463 2.256 21.1441 2.256V1.256V0.256C20.5379 0.256 19.9841 0.47373 19.549 0.908892L20.2561 1.616ZM21.1441 1.256V2.256H31.9921V1.256V0.256H21.1441V1.256ZM31.9921 1.256V2.256C32.1412 2.256 32.1669 2.29306 32.173 2.29911L32.8801 1.592L33.5872 0.884892C33.1452 0.442939 32.579 0.256 31.9921 0.256V1.256ZM32.8801 1.592L32.1996 2.32479C32.2037 2.32856 32.2043 2.3298 32.2034 2.3286C32.2026 2.32736 32.2027 2.32707 32.2036 2.32939C32.2052 2.33326 32.2161 2.36227 32.2161 2.432H33.2161H34.2161C34.2161 1.84816 34.0199 1.28573 33.5605 0.859206L32.8801 1.592ZM33.2161 2.432H32.2161C32.2161 2.46044 32.2137 2.4795 32.2116 2.49084C32.2096 2.50191 32.2076 2.50673 32.2074 2.50725C32.2072 2.50766 32.2073 2.50758 32.2075 2.50719C32.2076 2.50702 32.2077 2.50686 32.2077 2.50672C32.2078 2.50658 32.2079 2.50651 32.2079 2.50654C32.2079 2.50654 32.2074 2.50719 32.2063 2.5085C32.2051 2.50981 32.203 2.51208 32.1996 2.51521L32.8801 3.248L33.5605 3.98079C34.0098 3.56367 34.2161 3.01539 34.2161 2.432H33.2161ZM32.8801 3.248L32.1996 2.51521C32.197 2.5177 32.1621 2.56 31.9921 2.56V3.56V4.56C32.5581 4.56 33.1152 4.3943 33.5605 3.98079L32.8801 3.248ZM31.9921 3.56V2.56H22.3921V3.56V4.56H31.9921V3.56ZM22.3921 3.56H21.3921V9.392H22.3921H23.3921V3.56H22.3921ZM22.3921 9.392V10.392H29.2801V9.392V8.392H22.3921V9.392ZM29.2801 9.392V10.392C29.4292 10.392 29.4549 10.4291 29.461 10.4351L30.1681 9.728L30.8752 9.02089C30.4332 8.57894 29.867 8.392 29.2801 8.392V9.392ZM30.1681 9.728L29.4876 10.4608C29.491 10.4639 29.4931 10.4662 29.4943 10.4675C29.4954 10.4688 29.4959 10.4695 29.4959 10.4695C29.4959 10.4695 29.4958 10.4694 29.4957 10.4693C29.4957 10.4691 29.4956 10.469 29.4955 10.4688C29.4953 10.4684 29.4952 10.4683 29.4954 10.4688C29.4956 10.4693 29.4976 10.4741 29.4996 10.4852C29.5017 10.4965 29.5041 10.5156 29.5041 10.544H30.5041H31.5041C31.5041 9.9606 31.2978 9.41232 30.8485 8.9952L30.1681 9.728ZM30.5041 10.544H29.5041C29.5041 10.6326 29.4852 10.6527 29.461 10.6769L30.1681 11.384L30.8752 12.0911C31.299 11.6673 31.5041 11.1274 31.5041 10.544H30.5041ZM30.1681 11.384L29.4876 10.6512C29.485 10.6537 29.4501 10.696 29.2801 10.696V11.696V12.696C29.8461 12.696 30.4032 12.5303 30.8485 12.1168L30.1681 11.384ZM29.2801 11.696V10.696H22.3921V11.696V12.696H29.2801V11.696ZM22.3921 11.696H21.3921V17.696H22.3921H23.3921V11.696H22.3921ZM22.3921 17.696V18.696H31.9921V17.696V16.696H22.3921V17.696ZM31.9921 17.696V18.696C32.1621 18.696 32.197 18.7383 32.1996 18.7408L32.8801 18.008L33.5605 17.2752C33.1152 16.8617 32.5581 16.696 31.9921 16.696V17.696ZM32.8801 18.008L32.1996 18.7408C32.203 18.7439 32.2051 18.7462 32.2063 18.7475C32.2074 18.7488 32.2079 18.7495 32.2079 18.7495C32.2079 18.7495 32.2078 18.7494 32.2077 18.7493C32.2077 18.7491 32.2076 18.749 32.2075 18.7488C32.2073 18.7484 32.2072 18.7483 32.2074 18.7487C32.2076 18.7493 32.2096 18.7541 32.2116 18.7652C32.2137 18.7765 32.2161 18.7956 32.2161 18.824H33.2161H34.2161C34.2161 18.2406 34.0098 17.6923 33.5605 17.2752L32.8801 18.008ZM33.2161 18.824H32.2161C32.2161 18.9431 32.1878 18.9661 32.173 18.9809L32.8801 19.688L33.5872 20.3951C34.0204 19.9619 34.2161 19.4089 34.2161 18.824H33.2161ZM32.8801 19.688L32.1996 18.9552C32.197 18.9577 32.1621 19 31.9921 19V20V21C32.5581 21 33.1152 20.8343 33.5605 20.4208L32.8801 19.688ZM31.9921 20V19H21.1441V20V21H31.9921V20Z" fill="white" mask="url(#path-1-outside-1_54_15)"/>
</svg>
