<svg width="35" height="21" viewBox="0 0 35 21" fill="none" xmlns="http://www.w3.org/2000/svg">
<mask id="path-1-outside-1_54_11" maskUnits="userSpaceOnUse" x="0" y="0" width="35" height="21" fill="black">
<rect fill="white" width="35" height="21"/>
<path d="M2.78472 20C2.43272 20 2.13672 19.88 1.89672 19.64C1.65672 19.4 1.53672 19.104 1.53672 18.752V2.504C1.53672 2.136 1.65672 1.84 1.89672 1.616C2.13672 1.376 2.43272 1.256 2.78472 1.256H13.6327C14.0007 1.256 14.2967 1.368 14.5207 1.592C14.7447 1.8 14.8567 2.08 14.8567 2.432C14.8567 2.768 14.7447 3.04 14.5207 3.248C14.2967 3.456 14.0007 3.56 13.6327 3.56H4.03272V9.392H10.9207C11.2887 9.392 11.5847 9.504 11.8087 9.728C12.0327 9.936 12.1447 10.208 12.1447 10.544C12.1447 10.88 12.0327 11.16 11.8087 11.384C11.5847 11.592 11.2887 11.696 10.9207 11.696H4.03272V17.696H13.6327C14.0007 17.696 14.2967 17.8 14.5207 18.008C14.7447 18.216 14.8567 18.488 14.8567 18.824C14.8567 19.176 14.7447 19.464 14.5207 19.688C14.2967 19.896 14.0007 20 13.6327 20H2.78472ZM19.5654 20C19.2134 20 18.9174 19.88 18.6774 19.64C18.4534 19.4 18.3414 19.104 18.3414 18.752V2.504C18.3414 2.136 18.4534 1.84 18.6774 1.616C18.9174 1.376 19.2134 1.256 19.5654 1.256C19.9494 1.256 20.2694 1.408 20.5254 1.712L30.9894 15.632V2.504C30.9894 2.136 31.1094 1.84 31.3494 1.616C31.5894 1.376 31.8854 1.256 32.2374 1.256C32.6054 1.256 32.9014 1.376 33.1254 1.616C33.3494 1.84 33.4614 2.136 33.4614 2.504V18.752C33.4614 19.104 33.3494 19.4 33.1254 19.64C32.9014 19.88 32.6054 20 32.2374 20C32.0774 20 31.9014 19.968 31.7094 19.904C31.5334 19.824 31.3894 19.712 31.2774 19.568L20.8134 5.648V18.752C20.8134 19.104 20.6934 19.4 20.4534 19.64C20.2294 19.88 19.9334 20 19.5654 20Z"/>
</mask>
<path d="M2.78472 20C2.43272 20 2.13672 19.88 1.89672 19.64C1.65672 19.4 1.53672 19.104 1.53672 18.752V2.504C1.53672 2.136 1.65672 1.84 1.89672 1.616C2.13672 1.376 2.43272 1.256 2.78472 1.256H13.6327C14.0007 1.256 14.2967 1.368 14.5207 1.592C14.7447 1.8 14.8567 2.08 14.8567 2.432C14.8567 2.768 14.7447 3.04 14.5207 3.248C14.2967 3.456 14.0007 3.56 13.6327 3.56H4.03272V9.392H10.9207C11.2887 9.392 11.5847 9.504 11.8087 9.728C12.0327 9.936 12.1447 10.208 12.1447 10.544C12.1447 10.88 12.0327 11.16 11.8087 11.384C11.5847 11.592 11.2887 11.696 10.9207 11.696H4.03272V17.696H13.6327C14.0007 17.696 14.2967 17.8 14.5207 18.008C14.7447 18.216 14.8567 18.488 14.8567 18.824C14.8567 19.176 14.7447 19.464 14.5207 19.688C14.2967 19.896 14.0007 20 13.6327 20H2.78472ZM19.5654 20C19.2134 20 18.9174 19.88 18.6774 19.64C18.4534 19.4 18.3414 19.104 18.3414 18.752V2.504C18.3414 2.136 18.4534 1.84 18.6774 1.616C18.9174 1.376 19.2134 1.256 19.5654 1.256C19.9494 1.256 20.2694 1.408 20.5254 1.712L30.9894 15.632V2.504C30.9894 2.136 31.1094 1.84 31.3494 1.616C31.5894 1.376 31.8854 1.256 32.2374 1.256C32.6054 1.256 32.9014 1.376 33.1254 1.616C33.3494 1.84 33.4614 2.136 33.4614 2.504V18.752C33.4614 19.104 33.3494 19.4 33.1254 19.64C32.9014 19.88 32.6054 20 32.2374 20C32.0774 20 31.9014 19.968 31.7094 19.904C31.5334 19.824 31.3894 19.712 31.2774 19.568L20.8134 5.648V18.752C20.8134 19.104 20.6934 19.4 20.4534 19.64C20.2294 19.88 19.9334 20 19.5654 20Z" fill="white"/>
<path d="M1.89672 19.64L1.18961 20.3471H1.18961L1.89672 19.64ZM1.89672 1.616L2.57904 2.34705L2.59164 2.33529L2.60383 2.32311L1.89672 1.616ZM14.5207 1.592L13.8136 2.29911L13.8267 2.3122L13.8403 2.32479L14.5207 1.592ZM14.5207 3.248L15.2012 3.98079L15.2012 3.98079L14.5207 3.248ZM4.03272 3.56V2.56H3.03272V3.56H4.03272ZM4.03272 9.392H3.03272V10.392H4.03272V9.392ZM11.8087 9.728L11.1016 10.4351L11.1147 10.4482L11.1283 10.4608L11.8087 9.728ZM11.8087 11.384L12.4892 12.1168L12.5027 12.1042L12.5158 12.0911L11.8087 11.384ZM4.03272 11.696V10.696H3.03272V11.696H4.03272ZM4.03272 17.696H3.03272V18.696H4.03272V17.696ZM14.5207 18.008L15.2012 17.2752L14.5207 18.008ZM14.5207 19.688L15.2012 20.4208L15.2147 20.4082L15.2278 20.3951L14.5207 19.688ZM2.78472 20V19C2.68695 19 2.64866 18.9777 2.60383 18.9329L1.89672 19.64L1.18961 20.3471C1.62477 20.7823 2.17849 21 2.78472 21V20ZM1.89672 19.64L2.60383 18.9329C2.55899 18.8881 2.53672 18.8498 2.53672 18.752H1.53672H0.536719C0.536719 19.3582 0.75445 19.9119 1.18961 20.3471L1.89672 19.64ZM1.53672 18.752H2.53672V2.504H1.53672H0.536719V18.752H1.53672ZM1.53672 2.504H2.53672C2.53672 2.42939 2.54863 2.39361 2.55346 2.3817C2.55726 2.37233 2.56234 2.36264 2.57904 2.34705L1.89672 1.616L1.2144 0.884944C0.746187 1.32194 0.536719 1.89586 0.536719 2.504H1.53672ZM1.89672 1.616L2.60383 2.32311C2.64866 2.27827 2.68695 2.256 2.78472 2.256V1.256V0.256C2.17849 0.256 1.62477 0.47373 1.18961 0.908892L1.89672 1.616ZM2.78472 1.256V2.256H13.6327V1.256V0.256H2.78472V1.256ZM13.6327 1.256V2.256C13.7819 2.256 13.8076 2.29306 13.8136 2.29911L14.5207 1.592L15.2278 0.884892C14.7859 0.442939 14.2196 0.256 13.6327 0.256V1.256ZM14.5207 1.592L13.8403 2.32479C13.8443 2.32856 13.8449 2.3298 13.8441 2.3286C13.8432 2.32736 13.8433 2.32707 13.8442 2.32939C13.8458 2.33326 13.8567 2.36227 13.8567 2.432H14.8567H15.8567C15.8567 1.84816 15.6605 1.28573 15.2012 0.859206L14.5207 1.592ZM14.8567 2.432H13.8567C13.8567 2.46044 13.8544 2.4795 13.8523 2.49084C13.8502 2.50191 13.8483 2.50673 13.848 2.50725C13.8479 2.50766 13.8479 2.50758 13.8481 2.50719C13.8482 2.50702 13.8483 2.50686 13.8484 2.50672C13.8485 2.50658 13.8485 2.50651 13.8485 2.50654C13.8485 2.50654 13.848 2.50719 13.8469 2.5085C13.8457 2.50981 13.8436 2.51208 13.8403 2.51521L14.5207 3.248L15.2012 3.98079C15.6504 3.56367 15.8567 3.01539 15.8567 2.432H14.8567ZM14.5207 3.248L13.8403 2.51521C13.8376 2.5177 13.8027 2.56 13.6327 2.56V3.56V4.56C14.1987 4.56 14.7559 4.3943 15.2012 3.98079L14.5207 3.248ZM13.6327 3.56V2.56H4.03272V3.56V4.56H13.6327V3.56ZM4.03272 3.56H3.03272V9.392H4.03272H5.03272V3.56H4.03272ZM4.03272 9.392V10.392H10.9207V9.392V8.392H4.03272V9.392ZM10.9207 9.392V10.392C11.0699 10.392 11.0956 10.4291 11.1016 10.4351L11.8087 9.728L12.5158 9.02089C12.0739 8.57894 11.5076 8.392 10.9207 8.392V9.392ZM11.8087 9.728L11.1283 10.4608C11.1316 10.4639 11.1337 10.4662 11.1349 10.4675C11.136 10.4688 11.1365 10.4695 11.1365 10.4695C11.1365 10.4695 11.1365 10.4694 11.1364 10.4693C11.1363 10.4691 11.1362 10.469 11.1361 10.4688C11.1359 10.4684 11.1359 10.4683 11.136 10.4688C11.1363 10.4693 11.1382 10.4741 11.1403 10.4852C11.1424 10.4965 11.1447 10.5156 11.1447 10.544H12.1447H13.1447C13.1447 9.9606 12.9384 9.41232 12.4892 8.9952L11.8087 9.728ZM12.1447 10.544H11.1447C11.1447 10.6326 11.1258 10.6527 11.1016 10.6769L11.8087 11.384L12.5158 12.0911C12.9396 11.6673 13.1447 11.1274 13.1447 10.544H12.1447ZM11.8087 11.384L11.1283 10.6512C11.1256 10.6537 11.0907 10.696 10.9207 10.696V11.696V12.696C11.4867 12.696 12.0439 12.5303 12.4892 12.1168L11.8087 11.384ZM10.9207 11.696V10.696H4.03272V11.696V12.696H10.9207V11.696ZM4.03272 11.696H3.03272V17.696H4.03272H5.03272V11.696H4.03272ZM4.03272 17.696V18.696H13.6327V17.696V16.696H4.03272V17.696ZM13.6327 17.696V18.696C13.8027 18.696 13.8376 18.7383 13.8403 18.7408L14.5207 18.008L15.2012 17.2752C14.7559 16.8617 14.1987 16.696 13.6327 16.696V17.696ZM14.5207 18.008L13.8403 18.7408C13.8436 18.7439 13.8457 18.7462 13.8469 18.7475C13.848 18.7488 13.8485 18.7495 13.8485 18.7495C13.8485 18.7495 13.8485 18.7494 13.8484 18.7493C13.8483 18.7491 13.8482 18.749 13.8481 18.7488C13.8479 18.7484 13.8479 18.7483 13.848 18.7487C13.8483 18.7493 13.8502 18.7541 13.8523 18.7652C13.8544 18.7765 13.8567 18.7956 13.8567 18.824H14.8567H15.8567C15.8567 18.2406 15.6504 17.6923 15.2012 17.2752L14.5207 18.008ZM14.8567 18.824H13.8567C13.8567 18.9431 13.8284 18.9661 13.8136 18.9809L14.5207 19.688L15.2278 20.3951C15.661 19.9619 15.8567 19.4089 15.8567 18.824H14.8567ZM14.5207 19.688L13.8403 18.9552C13.8376 18.9577 13.8027 19 13.6327 19V20V21C14.1987 21 14.7559 20.8343 15.2012 20.4208L14.5207 19.688ZM13.6327 20V19H2.78472V20V21H13.6327V20ZM18.6774 19.64L17.9464 20.3223L17.9581 20.3349L17.9703 20.3471L18.6774 19.64ZM18.6774 1.616L17.9703 0.908892V0.908893L18.6774 1.616ZM20.5254 1.712L21.3247 1.11112L21.3081 1.08902L21.2903 1.06786L20.5254 1.712ZM30.9894 15.632L30.1901 16.2329L31.9894 18.6265V15.632H30.9894ZM31.3494 1.616L32.0317 2.34705L32.0443 2.33529L32.0565 2.32311L31.3494 1.616ZM33.1254 1.616L32.3944 2.29832L32.4061 2.31092L32.4183 2.32311L33.1254 1.616ZM31.7094 19.904L31.2956 20.8144L31.3434 20.8361L31.3932 20.8527L31.7094 19.904ZM31.2774 19.568L30.4781 20.1689L30.483 20.1755L30.4881 20.1819L31.2774 19.568ZM20.8134 5.648L21.6127 5.04712L19.8134 2.6535V5.648H20.8134ZM20.4534 19.64L19.7463 18.9329L19.7341 18.9451L19.7224 18.9577L20.4534 19.64ZM19.5654 20V19C19.4676 19 19.4294 18.9777 19.3845 18.9329L18.6774 19.64L17.9703 20.3471C18.4055 20.7823 18.9592 21 19.5654 21V20ZM18.6774 19.64L19.4085 18.9577C19.3705 18.917 19.3414 18.8707 19.3414 18.752H18.3414H17.3414C17.3414 19.3373 17.5363 19.883 17.9464 20.3223L18.6774 19.64ZM18.3414 18.752H19.3414V2.504H18.3414H17.3414V18.752H18.3414ZM18.3414 2.504H19.3414C19.3414 2.35486 19.3785 2.32915 19.3845 2.32311L18.6774 1.616L17.9703 0.908893C17.5283 1.35085 17.3414 1.91714 17.3414 2.504H18.3414ZM18.6774 1.616L19.3845 2.32311C19.4293 2.27827 19.4676 2.256 19.5654 2.256V1.256V0.256C18.9592 0.256 18.4055 0.47373 17.9703 0.908892L18.6774 1.616ZM19.5654 1.256V2.256C19.6428 2.256 19.6869 2.26869 19.7605 2.35614L20.5254 1.712L21.2903 1.06786C20.852 0.547304 20.256 0.256 19.5654 0.256V1.256ZM20.5254 1.712L19.7261 2.31288L30.1901 16.2329L30.9894 15.632L31.7887 15.0311L21.3247 1.11112L20.5254 1.712ZM30.9894 15.632H31.9894V2.504H30.9894H29.9894V15.632H30.9894ZM30.9894 2.504H31.9894C31.9894 2.42939 32.0013 2.39361 32.0061 2.3817C32.0099 2.37233 32.015 2.36264 32.0317 2.34705L31.3494 1.616L30.6671 0.884944C30.1989 1.32194 29.9894 1.89586 29.9894 2.504H30.9894ZM31.3494 1.616L32.0565 2.32311C32.1013 2.27827 32.1396 2.256 32.2374 2.256V1.256V0.256C31.6312 0.256 31.0775 0.47373 30.6423 0.908893L31.3494 1.616ZM32.2374 1.256V2.256C32.312 2.256 32.3478 2.26791 32.3597 2.27274C32.3691 2.27654 32.3788 2.28162 32.3944 2.29832L33.1254 1.616L33.8565 0.933681C33.4195 0.465467 32.8455 0.256 32.2374 0.256V1.256ZM33.1254 1.616L32.4183 2.32311C32.4243 2.32915 32.4614 2.35486 32.4614 2.504H33.4614H34.4614C34.4614 1.91714 34.2745 1.35085 33.8325 0.908893L33.1254 1.616ZM33.4614 2.504H32.4614V18.752H33.4614H34.4614V2.504H33.4614ZM33.4614 18.752H32.4614C32.4614 18.8707 32.4323 18.917 32.3944 18.9577L33.1254 19.64L33.8565 20.3223C34.2665 19.883 34.4614 19.3373 34.4614 18.752H33.4614ZM33.1254 19.64L32.3944 18.9577C32.3788 18.9744 32.3691 18.9795 32.3597 18.9833C32.3478 18.9881 32.312 19 32.2374 19V20V21C32.8455 21 33.4195 20.7905 33.8565 20.3223L33.1254 19.64ZM32.2374 20V19C32.209 19 32.1414 18.9939 32.0256 18.9553L31.7094 19.904L31.3932 20.8527C31.6614 20.9421 31.9458 21 32.2374 21V20ZM31.7094 19.904L32.1232 18.9936C32.0855 18.9765 32.0735 18.9627 32.0668 18.9541L31.2774 19.568L30.4881 20.1819C30.7053 20.4613 30.9813 20.6715 31.2956 20.8144L31.7094 19.904ZM31.2774 19.568L32.0767 18.9671L21.6127 5.04712L20.8134 5.648L20.0141 6.24888L30.4781 20.1689L31.2774 19.568ZM20.8134 5.648H19.8134V18.752H20.8134H21.8134V5.648H20.8134ZM20.8134 18.752H19.8134C19.8134 18.8498 19.7911 18.8881 19.7463 18.9329L20.4534 19.64L21.1605 20.3471C21.5957 19.9119 21.8134 19.3582 21.8134 18.752H20.8134ZM20.4534 19.64L19.7224 18.9577C19.7068 18.9744 19.6971 18.9795 19.6877 18.9833C19.6758 18.9881 19.64 19 19.5654 19V20V21C20.1735 21 20.7475 20.7905 21.1845 20.3223L20.4534 19.64Z" fill="white" mask="url(#path-1-outside-1_54_11)"/>
</svg>
