<svg width="32" height="21" viewBox="0 0 32 21" fill="none" xmlns="http://www.w3.org/2000/svg">
<mask id="path-1-outside-1_54_19" maskUnits="userSpaceOnUse" x="0" y="0" width="32" height="21" fill="black">
<rect fill="white" width="32" height="21"/>
<path d="M2.55397 20C2.20197 20 1.90597 19.88 1.66597 19.64C1.42597 19.4 1.30597 19.104 1.30597 18.752V2.504C1.30597 2.136 1.42597 1.84 1.66597 1.616C1.90597 1.376 2.20197 1.256 2.55397 1.256H13.402C13.77 1.256 14.066 1.368 14.29 1.592C14.514 1.8 14.626 2.08 14.626 2.432C14.626 2.768 14.514 3.04 14.29 3.248C14.066 3.456 13.77 3.56 13.402 3.56H3.80197V9.392H10.69C11.058 9.392 11.354 9.504 11.578 9.728C11.802 9.936 11.914 10.208 11.914 10.544C11.914 10.88 11.802 11.16 11.578 11.384C11.354 11.592 11.058 11.696 10.69 11.696H3.80197V18.752C3.80197 19.104 3.68197 19.4 3.44197 19.64C3.20197 19.88 2.90597 20 2.55397 20ZM19.066 20C18.714 20 18.418 19.88 18.178 19.64C17.938 19.4 17.818 19.104 17.818 18.752V2.504C17.818 2.136 17.938 1.84 18.178 1.616C18.418 1.376 18.714 1.256 19.066 1.256H23.386C24.586 1.256 25.65 1.512 26.578 2.024C27.506 2.52 28.226 3.208 28.738 4.088C29.266 4.968 29.53 5.992 29.53 7.16C29.53 8.248 29.266 9.216 28.738 10.064C28.226 10.912 27.506 11.576 26.578 12.056C25.65 12.536 24.586 12.776 23.386 12.776H20.314V18.752C20.314 19.104 20.194 19.4 19.954 19.64C19.73 19.88 19.434 20 19.066 20ZM29.026 20C28.802 20 28.594 19.952 28.402 19.856C28.226 19.76 28.074 19.608 27.946 19.4L23.626 12.44L26.05 11.744L29.986 18.08C30.274 18.544 30.314 18.984 30.106 19.4C29.898 19.8 29.538 20 29.026 20ZM20.314 10.472H23.386C24.122 10.472 24.77 10.336 25.33 10.064C25.89 9.776 26.33 9.384 26.65 8.888C26.97 8.376 27.13 7.8 27.13 7.16C27.13 6.456 26.97 5.832 26.65 5.288C26.33 4.744 25.89 4.32 25.33 4.016C24.77 3.712 24.122 3.56 23.386 3.56H20.314V10.472Z"/>
</mask>
<path d="M2.55397 20C2.20197 20 1.90597 19.88 1.66597 19.64C1.42597 19.4 1.30597 19.104 1.30597 18.752V2.504C1.30597 2.136 1.42597 1.84 1.66597 1.616C1.90597 1.376 2.20197 1.256 2.55397 1.256H13.402C13.77 1.256 14.066 1.368 14.29 1.592C14.514 1.8 14.626 2.08 14.626 2.432C14.626 2.768 14.514 3.04 14.29 3.248C14.066 3.456 13.77 3.56 13.402 3.56H3.80197V9.392H10.69C11.058 9.392 11.354 9.504 11.578 9.728C11.802 9.936 11.914 10.208 11.914 10.544C11.914 10.88 11.802 11.16 11.578 11.384C11.354 11.592 11.058 11.696 10.69 11.696H3.80197V18.752C3.80197 19.104 3.68197 19.4 3.44197 19.64C3.20197 19.88 2.90597 20 2.55397 20ZM19.066 20C18.714 20 18.418 19.88 18.178 19.64C17.938 19.4 17.818 19.104 17.818 18.752V2.504C17.818 2.136 17.938 1.84 18.178 1.616C18.418 1.376 18.714 1.256 19.066 1.256H23.386C24.586 1.256 25.65 1.512 26.578 2.024C27.506 2.52 28.226 3.208 28.738 4.088C29.266 4.968 29.53 5.992 29.53 7.16C29.53 8.248 29.266 9.216 28.738 10.064C28.226 10.912 27.506 11.576 26.578 12.056C25.65 12.536 24.586 12.776 23.386 12.776H20.314V18.752C20.314 19.104 20.194 19.4 19.954 19.64C19.73 19.88 19.434 20 19.066 20ZM29.026 20C28.802 20 28.594 19.952 28.402 19.856C28.226 19.76 28.074 19.608 27.946 19.4L23.626 12.44L26.05 11.744L29.986 18.08C30.274 18.544 30.314 18.984 30.106 19.4C29.898 19.8 29.538 20 29.026 20ZM20.314 10.472H23.386C24.122 10.472 24.77 10.336 25.33 10.064C25.89 9.776 26.33 9.384 26.65 8.888C26.97 8.376 27.13 7.8 27.13 7.16C27.13 6.456 26.97 5.832 26.65 5.288C26.33 4.744 25.89 4.32 25.33 4.016C24.77 3.712 24.122 3.56 23.386 3.56H20.314V10.472Z" fill="white"/>
<path d="M1.66597 1.616L2.34829 2.34705L2.36089 2.33529L2.37308 2.32311L1.66597 1.616ZM14.29 1.592L13.5829 2.29911L13.596 2.3122L13.6095 2.32479L14.29 1.592ZM14.29 3.248L14.9704 3.98079L14.9704 3.98079L14.29 3.248ZM3.80197 3.56V2.56H2.80197V3.56H3.80197ZM3.80197 9.392H2.80197V10.392H3.80197V9.392ZM11.578 9.728L10.8709 10.4351L10.884 10.4482L10.8975 10.4608L11.578 9.728ZM11.578 11.384L12.2584 12.1168L12.272 12.1042L12.2851 12.0911L11.578 11.384ZM3.80197 11.696V10.696H2.80197V11.696H3.80197ZM3.44197 19.64L2.73486 18.9329H2.73486L3.44197 19.64ZM2.55397 20V19C2.4562 19 2.41791 18.9777 2.37308 18.9329L1.66597 19.64L0.958862 20.3471C1.39402 20.7823 1.94773 21 2.55397 21V20ZM1.66597 19.64L2.37308 18.9329C2.32824 18.8881 2.30597 18.8498 2.30597 18.752H1.30597H0.305969C0.305969 19.3582 0.5237 19.9119 0.958862 20.3471L1.66597 19.64ZM1.30597 18.752H2.30597V2.504H1.30597H0.305969V18.752H1.30597ZM1.30597 2.504H2.30597C2.30597 2.42939 2.31788 2.39361 2.32271 2.3817C2.32651 2.37233 2.33159 2.36264 2.34829 2.34705L1.66597 1.616L0.983651 0.884944C0.515437 1.32194 0.305969 1.89586 0.305969 2.504H1.30597ZM1.66597 1.616L2.37308 2.32311C2.41791 2.27827 2.4562 2.256 2.55397 2.256V1.256V0.256C1.94774 0.256 1.39402 0.47373 0.958862 0.908892L1.66597 1.616ZM2.55397 1.256V2.256H13.402V1.256V0.256H2.55397V1.256ZM13.402 1.256V2.256C13.5511 2.256 13.5768 2.29306 13.5829 2.29911L14.29 1.592L14.9971 0.884892C14.5551 0.442939 13.9888 0.256 13.402 0.256V1.256ZM14.29 1.592L13.6095 2.32479C13.6136 2.32856 13.6141 2.3298 13.6133 2.3286C13.6125 2.32736 13.6126 2.32707 13.6135 2.32939C13.615 2.33326 13.626 2.36227 13.626 2.432H14.626H15.626C15.626 1.84816 15.4298 1.28573 14.9704 0.859206L14.29 1.592ZM14.626 2.432H13.626C13.626 2.46044 13.6236 2.4795 13.6215 2.49084C13.6195 2.50191 13.6175 2.50673 13.6173 2.50725C13.6171 2.50766 13.6171 2.50758 13.6173 2.50719C13.6174 2.50702 13.6175 2.50686 13.6176 2.50672C13.6177 2.50658 13.6178 2.50651 13.6177 2.50654C13.6177 2.50654 13.6173 2.50719 13.6161 2.5085C13.615 2.50981 13.6129 2.51208 13.6095 2.51521L14.29 3.248L14.9704 3.98079C15.4196 3.56367 15.626 3.01539 15.626 2.432H14.626ZM14.29 3.248L13.6095 2.51521C13.6068 2.5177 13.572 2.56 13.402 2.56V3.56V4.56C13.968 4.56 14.5251 4.3943 14.9704 3.98079L14.29 3.248ZM13.402 3.56V2.56H3.80197V3.56V4.56H13.402V3.56ZM3.80197 3.56H2.80197V9.392H3.80197H4.80197V3.56H3.80197ZM3.80197 9.392V10.392H10.69V9.392V8.392H3.80197V9.392ZM10.69 9.392V10.392C10.8391 10.392 10.8648 10.4291 10.8709 10.4351L11.578 9.728L12.2851 9.02089C11.8431 8.57894 11.2768 8.392 10.69 8.392V9.392ZM11.578 9.728L10.8975 10.4608C10.9009 10.4639 10.903 10.4662 10.9041 10.4675C10.9053 10.4688 10.9057 10.4695 10.9057 10.4695C10.9058 10.4695 10.9057 10.4694 10.9056 10.4693C10.9055 10.4691 10.9054 10.469 10.9053 10.4688C10.9051 10.4684 10.9051 10.4683 10.9053 10.4688C10.9055 10.4693 10.9075 10.4741 10.9095 10.4852C10.9116 10.4965 10.914 10.5156 10.914 10.544H11.914H12.914C12.914 9.9606 12.7076 9.41233 12.2584 8.99521L11.578 9.728ZM11.914 10.544H10.914C10.914 10.6326 10.8951 10.6527 10.8709 10.6769L11.578 11.384L12.2851 12.0911C12.7089 11.6673 12.914 11.1274 12.914 10.544H11.914ZM11.578 11.384L10.8975 10.6512C10.8948 10.6537 10.86 10.696 10.69 10.696V11.696V12.696C11.256 12.696 11.8131 12.5303 12.2584 12.1168L11.578 11.384ZM10.69 11.696V10.696H3.80197V11.696V12.696H10.69V11.696ZM3.80197 11.696H2.80197V18.752H3.80197H4.80197V11.696H3.80197ZM3.80197 18.752H2.80197C2.80197 18.8498 2.7797 18.8881 2.73486 18.9329L3.44197 19.64L4.14908 20.3471C4.58424 19.9119 4.80197 19.3582 4.80197 18.752H3.80197ZM3.44197 19.64L2.73486 18.9329C2.69002 18.9777 2.65174 19 2.55397 19V20V21C3.1602 21 3.71391 20.7823 4.14908 20.3471L3.44197 19.64ZM18.178 19.64L17.4709 20.3471L18.178 19.64ZM18.178 1.616L18.8603 2.34705L18.8729 2.33529L18.8851 2.32311L18.178 1.616ZM26.578 2.024L26.0948 2.89966L26.1066 2.90593L26.578 2.024ZM28.738 4.088L27.8735 4.59094L27.8805 4.60249L28.738 4.088ZM28.738 10.064L27.889 9.53539L27.8819 9.54713L28.738 10.064ZM26.578 12.056L27.0374 12.9442L26.578 12.056ZM20.314 12.776V11.776H19.314V12.776H20.314ZM19.954 19.64L19.2469 18.9329L19.2347 18.9451L19.2229 18.9577L19.954 19.64ZM28.402 19.856L27.9231 20.7339L27.9388 20.7424L27.9548 20.7504L28.402 19.856ZM27.946 19.4L28.7976 18.8759L28.7956 18.8726L27.946 19.4ZM23.626 12.44L23.35 11.4788L22.0789 11.8438L22.7763 12.9674L23.626 12.44ZM26.05 11.744L26.8994 11.2163L26.5005 10.5742L25.774 10.7828L26.05 11.744ZM29.986 18.08L30.8356 17.5526L30.8354 17.5523L29.986 18.08ZM30.106 19.4L30.9932 19.8614L30.9968 19.8543L31.0004 19.8472L30.106 19.4ZM20.314 10.472H19.314V11.472H20.314V10.472ZM25.33 10.064L25.7669 10.9635L25.7772 10.9585L25.7873 10.9533L25.33 10.064ZM26.65 8.888L27.4903 9.43013L27.4942 9.42409L27.498 9.418L26.65 8.888ZM25.33 4.016L24.8529 4.89485V4.89485L25.33 4.016ZM20.314 3.56V2.56H19.314V3.56H20.314ZM19.066 20V19C18.9682 19 18.9299 18.9777 18.8851 18.9329L18.178 19.64L17.4709 20.3471C17.906 20.7823 18.4597 21 19.066 21V20ZM18.178 19.64L18.8851 18.9329C18.8402 18.8881 18.818 18.8498 18.818 18.752H17.818H16.818C16.818 19.3582 17.0357 19.9119 17.4709 20.3471L18.178 19.64ZM17.818 18.752H18.818V2.504H17.818H16.818V18.752H17.818ZM17.818 2.504H18.818C18.818 2.42939 18.8299 2.39361 18.8347 2.3817C18.8385 2.37233 18.8436 2.36264 18.8603 2.34705L18.178 1.616L17.4957 0.884944C17.0274 1.32194 16.818 1.89586 16.818 2.504H17.818ZM18.178 1.616L18.8851 2.32311C18.9299 2.27827 18.9682 2.256 19.066 2.256V1.256V0.256C18.4597 0.256 17.906 0.47373 17.4709 0.908892L18.178 1.616ZM19.066 1.256V2.256H23.386V1.256V0.256H19.066V1.256ZM23.386 1.256V2.256C24.4397 2.256 25.3335 2.47949 26.0949 2.89958L26.578 2.024L27.061 1.14842C25.9665 0.544514 24.7323 0.256 23.386 0.256V1.256ZM26.578 2.024L26.1066 2.90593C26.8767 3.31756 27.4581 3.8768 27.8736 4.59089L28.738 4.088L29.6023 3.5851C28.9938 2.5392 28.1352 1.72243 27.0493 1.14207L26.578 2.024ZM28.738 4.088L27.8805 4.60249C28.3029 5.30654 28.53 6.14769 28.53 7.16H29.53H30.53C30.53 5.83631 30.229 4.62946 29.5955 3.5735L28.738 4.088ZM29.53 7.16H28.53C28.53 8.07843 28.3096 8.86011 27.8891 9.53544L28.738 10.064L29.5869 10.5926C30.2224 9.57189 30.53 8.41756 30.53 7.16H29.53ZM28.738 10.064L27.8819 9.54713C27.4706 10.2283 26.892 10.7677 26.1185 11.1678L26.578 12.056L27.0374 12.9442C28.12 12.3843 28.9813 11.5957 29.594 10.5809L28.738 10.064ZM26.578 12.056L26.1185 11.1678C25.3523 11.5641 24.45 11.776 23.386 11.776V12.776V13.776C24.722 13.776 25.9476 13.5079 27.0374 12.9442L26.578 12.056ZM23.386 12.776V11.776H20.314V12.776V13.776H23.386V12.776ZM20.314 12.776H19.314V18.752H20.314H21.314V12.776H20.314ZM20.314 18.752H19.314C19.314 18.8498 19.2917 18.8881 19.2469 18.9329L19.954 19.64L20.6611 20.3471C21.0962 19.9119 21.314 19.3582 21.314 18.752H20.314ZM19.954 19.64L19.2229 18.9577C19.2073 18.9744 19.1976 18.9795 19.1883 18.9833C19.1764 18.9881 19.1406 19 19.066 19V20V21C19.6741 21 20.248 20.7905 20.685 20.3223L19.954 19.64ZM29.026 20V19C28.9503 19 28.8962 18.9851 28.8492 18.9616L28.402 19.856L27.9548 20.7504C28.2917 20.9189 28.6537 21 29.026 21V20ZM28.402 19.856L28.8808 18.9781C28.8879 18.982 28.8541 18.9677 28.7976 18.8759L27.946 19.4L27.0943 19.9241C27.2938 20.2483 27.564 20.538 27.9231 20.7339L28.402 19.856ZM27.946 19.4L28.7956 18.8726L24.4756 11.9126L23.626 12.44L22.7763 12.9674L27.0963 19.9274L27.946 19.4ZM23.626 12.44L23.9019 13.4012L26.3259 12.7052L26.05 11.744L25.774 10.7828L23.35 11.4788L23.626 12.44ZM26.05 11.744L25.2005 12.2717L29.1365 18.6077L29.986 18.08L30.8354 17.5523L26.8994 11.2163L26.05 11.744ZM29.986 18.08L29.1363 18.6074C29.2787 18.8367 29.2349 18.906 29.2115 18.9528L30.106 19.4L31.0004 19.8472C31.393 19.062 31.2693 18.2513 30.8356 17.5526L29.986 18.08ZM30.106 19.4L29.2188 18.9386C29.2058 18.9636 29.1968 18.9734 29.1953 18.975C29.1942 18.9761 29.1948 18.9756 29.1943 18.9758C29.1933 18.9764 29.1831 18.982 29.1579 18.9878C29.1319 18.9938 29.0893 19 29.026 19V20V21C29.4111 21 29.8051 20.9245 30.1656 20.7242C30.5332 20.5199 30.8076 20.2182 30.9932 19.8614L30.106 19.4ZM20.314 10.472V11.472H23.386V10.472V9.472H20.314V10.472ZM23.386 10.472V11.472C24.246 11.472 25.0481 11.3126 25.7669 10.9635L25.33 10.064L24.8931 9.16449C24.4919 9.35936 23.998 9.472 23.386 9.472V10.472ZM25.33 10.064L25.7873 10.9533C26.4924 10.5907 27.0689 10.0833 27.4903 9.43013L26.65 8.888L25.8097 8.34587C25.5911 8.68472 25.2875 8.96132 24.8726 9.17471L25.33 10.064ZM26.65 8.888L27.498 9.418C27.9234 8.73738 28.13 7.97566 28.13 7.16H27.13H26.13C26.13 7.62433 26.0166 8.01461 25.802 8.358L26.65 8.888ZM27.13 7.16H28.13C28.13 6.2988 27.9324 5.49587 27.5119 4.78098L26.65 5.288L25.788 5.79502C26.0075 6.16813 26.13 6.6132 26.13 7.16H27.13ZM26.65 5.288L27.5119 4.78098C27.0989 4.0788 26.5251 3.52695 25.8071 3.13715L25.33 4.016L24.8529 4.89485C25.2548 5.11305 25.5611 5.4092 25.788 5.79502L26.65 5.288ZM25.33 4.016L25.8071 3.13715C25.0793 2.74208 24.2626 2.56 23.386 2.56V3.56V4.56C23.9814 4.56 24.4606 4.68191 24.8529 4.89485L25.33 4.016ZM23.386 3.56V2.56H20.314V3.56V4.56H23.386V3.56ZM20.314 3.56H19.314V10.472H20.314H21.314V3.56H20.314Z" fill="white" mask="url(#path-1-outside-1_54_19)"/>
</svg>
