<svg width="51" height="51" viewBox="0 0 51 51" fill="none" xmlns="http://www.w3.org/2000/svg">
<g clip-path="url(#clip0_30_9)">
<path d="M23.209 0.0995598C18.2883 0.577686 13.7461 2.39058 9.76171 5.45855C7.81932 6.95269 5.29921 9.76167 3.84491 12.0527C3.21737 13.0388 1.99218 15.549 1.55389 16.7443C1.06581 18.0791 0.537878 20.131 0.278894 21.7148C-0.029895 23.6572 -0.029895 27.3427 0.278894 29.2851C0.727136 32.0343 1.43436 34.2457 2.63964 36.706C3.95448 39.3855 5.31913 41.288 7.51053 43.4894C9.7119 45.6808 11.6144 47.0455 14.2939 48.3603C16.7543 49.5656 18.9656 50.2728 21.7148 50.721C23.6572 51.0298 27.3428 51.0298 29.2851 50.721C32.0344 50.2728 34.2457 49.5656 36.706 48.3603C39.3855 47.0455 41.2881 45.6808 43.4894 43.4894C45.6808 41.288 47.0455 39.3855 48.3603 36.706C49.2369 34.923 49.6752 33.7576 50.1533 31.9646C50.7808 29.574 50.9303 28.2691 50.9303 25.5C50.9303 22.7308 50.7808 21.4259 50.1533 19.0353C49.6752 17.2423 49.2369 16.0769 48.3603 14.2939C47.0455 11.6144 45.6808 9.71186 43.4894 7.5105C41.2881 5.31909 39.3855 3.95444 36.706 2.6396C34.2556 1.43433 31.9846 0.71714 29.3349 0.298779C27.8707 0.0696793 24.6035 -0.0398903 23.209 0.0995598ZM28.6277 2.44038C33.7377 3.15757 38.3098 5.42866 41.9355 9.0644C45.641 12.7599 47.9121 17.4017 48.6193 22.7109C48.7787 23.9261 48.7787 27.0738 48.6193 28.289C47.9121 33.5982 45.641 38.24 41.9355 41.9355C38.24 45.641 33.5982 47.9121 28.289 48.6193C27.0738 48.7787 23.9262 48.7787 22.7109 48.6193C17.4017 47.9121 12.7599 45.641 9.06444 41.9355C5.35897 38.24 3.08788 33.5982 2.38065 28.289C2.22128 27.0738 2.22128 23.9261 2.38065 22.7109C3.08788 17.4017 5.35897 12.7599 9.06444 9.0644C13.1185 5.0103 18.0492 2.76909 24.1055 2.25113C24.9123 2.1814 27.5918 2.29097 28.6277 2.44038Z" fill="black"/>
<path d="M22.96 6.83317C18.6867 7.4109 14.5629 9.55251 11.6941 12.7002C10.8973 13.5668 10.5686 14.0548 10.5586 14.3736C10.5586 14.7521 10.8873 15.2601 11.2359 15.4095C11.8436 15.6586 12.0826 15.5291 13.3875 14.1744C14.8418 12.6703 16.2662 11.5746 17.8201 10.7777C22.7408 8.23766 28.2592 8.23766 33.1799 10.7777C34.7338 11.5746 36.1582 12.6703 37.6125 14.1744C38.3098 14.8916 38.9373 15.4593 39.0768 15.4892C39.9434 15.7084 40.7004 14.7322 40.292 13.9353C39.8537 13.0687 37.8615 11.1562 36.208 10.0107C32.4328 7.38102 27.542 6.20563 22.96 6.83317Z" fill="black"/>
<path d="M9.70195 19.9916C9.58242 20.0116 9.36328 20.1709 9.20391 20.3303L8.91504 20.6291V25.5V30.3809L9.21387 30.6698C9.68203 31.128 10.2896 31.128 10.7479 30.6698L11.0566 30.361V28.4784V26.5958H11.7838C12.8197 26.5958 13.2381 26.287 13.2381 25.5C13.2381 24.7131 12.8197 24.4043 11.7838 24.4043H11.0566V23.3086V22.2129L12.7301 22.203C13.7461 22.203 14.523 22.1532 14.7322 22.0834C15.7682 21.7149 15.7184 20.3204 14.6525 20.0215C14.3139 19.9319 10.1502 19.902 9.70195 19.9916Z" fill="black"/>
<path d="M18.5672 19.9817C18.4477 20.0115 18.2285 20.1709 18.0691 20.3303L17.7803 20.6291V25.5V30.3809L18.0791 30.6697C18.5473 31.128 19.1549 31.128 19.6131 30.6697C19.9219 30.3709 19.9219 30.361 19.9219 29.2553V28.1496L21.3463 29.5541C22.3424 30.5303 22.8504 30.9686 23.0596 31.0084C23.4979 31.0881 24.0158 30.8092 24.235 30.361C24.5238 29.7633 24.3744 29.5043 22.8703 28.0002C22.1332 27.2631 21.5455 26.6256 21.5754 26.5758C21.6053 26.536 21.7148 26.4961 21.8344 26.4961C22.193 26.4961 23.209 25.8785 23.5676 25.4502C24.2848 24.5737 24.5338 23.5576 24.2648 22.5317C23.9959 21.4559 23.3783 20.7188 22.3623 20.2606C21.8145 20.0115 21.665 19.9817 20.2705 19.9617C19.4537 19.9518 18.6768 19.9617 18.5672 19.9817ZM21.7945 22.5117C22.2727 22.9799 22.2627 23.6373 21.7646 24.1055C21.5555 24.2947 21.3861 24.3446 20.7187 24.3844L19.9219 24.4342V23.3186V22.2129H20.7088C21.4559 22.2129 21.5156 22.2328 21.7945 22.5117Z" fill="black"/>
<path d="M27.3428 20.0613C27.1834 20.1311 26.9543 20.2904 26.8447 20.4199C26.6555 20.6291 26.6455 20.7785 26.6455 25.5V30.3609L26.8846 30.6199C27.283 31.0482 27.6516 31.098 30.2016 31.0582L32.5723 31.0283L32.891 30.6996C33.1699 30.4307 33.2197 30.3111 33.2098 29.9326C33.1998 29.3947 32.9109 29.0361 32.383 28.8867C32.1838 28.8369 31.2973 28.7871 30.4107 28.7871H28.7871V27.6914V26.5957H29.4943C30.5203 26.5957 31.0084 26.2471 31.0084 25.5C31.0084 24.7529 30.5203 24.4043 29.4943 24.4043H28.7871V23.3086V22.2129H30.4107C31.2973 22.2129 32.1838 22.1631 32.383 22.1133C32.9109 21.9639 33.1998 21.6053 33.2098 21.0674C33.2197 20.6889 33.1699 20.5693 32.891 20.3004L32.5723 19.9717L30.102 19.9518C28.1994 19.9318 27.5719 19.9518 27.3428 20.0613Z" fill="black"/>
<path d="M36.2977 20.0215C36.1383 20.0713 35.8893 20.2307 35.7498 20.3801L35.5107 20.6391V25.52V30.4008L35.8295 30.6797C36.2578 31.0583 36.5965 31.0981 39.2162 31.0583L41.4375 31.0284L41.7562 30.6997C42.3838 30.0721 42.1148 29.1258 41.2482 28.8868C41.049 28.837 40.1625 28.7872 39.266 28.7872H37.6424L37.6723 27.7114L37.7021 26.6456L38.4492 26.5858C38.8576 26.5559 39.276 26.4961 39.3656 26.4563C39.8338 26.2372 40.023 25.3706 39.7043 24.8825C39.4752 24.5338 39.3258 24.4741 38.4492 24.4143L37.7021 24.3545L37.6723 23.2788L37.6424 22.2129H39.266C40.1625 22.2129 41.049 22.1631 41.2482 22.1133C42.1148 21.8743 42.3838 20.928 41.7562 20.3004L41.4375 19.9717L39.017 19.9518C37.6922 19.9418 36.467 19.9717 36.2977 20.0215Z" fill="black"/>
<path d="M12.4512 36.6264C11.6842 36.8754 11.3555 37.5129 11.6643 38.1803C11.7838 38.4492 13.1484 39.7242 14.1445 40.5012C16.4555 42.3141 19.3939 43.5791 22.5117 44.0971C23.9561 44.3361 27.0439 44.3361 28.4883 44.0971C31.6061 43.5791 34.5445 42.3141 36.8555 40.5012C37.8814 39.7043 39.1465 38.5189 39.3059 38.2301C39.6644 37.5428 39.2461 36.6961 38.499 36.6363C37.981 36.5965 37.8018 36.6961 37.0248 37.4332C35.0824 39.276 33.2197 40.4115 30.8291 41.2283C28.6078 41.9754 26.4363 42.2443 24.2051 42.0551C22.5516 41.9057 21.6551 41.7264 20.1709 41.2283C17.7803 40.4115 15.9176 39.276 13.9752 37.4332C13.517 37.0049 13.0887 36.6562 13.009 36.6562C12.9293 36.6562 12.8098 36.6363 12.7301 36.6164C12.6603 36.5865 12.5309 36.5965 12.4512 36.6264Z" fill="black"/>
</g>
<defs>
<clipPath id="clip0_30_9">
<rect width="51" height="51" fill="white"/>
</clipPath>
</defs>
</svg>
