<svg width="45" height="45" viewBox="0 0 45 45" fill="none" xmlns="http://www.w3.org/2000/svg">
<path d="M18.1055 4.17481C10.7227 5.18555 4.62308 10.6348 2.76859 17.877C2.32035 19.6436 2.16215 21.085 2.22367 23.0273C2.34672 27.2725 3.67387 30.876 6.33695 34.1895C9.2725 37.8457 13.6846 40.2715 18.4571 40.8691C19.5645 41.001 22.0782 40.9746 23.2207 40.8252C26.2442 40.4033 29.584 39.041 31.7373 37.3447C31.9131 37.2041 32.0801 37.0898 32.1065 37.0898C32.1329 37.0898 32.168 37.4941 32.1856 37.9863C32.212 38.6807 32.2735 38.9971 32.4229 39.3574C32.6866 39.9375 33.4161 40.623 33.9786 40.8164C34.5147 41.001 35.6133 41.001 36.1495 40.8164C36.712 40.623 37.3799 40.0078 37.6787 39.3926L37.9248 38.8916L37.9512 34.6201L37.9776 30.3486L38.6192 30.0234C40.4825 29.0742 41.959 27.2549 42.5567 25.1807C42.7325 24.583 42.7588 24.2842 42.7588 23.1152C42.75 21.5684 42.6534 21.0674 42.0996 19.8897C41.6778 18.9932 41.3262 18.4746 40.6582 17.7627C40.043 17.1299 39.3047 16.5762 38.5401 16.1895L38.0127 15.9258L37.5996 14.9854C35.0157 9.10547 29.3731 4.93067 22.9395 4.13965C21.9375 4.00782 19.1338 4.03418 18.1055 4.17481ZM22.8077 5.58106C24.3985 5.792 26.3584 6.31055 27.2373 6.75879L27.5274 6.917L27.1495 7.24219L26.7627 7.56739L25.8838 7.50586C25.1455 7.46192 24.8907 7.4795 24.2842 7.6377C23.2383 7.91016 23.1416 7.96289 22.9746 8.42871C22.5791 9.49219 22.667 9.4043 22.0254 9.4043C21.5332 9.4043 21.3838 9.36036 20.918 9.08789C20.4258 8.80664 20.3116 8.66602 19.6875 7.70801C19.3008 7.11914 18.9317 6.56543 18.8526 6.47754C18.6065 6.20508 18.211 6.29297 17.3936 6.81153C16.8311 7.17188 16.5147 7.3125 16.2071 7.34766C15.9698 7.37403 15.6973 7.40918 15.5918 7.42676C15.4952 7.45313 15.1084 7.80469 14.7393 8.21778C14.1504 8.87696 14.0625 9.01758 14.0625 9.30762C14.0625 9.51856 14.1241 9.69434 14.2207 9.78223C14.3086 9.86133 15.0645 10.2217 15.9082 10.5732L17.4375 11.2236L17.7715 11.8301C18.1582 12.5332 18.1934 12.8496 17.9121 12.9902C17.7979 13.043 17.3409 13.1133 16.8838 13.1397C16.4268 13.1748 16.0049 13.2188 15.9434 13.2451C15.8819 13.2715 15.5655 13.6406 15.2491 14.0625C14.7129 14.7832 14.5987 14.8887 13.7725 15.3633C13.2803 15.6533 12.8057 15.9609 12.7266 16.0576C12.542 16.251 12.3926 17.6045 12.3926 19.0195C12.3926 19.8721 12.2432 20.8301 12.0938 20.9795C12.0674 21.0059 11.6631 20.8477 11.1973 20.6191C9.9932 20.0391 9.94047 20.0479 8.92094 20.9707C8.15629 21.6563 8.08598 21.7529 8.08598 22.043C8.08598 22.5 8.50785 23.915 8.71879 24.1348C8.83305 24.2666 9.23734 24.416 9.95805 24.6094C10.6348 24.7852 11.2676 25.0225 11.6719 25.2422C12.3135 25.5938 12.3223 25.5938 13.0342 25.541C13.4297 25.5147 14.8799 25.4619 16.2598 25.4355L18.7647 25.3828L19.4854 26.3496C20.1534 27.2461 20.2412 27.3252 20.8037 27.5889C21.4717 27.9053 22.7373 28.6348 22.8077 28.7402C22.834 28.7754 22.6055 29.5049 22.3067 30.3486L21.753 31.8779L20.9092 32.5898C20.4434 32.9766 20.0391 33.3633 20.0039 33.4424C19.9776 33.5215 19.9512 34.2334 19.9512 35.0244C19.9512 36.3604 19.9424 36.4746 19.7842 36.5625C19.5205 36.7031 19.0635 36.5713 18.9229 36.3076C17.9561 34.5234 16.9629 32.8447 16.5059 32.1768C16.0137 31.4824 15.7412 31.2012 14.6602 30.3223L13.3946 29.2939L13.2364 28.415C13.0694 27.4395 13.0518 27.4219 12.1289 26.7451C11.6895 26.4199 11.5752 26.376 10.793 26.2881C10.3272 26.2266 9.54496 26.0684 9.05277 25.9365L8.15629 25.6992L7.47953 24.8906C6.89066 24.1963 6.73246 23.9238 6.28422 22.8955C6.00297 22.2363 5.72172 21.6387 5.65141 21.5772C5.58109 21.5068 5.13285 21.1289 4.65824 20.7334C3.95512 20.1621 3.78812 19.9863 3.82328 19.8281C4.07816 18.5361 4.20121 18.0879 4.49125 17.1826C6.31059 11.54 11.1358 7.16309 16.9629 5.85352C17.5166 5.73047 18.2901 5.59864 18.6768 5.55469C19.8018 5.42286 21.709 5.44043 22.8077 5.58106ZM29.628 7.98047L29.9532 8.17383L29.6895 9.03516L29.4258 9.8877L29.5489 10.916L29.6719 11.9356L28.6963 12.2168C28.1602 12.375 27.6329 12.5859 27.5186 12.6914C27.3164 12.8672 27.3164 12.9023 27.378 13.8779C27.4746 15.5742 27.5186 15.7061 28.0108 16.1807C28.4942 16.6465 28.8282 16.7695 29.7598 16.8486L30.3926 16.9014L29.7774 17.4814C28.7315 18.457 27.9668 19.7139 27.5801 21.0674C27.4131 21.6387 27.378 21.9727 27.378 23.1152C27.378 24.2842 27.4043 24.583 27.5801 25.1807C28.1954 27.2988 29.628 29.0654 31.5176 30.0234L32.168 30.3486V32.7393V35.1299L31.4034 35.7451C27.378 38.9883 22.2715 40.2275 17.1914 39.1904C12.8936 38.3203 8.97367 35.6484 6.46879 31.9043C4.67582 29.2148 3.60355 25.6816 3.60355 22.4385V21.7881L4.08695 22.1572C4.53519 22.5176 4.58793 22.5967 5.02738 23.6602C5.45805 24.7061 5.56351 24.873 6.39848 25.875L7.30375 26.9648L8.33207 27.2461C8.89457 27.4043 9.7559 27.5889 10.2393 27.6592C10.9512 27.7734 11.1797 27.8438 11.4346 28.0371C11.7159 28.2656 11.751 28.3535 11.9004 29.1182C11.9883 29.5752 12.1114 30.0322 12.1729 30.1201C12.2344 30.2168 12.8672 30.7617 13.5791 31.333C14.7305 32.2734 14.9239 32.4756 15.46 33.2666C16.0401 34.1191 17.3057 36.334 17.6309 37.0459C17.9121 37.6611 18.0616 37.7666 18.9493 37.9775L19.7754 38.1797L20.3204 37.916C20.6192 37.7754 20.9795 37.5645 21.1114 37.459L21.3575 37.248V35.6836V34.1104L22.1309 33.4775C22.5528 33.1348 22.9307 32.792 22.9659 32.7305C23.0098 32.6602 23.3526 31.7285 23.7393 30.6563C24.46 28.6523 24.5567 28.1689 24.2842 27.9316C24.0381 27.7207 22.9834 27.0791 22.0166 26.5781C21.1465 26.1211 21.1289 26.1035 20.3907 25.1191C19.9776 24.5742 19.5469 24.082 19.4239 24.0205C19.1075 23.8623 15.583 23.8711 13.9834 24.0381L12.7266 24.1699L12.208 23.8623C11.918 23.6953 11.3028 23.458 10.7491 23.3174L9.80863 23.0625L9.70316 22.7022C9.59769 22.3506 9.60648 22.333 9.88773 22.0605L10.1778 21.7793L10.6524 21.9902C10.9073 22.1133 11.3204 22.2803 11.5752 22.3682C12.0235 22.5264 12.0498 22.5264 12.542 22.3594C12.8233 22.2715 13.1309 22.1133 13.2364 22.0166C13.5528 21.7002 13.7813 20.4609 13.834 18.7647C13.8604 17.9385 13.9043 17.1914 13.9307 17.0947C13.9659 16.9893 14.3174 16.7344 14.8096 16.4531C15.5567 16.0313 15.6885 15.9082 16.1455 15.293C16.5411 14.7568 16.708 14.5898 16.875 14.5898C16.9981 14.5811 17.3936 14.5459 17.7627 14.5107C18.3428 14.4492 18.4834 14.3965 18.8789 14.1064C19.3711 13.7373 19.4766 13.5352 19.5645 12.7529C19.6172 12.2432 19.6084 12.2168 19.0723 11.1797L18.5274 10.1162L17.587 9.71192C17.0772 9.4834 16.5059 9.23731 16.3213 9.167C15.8819 8.99121 16.0137 8.83301 16.6817 8.75391C17.042 8.70996 17.3145 8.61329 17.6573 8.37598C18.1231 8.07715 18.1495 8.06836 18.2549 8.22657C19.3184 9.83496 19.3536 9.87012 20.1709 10.3447L20.962 10.8106H22.1485C23.0362 10.8106 23.3877 10.7754 23.5196 10.6875C23.6162 10.6172 23.8096 10.2744 23.9502 9.91407C24.0909 9.5625 24.2315 9.23731 24.2579 9.20215C24.293 9.167 24.5303 9.07911 24.7852 9.00879C25.1631 8.91211 25.4356 8.90332 26.209 8.98243L27.1582 9.07911L27.4834 8.85059C27.668 8.71875 28.0723 8.38477 28.3887 8.09473C28.8985 7.62891 28.9776 7.58496 29.1358 7.68164C29.2325 7.74317 29.4522 7.875 29.628 7.98047ZM31.878 9.65039C33.5567 11.1006 35.2793 13.3682 36.0879 15.2051L36.1934 15.4336L35.3848 15.3984C34.5147 15.3545 33.5479 15.4775 32.8008 15.7061C32.3438 15.8555 32.3438 15.8555 31.8252 15.6006C31.3418 15.3721 31.2452 15.3545 30.6123 15.4072C29.8301 15.4688 29.3204 15.3809 29.0743 15.1436C28.9512 15.0117 28.9073 14.8272 28.8897 14.335L28.8721 13.6934L29.5752 13.4824C31.3155 12.9639 31.2803 13.0166 31.0518 11.2852C30.9024 10.1689 30.9024 10.0195 31.0254 9.59766C31.0957 9.35157 31.1836 9.14063 31.2188 9.14063C31.2539 9.14063 31.5528 9.36914 31.878 9.65039ZM36.6065 17.0068C38.7686 17.5693 40.4561 19.2217 41.1416 21.4453C41.4317 22.3857 41.4317 23.8535 41.1416 24.7852C40.4121 27.167 38.628 28.8193 36.2813 29.3027C34.1983 29.7334 32.1329 29.0742 30.5684 27.4922C29.9971 26.9209 29.8125 26.6572 29.4522 25.9014C28.8985 24.7588 28.7842 24.2666 28.7842 23.0713C28.793 22.0078 28.9776 21.2344 29.4434 20.3027C30.7705 17.6748 33.794 16.2773 36.6065 17.0068ZM36.545 34.6729L36.5186 38.54L36.3077 38.874C35.7627 39.7617 34.3741 39.7617 33.8291 38.874L33.6182 38.54L33.5918 34.6729L33.5655 30.8057H35.0684H36.5713L36.545 34.6729Z" fill="white"/>
<path d="M33.8469 18.6856C32.3352 19.0899 31.0959 20.3291 30.6389 21.876C30.4543 22.5 30.4543 23.7305 30.6389 24.3545C31.1223 25.9717 32.4143 27.2373 33.926 27.5889C34.4797 27.7207 35.7366 27.7031 36.2551 27.5625C37.8284 27.1494 39.0149 25.9717 39.4983 24.3545C39.6829 23.7305 39.6829 22.5 39.4983 21.876C39.0413 20.3115 37.7932 19.0811 36.2551 18.6768C35.6135 18.5098 34.4797 18.5186 33.8469 18.6856ZM36.343 20.25C37.011 20.5488 37.5647 21.1025 37.8987 21.7881C38.1536 22.2979 38.1887 22.4473 38.1887 23.1152C38.1887 23.7393 38.1536 23.9414 37.9514 24.3633C37.6438 25.0313 37.0813 25.6201 36.4309 25.9541C35.9563 26.209 35.8245 26.2354 35.1125 26.2354C34.427 26.2354 34.2512 26.2002 33.7766 25.9805C33.1086 25.6729 32.511 25.0664 32.1858 24.3633C31.9836 23.9414 31.9485 23.7393 31.9485 23.1152C31.9485 22.4912 31.9836 22.2891 32.177 21.876C32.9417 20.25 34.7786 19.5293 36.343 20.25Z" fill="white"/>
<path d="M34.7608 20.8389C34.4004 21.0498 34.2686 21.4365 34.418 21.8408C34.4883 22.0254 34.9102 22.2363 35.2002 22.2363C35.5342 22.2363 35.9033 22.6406 35.9736 23.0977C36.0527 23.5723 36.2988 23.8184 36.6943 23.8184C37.0899 23.8184 37.4414 23.4932 37.4414 23.1328C37.4414 22.3154 36.8086 21.3223 36.0791 20.9971C35.6045 20.7949 34.9805 20.7158 34.7608 20.8389Z" fill="white"/>
</svg>
