<svg width="45" height="45" viewBox="0 0 45 45" fill="none" xmlns="http://www.w3.org/2000/svg">
<g clip-path="url(#clip0_51_3)">
<path d="M3.05859 0.167007C1.66992 0.61525 0.597656 1.68752 0.175781 3.05861C0.0263672 3.52443 0 3.87599 0 5.09767C0 6.54787 0 6.57423 0.219727 6.78517C0.342773 6.90822 0.5625 7.03127 0.711914 7.06642C0.870117 7.09279 2.3291 7.11916 3.96387 7.11916H6.94336V9.79103C6.94336 11.2588 6.96973 12.586 7.00488 12.7442C7.04004 12.9375 7.26855 13.2539 7.67285 13.6846L8.28808 14.3262L7.67285 14.9678C7.26855 15.3985 7.04004 15.7149 7.00488 15.9082C6.9082 16.374 6.93457 24.7061 7.03125 25.0488C7.08398 25.251 7.33887 25.5762 7.73437 25.9717L8.34961 26.5781L7.69922 27.2461C7.14551 27.8174 7.04004 27.9668 6.9873 28.3008C6.96094 28.5205 6.94336 31.544 6.96094 35.0244C6.9873 41.2559 6.99609 41.3613 7.18066 41.9238C7.66406 43.3477 8.71875 44.4024 10.0898 44.8242C10.6436 45 10.9424 45 25.9629 45C42.8379 45 41.7744 45.0352 42.7939 44.4551C43.4355 44.086 44.1914 43.3125 44.499 42.6973C44.9121 41.8799 45 41.3965 45 39.8848V38.4961L44.7451 38.2149L44.4902 37.9248L41.2295 37.8985L37.9687 37.8721V34.9629V32.0625L37.292 31.3682L36.624 30.6738L37.292 29.9795L37.9687 29.2852V27.0088V24.7324L38.5928 24.2227C41.6426 21.709 44.2969 16.2949 44.9121 11.3379C45.0967 9.83498 45 7.23341 44.7275 6.35451C44.5957 5.94142 44.2793 5.77443 43.7256 5.81837C42.8291 5.89748 40.0518 7.42677 38.54 8.6924L38.0127 9.13186L37.9687 6.21388C37.9248 3.52443 37.9072 3.26076 37.7402 2.84767C37.2041 1.52931 36.1846 0.562515 34.9014 0.175797C34.3564 1.52588e-05 34.0137 1.52588e-05 18.9492 0.00880432C4.30664 0.00880432 3.5332 0.0175934 3.05859 0.167007ZM5.40527 2.05666C6.04687 2.35548 6.37207 2.6631 6.6709 3.26955C6.9082 3.74416 6.94336 3.90236 6.94336 4.54396V5.27345H4.3418H1.73145L1.79297 4.60548C1.86328 3.709 1.97754 3.34865 2.36426 2.84767C3.05859 1.92482 4.38574 1.58205 5.40527 2.05666ZM34.6992 2.11818C35.2705 2.39943 35.5693 2.69826 35.8857 3.28712C36.0791 3.63869 36.0791 3.72658 36.1055 7.30373L36.1318 10.9512L35.5078 11.6983C33.5742 13.9922 31.8603 17.3672 31.3242 19.9512C31.0869 21.085 31.1045 22.9307 31.3682 23.9063C31.4736 24.3106 31.6494 24.8379 31.7461 25.0664L31.9307 25.4883L31.1309 26.877L30.3398 28.2569L22.0254 28.3008L13.7109 28.3447L13.4736 28.5908C13.1221 28.9336 13.1221 29.5137 13.4736 29.8565L13.7109 30.1026H22.5C31.166 30.1026 31.2891 30.1026 31.4561 29.9268C31.5527 29.8301 32.0625 28.9951 32.5986 28.0811L33.5654 26.4111L34.0664 26.3496C34.5234 26.2881 35.5869 26.0244 35.9736 25.8838C36.1143 25.8223 36.123 25.919 36.123 27.1758V28.5205L35.332 29.3115C34.084 30.5508 34.084 30.7969 35.332 32.0361L36.123 32.8272V35.3496V37.8809H25.5586C18.4834 37.8809 14.8799 37.916 14.6514 37.9776C14.0977 38.127 14.0273 38.3379 13.9746 39.9463C13.9395 41.2031 13.9043 41.3965 13.7285 41.7481C13.4473 42.2842 13.1396 42.6006 12.6123 42.8731C12.2344 43.0752 12.0674 43.1104 11.4258 43.1104C10.7842 43.1104 10.6172 43.0752 10.2305 42.8731C9.68555 42.5918 9.21094 42.0557 8.99121 41.4932C8.85058 41.124 8.83301 40.5879 8.80664 34.9453L8.78027 28.8018L9.66797 27.9053C10.5381 27.0176 10.5469 27 10.5469 26.5869C10.5469 26.1738 10.5381 26.1563 9.66797 25.2686L8.78906 24.3809V20.4785V16.585L9.66797 15.6797L10.5469 14.7744V14.3262V13.8779L9.66797 13.0342L8.78906 12.1817V7.90138C8.78906 3.87599 8.78027 3.58595 8.61328 3.0674C8.5166 2.75978 8.3584 2.37306 8.26172 2.21486C8.16504 2.05666 8.08594 1.90724 8.08594 1.88966C8.08594 1.8633 13.957 1.84572 21.1201 1.84572H34.1631L34.6992 2.11818ZM43.1719 8.63087C43.207 10.3975 43.04 11.8301 42.583 13.5879C41.4228 18.0352 39.1113 21.7442 36.3779 23.5195C35.8594 23.8623 34.9102 24.3018 34.8486 24.2403C34.8311 24.2227 35.8857 22.377 37.1865 20.127C39.7969 15.6094 39.7969 15.6182 39.2959 15.1084C38.9531 14.7744 38.3291 14.7481 38.0303 15.0469C37.9248 15.1611 36.791 17.0596 35.5166 19.2744C33.5742 22.6494 33.1787 23.2822 33.1084 23.1416C32.9502 22.8692 32.9941 21.041 33.1699 20.2149C34.0137 16.2686 37.1602 11.8389 40.9482 9.23732C41.6865 8.73635 42.9521 7.99806 43.0928 7.99806C43.1279 7.99806 43.1631 8.2881 43.1719 8.63087ZM43.1367 40.5352C43.1103 41.1504 43.0488 41.4492 42.9082 41.7217C42.6445 42.2403 42.1611 42.6973 41.625 42.9434L41.1768 43.1543H28.1514C20.9795 43.1543 15.1172 43.1367 15.1172 43.1104C15.1172 43.0928 15.1963 42.9434 15.293 42.7852C15.627 42.2403 15.8203 41.4317 15.8203 40.5528V39.7266H29.4961H43.1719L43.1367 40.5352Z" fill="white"/>
<path d="M13.491 8.12113C12.9988 8.61332 13.1834 9.4307 13.8338 9.65043C14.1062 9.73832 15.9871 9.7559 22.6668 9.73832C32.1414 9.71195 31.535 9.74711 31.7107 9.10551C31.825 8.71 31.7547 8.40238 31.491 8.12992L31.2625 7.9102H22.4822H13.7019L13.491 8.12113Z" fill="white"/>
<path d="M13.5613 16.2158C13.28 16.418 13.1482 16.8926 13.2713 17.2705C13.4734 17.8769 12.9373 17.8418 21.3572 17.8418C29.7771 17.8418 29.241 17.8769 29.4431 17.2705C29.5222 17.042 29.5222 16.8838 29.4431 16.6553C29.241 16.0488 29.7771 16.084 21.3572 16.084C14.7302 16.084 13.7283 16.1015 13.5613 16.2158Z" fill="white"/>
<path d="M13.5176 20.3818C13.2715 20.6016 13.2275 20.6982 13.2275 21.0498C13.2275 21.4014 13.2715 21.498 13.5176 21.7178L13.7988 21.9727H21.3574H28.916L29.1973 21.7178C29.4434 21.498 29.4873 21.4014 29.4873 21.0498C29.4873 20.6982 29.4434 20.6016 29.1973 20.3818L28.916 20.127H21.3574H13.7988L13.5176 20.3818Z" fill="white"/>
<path d="M13.5613 24.3896C13.28 24.5918 13.1482 25.0664 13.2713 25.4443C13.4734 26.0508 12.9373 26.0156 21.3572 26.0156C29.7771 26.0156 29.241 26.0508 29.4431 25.4443C29.5222 25.2158 29.5222 25.0576 29.4431 24.8291C29.241 24.2226 29.7771 24.2578 21.3572 24.2578C14.7302 24.2578 13.7283 24.2754 13.5613 24.3896Z" fill="white"/>
</g>
<defs>
<clipPath id="clip0_51_3">
<rect width="45" height="45" fill="white"/>
</clipPath>
</defs>
</svg>
