<svg width="45" height="45" viewBox="0 0 45 45" fill="none" xmlns="http://www.w3.org/2000/svg">
<path d="M3.74414 2.94434C3.22559 3.12891 2.79492 3.51562 2.53125 4.04297L2.28516 4.51758V17.8857V31.2539L2.51367 31.7109C2.63672 31.9658 2.88281 32.291 3.05859 32.4316C3.7002 32.959 3.66504 32.959 10.2832 32.959H16.3213L16.4795 33.5918C16.7168 34.5322 16.7607 36.4219 16.5674 37.3711C16.2949 38.7246 15.7061 39.9023 14.7568 40.9834C14.2031 41.6162 14.1416 41.8096 14.3965 42.0381C14.5459 42.1787 15.2402 42.1875 22.5176 42.1875C30.1113 42.1875 30.4805 42.1787 30.6123 42.0293C30.8496 41.7744 30.7969 41.6162 30.2695 41.0273C28.4941 39.041 27.8789 36.4219 28.5205 33.5918L28.6699 32.959H34.708C41.335 32.959 41.2998 32.959 41.9414 32.4316C42.1172 32.291 42.3633 31.9658 42.4863 31.7109L42.7148 31.2539V17.8857V4.51758L42.4688 4.03418C42.2051 3.50684 41.6689 3.0498 41.1504 2.90039C40.9307 2.83887 34.8486 2.8125 22.4561 2.8125C7.06641 2.82129 4.03418 2.83887 3.74414 2.94434ZM41.1328 3.91113C41.2734 3.98145 41.4756 4.16602 41.5898 4.32422L41.792 4.61426L41.8184 17.7363C41.8359 30.5771 41.8359 30.876 41.6689 31.2539C41.5635 31.4824 41.3789 31.7109 41.2031 31.8164C40.9131 31.9922 40.8252 31.9922 22.5 31.9922C4.1748 31.9922 4.08691 31.9922 3.79688 31.8164C3.62109 31.7109 3.43652 31.4824 3.33105 31.2539C3.16406 30.876 3.16406 30.5771 3.18164 17.7363C3.20801 5.24707 3.2168 4.59668 3.36621 4.36816C3.4541 4.22754 3.64746 4.04297 3.80566 3.95508C4.07812 3.7793 4.40332 3.7793 22.4824 3.7793C38.5752 3.7793 40.9131 3.79688 41.1328 3.91113ZM27.6855 33.0645C27.6768 33.126 27.624 33.416 27.5449 33.7061C27.3516 34.4883 27.29 36.1318 27.4131 37.002C27.6152 38.3555 28.0986 39.6211 28.8457 40.7197L29.1885 41.2207H22.5H15.8115L16.1543 40.7109C16.9189 39.5947 17.4023 38.3115 17.5869 36.9492C17.71 36.0352 17.6396 34.4883 17.4463 33.7061C17.376 33.416 17.3232 33.126 17.3145 33.0645C17.3145 32.9854 18.4043 32.959 22.5 32.959C26.5957 32.959 27.6855 32.9854 27.6855 33.0645Z" fill="white"/>
<path d="M5.58984 6.25781C5.4668 6.43359 5.44922 7.68164 5.44922 17.8857C5.44922 28.0898 5.4668 29.3379 5.58984 29.5137L5.72168 29.707H22.5H39.2783L39.4102 29.5137C39.5332 29.3379 39.5508 28.0898 39.5508 17.8857C39.5508 7.68164 39.5332 6.43359 39.4102 6.25781L39.2783 6.06445H22.5H5.72168L5.58984 6.25781ZM38.584 17.8857V28.8281H22.5H6.41602V17.8857V6.94336H22.5H38.584V17.8857Z" fill="white"/>
<path d="M9.22852 10.8897C9.17578 11.0039 9.14062 12.0938 9.14062 13.834V16.6113L9.36035 16.752C9.62402 16.9278 9.91406 16.8399 10.0283 16.5498C10.0723 16.4356 10.1074 15.1612 10.1074 13.7285C10.1074 11.5049 10.0898 11.083 9.9668 10.916C9.79102 10.6699 9.36035 10.6524 9.22852 10.8897Z" fill="white"/>
<path d="M13.5703 10.8808C13.1396 11.083 12.5947 11.6982 12.4805 12.1201C12.4365 12.2959 12.3926 13.0693 12.3926 13.8515C12.3926 15.1875 12.4014 15.2842 12.6211 15.7148C13.2539 16.9805 14.9678 17.2353 15.917 16.1982C16.4443 15.6357 16.4795 15.4775 16.4795 13.7461V12.1553L16.2158 11.7334C16.0664 11.4961 15.7764 11.1797 15.5742 11.0303C15.249 10.8105 15.0996 10.7666 14.5635 10.7402C14.0889 10.7226 13.8428 10.7578 13.5703 10.8808ZM14.8975 11.7246C15.4688 11.9619 15.5566 12.2519 15.5566 13.8252V15.2051L15.2666 15.5215C14.7217 16.1191 13.7373 15.9873 13.4385 15.2666C13.3506 15.0732 13.3154 14.5898 13.3154 13.7109C13.3154 12.2871 13.3682 12.1025 13.9131 11.7773C14.2471 11.5664 14.4932 11.5576 14.8975 11.7246Z" fill="white"/>
<path d="M18.8965 10.8896C18.8438 10.9951 18.8086 12.0762 18.8086 13.79C18.8086 16.4092 18.8174 16.5322 18.9844 16.6992C19.0811 16.7959 19.2217 16.875 19.292 16.875C19.3623 16.875 19.5029 16.7959 19.5996 16.6992C19.7666 16.5322 19.7754 16.4092 19.7754 13.8164C19.7754 11.5137 19.7578 11.083 19.6348 10.916C19.459 10.6699 19.0283 10.6523 18.8965 10.8896Z" fill="white"/>
<path d="M23.2383 10.8809C22.7988 11.0918 22.2979 11.6631 22.166 12.1201C22.1045 12.3135 22.0605 13.043 22.0605 13.8516C22.0605 15.4072 22.1396 15.7149 22.6582 16.2246C23.2734 16.8399 24.2842 17.0156 25.0137 16.6289C25.5059 16.374 25.9717 15.8115 26.0947 15.3369C26.2178 14.8535 26.2178 12.6387 26.1035 12.208C25.9717 11.751 25.6729 11.3379 25.2422 11.0391C24.917 10.8106 24.7676 10.7666 24.2314 10.7402C23.7568 10.7227 23.5107 10.7578 23.2383 10.8809ZM24.5654 11.7246C25.1367 11.9619 25.2246 12.252 25.2246 13.8252V15.2051L24.9346 15.5215C24.3896 16.1191 23.4053 15.9873 23.1064 15.2666C23.0186 15.0732 22.9834 14.5899 22.9834 13.7109C22.9834 12.2871 23.0361 12.1025 23.5811 11.7774C23.915 11.5664 24.1611 11.5576 24.5654 11.7246Z" fill="white"/>
<path d="M28.5645 10.8896C28.5117 10.9951 28.4766 12.0762 28.4766 13.79C28.4766 16.4092 28.4854 16.5322 28.6523 16.6992C28.749 16.7959 28.8896 16.875 28.96 16.875C29.0303 16.875 29.1709 16.7959 29.2676 16.6992C29.4346 16.5322 29.4434 16.4092 29.4434 13.8164C29.4434 11.5137 29.4258 11.083 29.3027 10.916C29.127 10.6699 28.6963 10.6523 28.5645 10.8896Z" fill="white"/>
<path d="M32.9065 10.8809C32.4495 11.1006 31.9573 11.6807 31.8166 12.1641C31.6584 12.7529 31.7287 15.3457 31.9221 15.6973C32.3088 16.4092 33.0032 16.8223 33.7942 16.8223C34.6731 16.8223 35.5168 16.207 35.7541 15.3896C35.886 14.9766 35.8948 12.6475 35.7717 12.208C35.6399 11.751 35.3411 11.3379 34.9104 11.0391C34.5852 10.8105 34.4358 10.7666 33.8996 10.7402C33.425 10.7227 33.1789 10.7578 32.9065 10.8809ZM34.2248 11.7246C34.383 11.7861 34.594 11.9531 34.6995 12.085C34.884 12.3135 34.8928 12.4277 34.8928 13.7637V15.2051L34.6028 15.5215C34.0842 16.0928 33.2229 16.0137 32.8186 15.3545C32.678 15.1084 32.6516 14.8975 32.6516 13.7549C32.6516 12.2871 32.7043 12.1025 33.2493 11.7773C33.5832 11.5752 33.8293 11.5576 34.2248 11.7246Z" fill="white"/>
<path d="M9.29004 19.0547C9.1582 19.1953 9.14062 19.5381 9.14062 21.999C9.14062 24.4072 9.1582 24.7939 9.28125 24.9082C9.4834 25.1191 9.81738 25.084 9.97559 24.8379C10.0986 24.6533 10.1074 24.2578 10.0898 21.8847C10.0635 19.292 10.0547 19.1426 9.89648 19.0195C9.65918 18.8525 9.45703 18.8613 9.29004 19.0547Z" fill="white"/>
<path d="M13.7725 19.0195C13.2627 19.2041 12.8672 19.5557 12.6211 20.0566C12.4014 20.4873 12.3926 20.584 12.3926 21.9111C12.3926 23.4932 12.4629 23.8447 12.8936 24.3369C13.9131 25.5322 15.8643 25.1631 16.4004 23.6689C16.5498 23.2471 16.5674 20.9795 16.4268 20.4258C16.2861 19.8809 15.6797 19.2217 15.1436 19.0371C14.6514 18.8701 14.2207 18.8613 13.7725 19.0195ZM15.0293 20.0039C15.4951 20.2852 15.5566 20.5049 15.5566 21.9902C15.5566 23.1855 15.5391 23.3701 15.3809 23.625C15.0029 24.2314 14.1855 24.3105 13.6582 23.7832C13.3066 23.4316 13.2451 23.0537 13.2891 21.6475C13.3242 20.5225 13.4209 20.2412 13.8779 19.9951C14.1855 19.8281 14.7305 19.8281 15.0293 20.0039Z" fill="white"/>
<path d="M18.958 19.0547C18.8262 19.1953 18.8086 19.5381 18.8086 21.999C18.8086 25.0049 18.8174 25.0488 19.292 25.0488C19.749 25.0488 19.7754 24.8906 19.7754 21.9551C19.7754 19.3623 19.7666 19.2393 19.5996 19.0723C19.3799 18.8525 19.1426 18.8437 18.958 19.0547Z" fill="white"/>
<path d="M23.4404 19.0195C22.9307 19.2041 22.5352 19.5557 22.2891 20.0567C22.0693 20.4873 22.0605 20.584 22.0605 21.9111C22.0605 23.5986 22.1309 23.8975 22.6846 24.4512C23.748 25.5235 25.5498 25.1016 26.0684 23.669C26.2441 23.1768 26.2354 20.8125 26.0596 20.2852C25.6992 19.2569 24.4687 18.6592 23.4404 19.0195ZM24.6973 20.0039C25.1631 20.2852 25.2246 20.5049 25.2246 21.9902C25.2246 23.1856 25.207 23.3701 25.0488 23.625C24.6709 24.2315 23.8535 24.3106 23.3262 23.7832C22.9746 23.4317 22.9043 23.0361 22.957 21.6387C22.9922 20.5225 23.0977 20.2412 23.5459 19.9951C23.8535 19.8281 24.3984 19.8281 24.6973 20.0039Z" fill="white"/>
<path d="M28.626 19.0547C28.4941 19.1953 28.4766 19.5381 28.4766 21.9903C28.4766 24.5567 28.4854 24.7676 28.6348 24.8994C28.8633 25.1016 29.1445 25.084 29.3027 24.8555C29.4258 24.6885 29.4434 24.2578 29.4434 21.9551C29.4434 19.3623 29.4346 19.2393 29.2676 19.0723C29.0479 18.8526 28.8105 18.8438 28.626 19.0547Z" fill="white"/>
<path d="M33.1084 19.0195C32.5986 19.2041 32.2031 19.5557 31.957 20.0567C31.7373 20.4961 31.7285 20.5752 31.7285 21.9639C31.7285 23.3086 31.7461 23.458 31.9395 23.8711C32.7129 25.5322 35.1123 25.4092 35.7363 23.669C35.9121 23.168 35.9033 20.8125 35.7188 20.2764C35.3672 19.2481 34.1455 18.6592 33.1084 19.0195ZM34.3652 20.0039C34.8311 20.2852 34.8926 20.5049 34.8926 21.9903C34.8926 23.1856 34.875 23.3701 34.7168 23.625C34.3477 24.2315 33.5215 24.3106 32.9941 23.7832C32.6514 23.4404 32.5723 22.957 32.625 21.6035C32.6602 20.6016 32.8008 20.2149 33.2051 20.0039C33.5215 19.8281 34.0576 19.8281 34.3652 20.0039Z" fill="white"/>
<path d="M19.459 35.7188C19.3096 35.833 19.292 35.9736 19.2656 37.002C19.2392 37.9424 19.2568 38.1885 19.3711 38.373L19.5117 38.584H22.5H25.4883L25.6289 38.373C25.7431 38.1885 25.7607 37.9424 25.7344 37.002C25.708 35.9736 25.6904 35.833 25.541 35.7188C25.2861 35.5342 19.7139 35.5342 19.459 35.7188ZM24.7851 37.1338V37.7051H22.5H20.2148V37.1338V36.5625H22.5H24.7851V37.1338Z" fill="white"/>
</svg>
