<svg width="45" height="45" viewBox="0 0 45 45" fill="none" xmlns="http://www.w3.org/2000/svg">
<g clip-path="url(#clip0_48_173)">
<path d="M3.10276 0.13184C2.01292 0.430668 0.958232 1.25684 0.492412 2.17969C-0.0261425 3.19922 0.000224667 2.43457 0.000224667 17.0947C0.000224667 28.8984 0.0178028 30.6123 0.132061 31.0693C0.536357 32.6074 1.82835 33.8115 3.37522 34.0928C3.718 34.1543 6.03831 34.1895 10.1428 34.1895H16.383L12.6037 37.9863C8.50804 42.1084 8.61351 41.9766 8.61351 42.9434C8.6223 43.6992 9.0969 44.4375 9.8264 44.7891C10.1428 44.9473 10.7756 44.9561 26.675 44.9824C41.8362 45 43.2336 44.9912 43.5852 44.8594C44.1125 44.6572 44.552 44.2441 44.7893 43.7256C44.9914 43.2949 45.0002 43.2246 45.0002 40.6231V37.96L44.7805 37.749C44.508 37.4678 44.174 37.4678 43.9016 37.749L43.6819 37.96V40.5615V43.1719L43.427 43.4268C43.1721 43.6729 43.1457 43.6816 42.2405 43.6816H41.3088V42.5039C41.3088 41.3877 41.3 41.3086 41.0627 40.8604C40.3948 39.5772 38.6194 39.4981 37.8108 40.7109C37.5823 41.0625 37.5735 41.1328 37.5471 42.3809L37.5207 43.6816H36.5539H35.5959V42.5039C35.5959 41.3877 35.5871 41.3086 35.3498 40.8604C34.6819 39.5772 32.9065 39.4981 32.0979 40.7109C31.8694 41.0625 31.8606 41.1328 31.8342 42.3809L31.8078 43.6816H30.841H29.883V42.5039C29.883 41.3877 29.8742 41.3086 29.6369 40.8604C28.969 39.5772 27.1936 39.4981 26.385 40.7109C26.1565 41.0625 26.1477 41.1328 26.1213 42.3809L26.095 43.6816H25.1282H24.1701V42.5039C24.1701 41.3877 24.1614 41.3086 23.9241 40.8604C23.2561 39.5772 21.4807 39.4981 20.6721 40.7109C20.4436 41.0625 20.4348 41.1328 20.4084 42.3809L20.3821 43.6816H19.4153H18.4573V42.5039C18.4573 41.3877 18.4485 41.3086 18.2112 40.8604C17.5432 39.5772 15.7678 39.4981 14.9592 40.7109C14.7307 41.0625 14.7219 41.1328 14.6955 42.3809L14.6692 43.6816H12.5598H10.4416L10.1867 43.4268C9.99339 43.2334 9.93186 43.084 9.93186 42.8379C9.93186 42.5127 10.0637 42.3721 14.0803 38.3467L18.2375 34.1895H20.9182C23.0012 34.1895 23.7219 34.1543 24.1614 34.0576C25.8049 33.6709 27.0705 32.3174 27.3254 30.6738C27.3782 30.3574 27.4221 28.9512 27.4221 27.5537V25.0049L34.9631 17.4639C42.3196 10.1162 42.5041 9.93164 42.8293 9.93164C43.0842 9.93164 43.2336 9.99316 43.427 10.1865L43.6819 10.4414V22.8955V35.3408L43.9016 35.5518C44.0158 35.6748 44.218 35.7715 44.341 35.7715C44.4641 35.7715 44.6662 35.6748 44.7805 35.5518L45.0002 35.3408V22.8691C45.0002 9 45.0442 9.91406 44.4026 9.27246C43.9807 8.8418 43.4797 8.61329 42.9436 8.61329C41.9416 8.61329 42.4162 8.2002 34.6116 15.9873L27.4309 23.1504L27.4045 13.2275L27.3782 3.2959L27.1672 2.76856C26.7014 1.59961 25.8313 0.69434 24.7239 0.246098L24.2141 0.0439491L13.8869 0.026371C5.19456 0.00879288 3.48948 0.026371 3.10276 0.13184ZM24.4953 1.59961C25.093 1.91602 25.55 2.39063 25.8313 2.98829L26.0598 3.47168V17.0068C26.0598 29.874 26.051 30.5684 25.9016 30.999C25.6907 31.6143 25.0842 32.2734 24.4514 32.5811L23.9504 32.8272H13.7112H3.4719L2.97972 32.5986C2.38206 32.3174 1.92503 31.8779 1.59983 31.2627L1.36253 30.8057L1.33616 17.2705C1.30979 2.39062 1.28343 3.25196 1.85472 2.47852C2.17991 2.03907 2.77757 1.59961 3.28733 1.44141C3.57737 1.35352 5.70433 1.33594 13.843 1.34473L24.0383 1.36231L24.4953 1.59961ZM16.9104 41.3174C17.1389 41.4932 17.1389 41.5107 17.1389 42.5918V43.6816H16.5676H15.9963V42.6006C15.9963 41.4844 16.0139 41.3965 16.3039 41.2383C16.55 41.0977 16.6467 41.1064 16.9104 41.3174ZM22.6233 41.3174C22.8518 41.4932 22.8518 41.5107 22.8518 42.5918V43.6816H22.2805H21.7092V42.6006C21.7092 41.4844 21.7268 41.3965 22.0168 41.2383C22.2629 41.0977 22.3596 41.1064 22.6233 41.3174ZM28.3362 41.3174C28.5647 41.4932 28.5647 41.5107 28.5647 42.5918V43.6816H27.9934H27.4221V42.6006C27.4221 41.4844 27.4397 41.3965 27.7297 41.2383C27.9758 41.0977 28.0725 41.1064 28.3362 41.3174ZM34.0491 41.3174C34.2776 41.4932 34.2776 41.5107 34.2776 42.5918V43.6816H33.7063H33.135V42.6006C33.135 41.4844 33.1526 41.3965 33.4426 41.2383C33.6887 41.0977 33.7854 41.1064 34.0491 41.3174ZM39.7619 41.3174C39.9905 41.4932 39.9905 41.5107 39.9905 42.5918V43.6816H39.4192H38.8479V42.6006C38.8479 41.4844 38.8655 41.3965 39.1555 41.2383C39.4016 41.0977 39.4983 41.1064 39.7619 41.3174Z" fill="white"/>
<path d="M5.05371 3.0674C4.33301 3.25197 3.62988 3.83205 3.24316 4.57033C3.03223 4.96584 3.03223 4.98341 3.03223 7.99806C3.03223 11.0127 3.03223 11.0303 3.24316 11.4258C3.76172 12.419 4.55273 12.9199 5.71289 12.9902C6.38086 13.0254 6.48633 13.0078 6.70605 12.832C6.88184 12.6914 6.94336 12.5684 6.94336 12.3486C6.94336 11.8652 6.69727 11.7158 5.88867 11.6719C5.15039 11.6455 4.89551 11.5225 4.53516 11.0391C4.35938 10.8106 4.35059 10.6875 4.35059 7.99806C4.35059 5.30861 4.35938 5.18556 4.53516 4.95705C4.63184 4.82521 4.8252 4.63185 4.95703 4.53517C5.19434 4.3506 5.26465 4.3506 13.6055 4.33302L22.0166 4.30666L22.3594 4.50881C22.5527 4.61427 22.79 4.84279 22.8867 5.00978C23.0625 5.29982 23.0713 5.44923 23.0713 7.99806C23.0713 10.9776 23.0625 11.0215 22.4824 11.4434L22.1924 11.6455L15.6445 11.6895C12.041 11.7158 9.04395 11.7686 8.98242 11.8037C8.60449 12.0498 8.70117 12.7354 9.13184 12.9111C9.29883 12.9815 11.25 13.0078 15.8643 12.9902L22.3682 12.9639L22.8691 12.7178C23.4844 12.419 24.0205 11.8301 24.2314 11.2236C24.3721 10.8194 24.3896 10.4414 24.3896 7.99806C24.3896 5.5547 24.3721 5.17677 24.2314 4.77248C24.0205 4.16603 23.4844 3.57717 22.8691 3.27834L22.3682 3.03224L13.8428 3.01467C9.1582 3.01467 5.20312 3.03224 5.05371 3.0674Z" fill="white"/>
<path d="M15.0649 5.3877C14.6166 5.77442 14.8627 6.50392 15.434 6.50392H15.645V8.20899C15.645 10.0371 15.7065 10.3799 16.0493 10.5381C16.3569 10.6787 16.4623 10.6611 16.7348 10.4502L16.9633 10.2744V7.91017V5.54591L16.7348 5.37013C16.3832 5.08888 15.3989 5.10645 15.0649 5.3877Z" fill="white"/>
<path d="M19.0285 5.30859C18.6681 5.4668 18.2199 5.98535 18.1144 6.38965C17.8683 7.26855 18.923 7.67285 19.3361 6.85547C19.5294 6.47754 19.8283 6.38086 20.0392 6.63574C20.215 6.84668 20.0832 7.13672 19.2833 8.23535C18.0617 9.89648 18.0089 10.0195 18.4132 10.415C18.6154 10.626 18.6593 10.6348 19.9074 10.6348C21.1554 10.6348 21.1994 10.626 21.4015 10.415C21.5246 10.3008 21.6212 10.0986 21.6212 9.97559C21.6212 9.85254 21.5246 9.65039 21.4015 9.53613C21.2257 9.35156 21.1027 9.31641 20.6544 9.31641H20.1271L20.5666 8.70996C21.2345 7.78711 21.4806 7.19824 21.4191 6.65332C21.3136 5.7832 20.6369 5.18555 19.7667 5.18555C19.5031 5.19434 19.1691 5.24707 19.0285 5.30859Z" fill="white"/>
<path d="M4.8696 14.7744C4.05222 15.0117 3.25242 15.873 3.07664 16.7256C3.01511 17.042 2.98874 19.0811 3.00632 23.1592L3.03269 29.1357L3.27878 29.6367C3.56003 30.208 4.06101 30.7002 4.64988 30.9727C5.05417 31.1572 5.05417 31.1572 13.5796 31.1572C20.435 31.1572 22.1841 31.1309 22.5093 31.043C23.1684 30.8496 23.7309 30.3574 24.0825 29.6719L24.3901 29.0654V22.9043V16.7432L24.1616 16.2598C23.8628 15.627 23.2827 15.0732 22.7026 14.8535C22.2456 14.6777 22.0171 14.6777 13.685 14.6865C8.85105 14.6865 5.01902 14.7305 4.8696 14.7744ZM13.0083 19.1162V22.2363H8.65769H4.3071V19.6611C4.3071 17.1475 4.31589 17.0684 4.50925 16.6992C4.88718 15.9785 4.7905 15.9961 9.15867 15.9961H13.0083V19.1162ZM22.4126 16.1982C22.5796 16.3037 22.7905 16.5322 22.8872 16.6992C23.063 16.9893 23.0718 17.1738 23.0981 19.6172L23.1245 22.2363H18.73H14.3266V19.1162V15.9961H18.229H22.1225L22.4126 16.1982ZM13.0083 26.7188V29.8916L9.16746 29.8652C4.89597 29.8389 4.98386 29.8477 4.5532 29.25C4.35105 28.96 4.35105 28.9248 4.32468 26.2529L4.29831 23.5547H8.65769H13.0083V26.7188ZM23.0718 26.2354C23.0718 28.7139 23.063 28.8896 22.896 29.1621C22.7993 29.3203 22.5796 29.54 22.4126 29.6455C22.105 29.8389 22.061 29.8389 18.2378 29.8389H14.3706L14.3442 26.6924L14.3266 23.5547L18.6948 23.5723L23.0718 23.5986V26.2354Z" fill="white"/>
<path d="M9.36035 17.4023C9.26367 17.4375 8.68359 17.9824 8.06836 18.6064C7.10156 19.582 6.94336 19.7842 6.94336 20.0215C6.94336 20.3906 7.21582 20.6543 7.58496 20.6543C7.83984 20.6543 8.01562 20.5137 9.0791 19.4414C9.85254 18.6592 10.2832 18.1582 10.2832 18.0439C10.2832 17.7363 10.1865 17.5781 9.92285 17.4463C9.6416 17.2969 9.60645 17.2969 9.36035 17.4023Z" fill="white"/>
<path d="M17.6133 17.42C17.4199 17.5078 17.2266 17.833 17.2266 18.0703C17.2266 18.1407 17.3848 18.3692 17.5781 18.5801C17.7715 18.791 17.9297 18.9932 17.9297 19.0283C17.9297 19.0635 17.7715 19.2657 17.5781 19.4766C17.1826 19.9073 17.1475 20.0918 17.4111 20.4258C17.6924 20.7862 18.1055 20.7422 18.5801 20.3028L18.958 19.96L19.292 20.3028C19.5645 20.584 19.6963 20.6543 19.9512 20.6543C20.3555 20.6543 20.5664 20.4346 20.5664 20.0303C20.5664 19.793 20.4873 19.6524 20.2148 19.3799L19.8721 19.0459L20.2148 18.668C20.6543 18.1934 20.6982 17.7803 20.3379 17.4991C20.0039 17.2354 19.8193 17.2705 19.3887 17.666C19.1777 17.8594 18.9756 18.0176 18.9404 18.0176C18.9053 18.0176 18.7031 17.8594 18.4922 17.666C18.0967 17.3057 17.9385 17.2617 17.6133 17.42Z" fill="white"/>
<path d="M8.2793 24.7588C8.08594 24.8379 7.91016 25.2861 7.91016 25.708V26.1035H7.56738C6.86426 26.1035 6.50391 26.3584 6.50391 26.8418C6.50391 27.2373 6.78516 27.4219 7.38281 27.4219H7.91016V27.8613C7.91016 28.3887 8.04199 28.6875 8.32324 28.8193C8.62207 28.9512 8.73633 28.9424 8.99121 28.7402C9.18457 28.582 9.21973 28.4766 9.24609 28.0108L9.27246 27.4658L9.81738 27.4395C10.2832 27.4131 10.3887 27.3779 10.5469 27.1846C10.7754 26.8945 10.7666 26.6924 10.5205 26.4111C10.3623 26.2178 10.2217 26.1738 9.77344 26.1299L9.22852 26.0772V25.5674C9.22852 25.1279 9.20215 25.0401 9 24.8818C8.77148 24.7061 8.5166 24.6621 8.2793 24.7588Z" fill="white"/>
<path d="M17.35 26.165C16.8929 26.2529 16.6908 26.9033 17.016 27.2549C17.1566 27.4043 17.306 27.4219 18.9144 27.4219C20.5404 27.4219 20.6634 27.4131 20.8304 27.2461C21.1644 26.9121 21.0238 26.3672 20.558 26.2002C20.2943 26.1123 17.7718 26.0771 17.35 26.165Z" fill="white"/>
<path d="M30.2608 30.2607C23.669 36.8438 23.3614 37.1689 23.4141 37.4062C23.4493 37.5469 23.546 37.7314 23.6163 37.8105C23.7481 37.96 24.1964 37.9688 30.6915 37.9688C37.503 37.9688 37.6173 37.9688 37.793 37.793C37.9688 37.6172 37.9688 37.5029 37.9688 30.6914C37.9688 24.1963 37.96 23.748 37.8194 23.6162C37.7315 23.5459 37.547 23.4492 37.4063 23.4141C37.169 23.3613 36.8438 23.6689 30.2608 30.2607ZM36.6505 31.2012V36.6504H31.1837H25.7081L31.1573 31.2012C34.1544 28.2041 36.6153 25.752 36.6241 25.752C36.6417 25.752 36.6505 28.2041 36.6505 31.2012Z" fill="white"/>
</g>
<defs>
<clipPath id="clip0_48_173">
<rect width="45" height="45" fill="white"/>
</clipPath>
</defs>
</svg>
