<svg width="85" height="85" viewBox="0 0 85 85" fill="none" xmlns="http://www.w3.org/2000/svg">
<g clip-path="url(#clip0_19_293)">
<path d="M43.5624 77.9167H43.2082C38.3509 77.8797 33.5498 76.8739 29.086 74.9582C24.6223 73.0426 20.5856 70.2556 17.2124 66.7604C10.9572 60.0712 7.40154 51.3022 7.23149 42.1456C7.06144 32.989 10.2891 24.0939 16.2915 17.1771C20.1586 12.8433 25.0201 9.51321 30.4582 7.47292C31.0927 7.22875 31.7841 7.17239 32.4499 7.31055C33.1156 7.44872 33.7274 7.77557 34.2124 8.25209C34.6615 8.7101 34.9778 9.28151 35.1275 9.90528C35.2772 10.5291 35.2547 11.1818 35.0624 11.7938C33.1214 17.1096 32.7368 22.8687 33.9538 28.3954C35.1708 33.9221 37.9389 38.987 41.9332 42.9958C45.9648 46.9779 51.0417 49.7366 56.5763 50.9526C62.1109 52.1685 67.8767 51.792 73.2061 49.8667C73.8405 49.6434 74.5253 49.6053 75.1805 49.7569C75.8356 49.9085 76.4341 50.2435 76.9059 50.7227C77.3777 51.2019 77.7033 51.8056 77.8447 52.4631C77.986 53.1205 77.9372 53.8046 77.704 54.4354C75.8948 59.2652 73.0685 63.6497 69.4165 67.2917C66.0195 70.6786 61.9867 73.3608 57.5497 75.1842C53.1128 77.0076 48.3593 77.9362 43.5624 77.9167Z" fill="black"/>
</g>
<defs>
<clipPath id="clip0_19_293">
<rect width="85" height="85" fill="white"/>
</clipPath>
</defs>
</svg>
