<svg width="45" height="45" viewBox="0 0 45 45" fill="none" xmlns="http://www.w3.org/2000/svg">
<g clip-path="url(#clip0_51_25)">
<path d="M20.3471 0.175766C18.3432 0.483383 16.8139 0.957993 14.9594 1.85448C12.9204 2.83885 11.3647 3.9287 9.79147 5.49315C6.9614 8.30565 5.16843 11.7598 4.43014 15.8203C4.27194 16.664 4.21042 19.4238 4.3071 21.4892L4.34225 22.3681L3.16452 25.3564L1.99557 28.3447L1.98679 29.1357C1.978 29.8301 2.00436 29.9795 2.2153 30.3662C2.65475 31.2012 3.03268 31.456 5.2739 32.414C5.76608 32.625 6.20554 33.1084 6.31979 33.5478C6.36374 33.7324 6.52194 36 6.66257 38.5928C6.94382 43.5762 6.95261 43.6377 7.42722 44.2617C7.54147 44.4199 7.84909 44.6484 8.10397 44.7715L8.56101 45H13.5356C18.2026 45 18.563 44.9912 19.1958 44.8242C21.3755 44.2705 23.1772 42.4687 23.7309 40.289C23.8716 39.7617 23.9067 39.3135 23.9067 38.2588C23.9067 37.0283 23.8891 36.8965 23.7309 36.7383C23.5024 36.5098 22.9135 36.501 22.6938 36.7207C22.5532 36.8613 22.518 37.0898 22.4741 38.1533C22.395 39.9199 22.1841 40.6142 21.4194 41.6162C20.9712 42.2139 20.2153 42.8203 19.5561 43.1103C18.5893 43.541 18.4487 43.5498 13.518 43.5498H8.87741L8.6489 43.3213L8.42038 43.084L8.13034 38.1797C7.96335 35.4726 7.78757 33.1172 7.73483 32.9414C7.603 32.4756 7.12839 31.8252 6.7153 31.5088C6.51315 31.3506 5.81003 30.999 5.14206 30.7178C4.21042 30.3135 3.88522 30.1289 3.71823 29.9092C3.28757 29.3379 3.30514 29.2412 4.56198 25.9805C5.186 24.3457 5.75729 22.79 5.81003 22.5264C5.89792 22.166 5.89792 21.8144 5.81882 20.9795C5.6694 19.4941 5.68698 17.6484 5.85397 16.5322C6.3989 12.8144 8.01608 9.53612 10.6352 6.8203C13.3598 3.99901 16.8842 2.18846 20.7778 1.62596C22.0434 1.44139 24.3725 1.44139 25.6294 1.62596C29.5581 2.20604 33.021 3.98143 35.7807 6.82909C38.3823 9.50975 40.0259 12.876 40.5708 16.6113C40.7729 18.0264 40.7026 20.8301 40.4389 22.166C40.1753 23.4668 39.8061 24.6797 39.3227 25.8135C38.9009 26.8066 38.8042 26.9912 37.9165 28.4765C37.2573 29.5928 36.9673 30.2695 36.7387 31.2275C36.5718 31.9131 36.563 32.2822 36.563 38.2939C36.563 44.5342 36.563 44.6484 36.7387 44.8242C36.9497 45.0351 37.5034 45.0615 37.7583 44.8769C37.9165 44.7539 37.9253 44.5517 37.978 38.4346C38.0307 31.5351 38.0219 31.6758 38.5757 30.4629C38.7163 30.1553 39.0678 29.5049 39.3667 29.0303C40.8169 26.666 41.7397 24.0205 42.1089 21.1465C42.2495 20.0742 42.1616 16.8135 41.977 15.7764C41.2387 11.7773 39.4458 8.32323 36.6596 5.52831C33.7417 2.61913 30.0766 0.773422 25.9985 0.175766C24.4516 -0.0527496 21.8589 -0.0527496 20.3471 0.175766Z" fill="white"/>
<path d="M20.787 7.24217C15.9003 8.29685 12.2265 12.0762 11.3827 16.9277C11.2069 17.9297 11.2069 20.0215 11.3915 21.0498C11.6552 22.6054 12.3759 24.3808 13.2724 25.708C15.0741 28.3799 18.0448 30.2959 21.1825 30.8056C22.2548 30.9726 24.2675 30.9814 25.2606 30.8056C30.2177 29.9443 34.164 25.998 35.0253 21.041C35.2011 20.039 35.2011 17.9472 35.0165 16.9189C34.3837 13.2451 32.0019 10.0107 28.6796 8.33201C26.8251 7.38279 25.6474 7.10154 23.4237 7.06639C21.9296 7.04002 21.6571 7.0576 20.787 7.24217ZM22.5009 9.00877C22.5009 9.47459 22.5272 9.52732 22.9227 9.9492C23.4501 10.5205 23.7313 10.6347 24.6278 10.6347C25.7001 10.6347 25.9022 10.5117 26.1835 9.65916L26.412 8.99119L26.869 9.15818L27.3261 9.33396L27.0185 9.79099L26.7196 10.2392V11.2851V12.331L27.2294 12.8496L27.7479 13.3594H28.4335C29.1103 13.3594 29.119 13.3594 29.5058 13.7197C29.8573 14.0449 29.9276 14.0713 30.3056 14.0449C30.7099 14.0185 30.7274 14.0097 31.1581 13.3769L31.5976 12.7265L31.8261 13.0078C32.0722 13.2978 32.9599 14.9414 32.9599 15.0996C32.9599 15.1523 32.828 15.2314 32.6698 15.2842C32.4237 15.372 32.2567 15.3369 31.4657 15.0732C30.6308 14.792 30.4638 14.7656 29.5585 14.7656C28.5653 14.7656 28.5565 14.7656 27.8358 15.126C26.6669 15.706 26.7196 15.6181 26.7196 17.209V18.5625L27.1591 19.4062L27.5897 20.2588L28.9169 20.9179L30.2352 21.5683V21.9287C30.2352 22.1308 30.077 22.7637 29.8837 23.3349C29.3915 24.8027 29.3915 24.8379 30.1737 25.6377L30.8065 26.2969L30.455 26.6045C28.2226 28.5469 25.9198 29.4521 23.204 29.4521C20.3388 29.4521 17.8427 28.415 15.8124 26.376C14.4413 25.0137 13.5272 23.4228 13.0351 21.5595C12.7011 20.2939 12.6483 18.2637 12.9208 16.9717C13.0175 16.4619 13.1405 15.9961 13.1757 15.9258C13.2196 15.8379 13.3866 16.04 13.7206 16.6025C14.1688 17.3584 14.2304 17.4287 15.0477 17.9736L15.9003 18.5449L15.6366 19.0986C15.4169 19.582 15.3905 19.6963 15.4696 19.916C15.5224 20.0566 15.9794 20.584 16.4892 21.0937L17.4032 22.0254L17.1395 22.8076C16.7265 24.0293 16.7528 24.1523 17.5351 24.9521L18.1942 25.6289V26.2265C18.1942 27.0703 18.3085 27.2285 19.2313 27.7119C19.996 28.1074 20.4179 28.2129 20.787 28.0722C20.8661 28.0371 21.121 27.624 21.3671 27.1494C21.7274 26.4199 21.7977 26.2002 21.7977 25.7959V25.3125H22.3251C23.1337 25.3125 23.204 25.207 23.204 23.9678V22.9746L23.8192 22.6758C24.2938 22.4472 24.619 22.1924 25.2255 21.5683L26.0165 20.7685V19.6963C26.0165 18.4394 26.0341 18.4746 24.9442 17.9121L24.2147 17.5342L22.87 17.5078L21.5253 17.4726L21.2265 16.875C20.9013 16.2334 20.6815 16.084 20.0751 16.084C19.7763 16.084 17.4032 14.9678 17.4032 14.8359C17.4032 14.792 17.8251 14.7656 18.3349 14.7656C18.8446 14.7656 19.328 14.7304 19.4071 14.6865C19.495 14.6426 19.6972 14.3262 19.8642 13.9834L20.163 13.3594H20.7606C21.3056 13.3594 21.4462 13.3154 22.2284 12.9199C23.5116 12.2783 23.5028 12.331 22.5009 10.3008C22.0702 9.41306 21.7099 8.67478 21.7099 8.65721C21.7099 8.61326 21.9911 8.54295 22.2636 8.53416C22.4921 8.52537 22.5009 8.53416 22.5009 9.00877ZM20.8134 10.2392C21.1561 10.9424 21.4462 11.5488 21.4462 11.584C21.4462 11.7773 20.7958 11.9531 20.119 11.9531C19.7323 11.9531 19.3456 11.9883 19.2665 12.0322C19.1786 12.0762 18.9765 12.3926 18.8095 12.7353L18.5106 13.3594H17.1659C15.9354 13.3594 15.8036 13.3769 15.6454 13.5351C15.4784 13.7021 15.4345 13.8515 15.4608 14.1504C15.4696 14.2207 15.663 14.6689 15.8915 15.1523L16.3046 16.0137L17.8602 16.7959C18.7216 17.2265 19.5302 17.5781 19.6708 17.5781C19.8905 17.5781 19.952 17.6484 20.2157 18.2021C20.3827 18.5449 20.5849 18.8613 20.6727 18.9053C20.7519 18.9492 21.455 18.9844 22.2284 18.9844C23.5819 18.9844 23.661 18.9931 24.1269 19.2217C24.5575 19.4326 24.6102 19.4941 24.6102 19.7314C24.6102 20.1445 23.5468 21.1465 22.6239 21.6123C22.2284 21.8056 21.8856 22.0254 21.8505 22.1045C21.8241 22.1836 21.7977 22.6054 21.7977 23.0361V23.8183H21.455C21.0155 23.8183 20.5849 23.9765 20.4794 24.1699C20.4267 24.2578 20.3915 24.6533 20.3915 25.0488C20.3915 25.5322 20.3476 25.8486 20.2509 26.042C20.0663 26.4023 20.0927 26.3847 19.9169 26.3144C19.8114 26.2705 19.7763 26.1387 19.7763 25.708C19.7763 25.0928 19.7235 25.0049 18.8798 24.126L18.4579 23.6777L18.7655 22.7637C18.9589 22.1836 19.0556 21.7617 19.0292 21.6211C18.994 21.498 18.5634 20.9883 18.0536 20.4697L17.1308 19.5469L17.412 18.9492C17.8339 18.0527 17.7811 17.9648 16.4364 17.0595L15.3378 16.3125L14.6435 15.1787L13.9491 14.0449L14.1073 13.7637C14.995 12.2168 16.454 10.7754 18.1239 9.80857C18.5458 9.56248 19.9257 8.97361 20.0839 8.96482C20.1366 8.96482 20.4618 9.53611 20.8134 10.2392ZM30.0858 11.0742C30.3144 11.2763 30.4989 11.4785 30.4989 11.5312C30.4989 11.5752 30.4198 11.7334 30.3144 11.874C30.1737 12.0849 30.1034 12.1113 29.9716 12.041C29.8837 11.9883 29.5233 11.9531 29.1718 11.9531C28.6356 11.9531 28.5038 11.9179 28.328 11.7597C28.0292 11.4785 28.0556 10.9775 28.3983 10.4502L28.6708 10.0195L29.163 10.3623C29.4442 10.5469 29.8485 10.872 30.0858 11.0742ZM30.9823 16.5234C32.1161 16.9013 32.4765 16.9453 33.0302 16.7519C33.2323 16.6816 33.4081 16.6465 33.4345 16.6816C33.5048 16.8047 33.5751 17.2969 33.663 18.1494C33.8563 20.2148 33.3114 22.5176 32.1952 24.3633L31.7821 25.0488L31.4481 24.7148L31.1142 24.3808L31.3778 23.5986C31.6063 22.9131 31.6415 22.7021 31.6415 21.8144C31.6415 21.2695 31.6063 20.751 31.5624 20.6719C31.5185 20.5928 30.8505 20.206 30.077 19.8281L28.6796 19.1338L28.3983 18.5713C28.161 18.0879 28.1259 17.9209 28.1259 17.332V16.6465L28.5917 16.4179C29.2597 16.0752 29.7167 16.1015 30.9823 16.5234Z" fill="white"/>
</g>
<defs>
<clipPath id="clip0_51_25">
<rect width="45" height="45" fill="white"/>
</clipPath>
</defs>
</svg>
