<svg width="45" height="45" viewBox="0 0 45 45" fill="none" xmlns="http://www.w3.org/2000/svg">
<path d="M21.3749 2.42578C20.6454 2.61914 19.9071 3.0498 19.1952 3.70898C18.8524 4.02539 18.826 4.03418 18.492 3.94629C18.0614 3.82324 17.3407 3.89355 16.954 4.08691C16.1629 4.48242 15.7762 5.12402 15.785 6.02051C15.785 6.65332 15.9256 7.05762 16.2772 7.44434L16.453 7.6377L16.0575 8.63086C15.8465 9.17578 15.618 9.77344 15.5565 9.95801C15.4862 10.1953 15.4159 10.2832 15.328 10.248C15.0907 10.1602 12.7967 9.86133 11.909 9.7998C10.8631 9.73828 9.37779 9.86133 8.34947 10.1074C5.60728 10.7666 4.12193 12.7617 4.4647 15.3281C4.51743 15.7324 4.68443 16.4355 4.83384 16.8926L5.1063 17.7275L4.88657 18.0615C4.24497 19.002 4.41197 20.2061 5.28208 20.9531C5.76548 21.3574 6.13462 21.4717 6.84654 21.4277L7.42661 21.3926L7.89243 21.9551C8.42857 22.5879 8.46372 22.4385 7.58482 23.4844C5.85337 25.5762 4.67564 27.9492 4.49107 29.7246C4.18345 32.8096 5.97642 34.6992 9.63267 35.165C10.7489 35.3057 12.9022 35.2178 14.3172 34.9805C14.9237 34.8838 15.4334 34.8311 15.4686 34.8662C15.495 34.9102 15.6532 35.2881 15.8114 35.7275C16.5936 37.8633 17.7889 39.9111 18.9139 41.0273C19.7049 41.8096 20.2674 42.2051 21.0672 42.5127C21.8934 42.8379 23.159 42.8467 23.9501 42.5391C25.1717 42.0645 26.4549 40.9482 27.4129 39.5068C27.9667 38.6807 28.8631 36.8525 29.2762 35.7275C29.4344 35.2881 29.5838 34.9014 29.619 34.8662C29.6542 34.8223 30.1727 34.875 30.7704 34.9805C32.1678 35.2178 34.3211 35.3057 35.4549 35.165C37.6346 34.8838 39.1815 34.084 39.9989 32.8008C40.8866 31.4033 40.8075 29.1797 39.7879 27.0439C39.1463 25.6904 38.4432 24.6445 36.8788 22.7197L36.7118 22.5088L37.1336 22.0166C37.3709 21.7441 37.784 21.2168 38.0653 20.8477L38.5663 20.1797L39.2079 20.1709C40.1922 20.1621 40.8251 19.7578 41.2118 18.8965C41.5633 18.1318 41.4139 17.2793 40.8163 16.6201C40.4471 16.207 40.4471 16.207 40.535 15.7852C40.579 15.5479 40.6053 14.9238 40.5877 14.3789C40.5614 13.4648 40.535 13.3594 40.2274 12.709C39.5331 11.2588 38.1356 10.3447 36.035 9.9668C34.91 9.76465 32.6688 9.79102 31.1571 10.0195C30.4803 10.1162 29.8563 10.2129 29.7684 10.2217C29.6454 10.2393 29.5399 10.0459 29.2674 9.31641C27.8084 5.44922 25.7958 2.98828 23.6073 2.4082C23.036 2.25 21.9725 2.25879 21.3749 2.42578ZM24.0555 3.64746C25.3124 4.27148 26.4637 5.64258 27.5184 7.77832C28.0721 8.9209 28.6698 10.4414 28.5731 10.4941C28.5467 10.5117 28.2655 10.5996 27.9491 10.6787C26.9208 10.9424 25.1981 11.5225 23.8973 12.0498C23.1854 12.3311 22.5702 12.5684 22.5262 12.5684C22.4823 12.5684 21.9549 12.3662 21.3485 12.1201C20.1268 11.6191 18.035 10.9072 17.077 10.6699C16.7254 10.582 16.4354 10.4678 16.4354 10.4238C16.4354 10.3799 16.6376 9.84375 16.8749 9.2373L17.3231 8.12988H17.9647C18.5184 8.12988 18.659 8.09473 19.037 7.86621C19.6698 7.4707 19.9862 6.9082 20.0213 6.11719C20.0477 5.58984 20.0213 5.42285 19.8368 5.08008L19.6258 4.66699L19.8983 4.41211C20.3114 4.02539 20.909 3.64746 21.4452 3.43652C21.8319 3.28711 22.0692 3.25195 22.6493 3.27832C23.2733 3.30469 23.4579 3.34863 24.0555 3.64746ZM18.4217 4.97461C18.5799 5.05371 18.7997 5.24707 18.8963 5.40527C19.5204 6.41602 18.3514 7.64648 17.3407 7.03125C16.5497 6.54785 16.5233 5.55469 17.3055 5.03613C17.6571 4.79883 18.0086 4.78125 18.4217 4.97461ZM12.5243 10.8105C13.4647 10.8984 15.0379 11.1445 15.0995 11.2061C15.1258 11.2236 14.994 11.8213 14.8182 12.542C14.5018 13.8604 14.1239 15.917 14.0184 16.9717L13.9569 17.5605L13.368 17.9824C12.4979 18.624 11.1532 19.7578 10.037 20.8037C8.94712 21.8232 9.01743 21.8057 8.51646 21.1729L8.25279 20.8389L8.4813 20.4346C8.76255 19.96 8.85923 19.2041 8.70103 18.6328C8.63072 18.3516 8.47251 18.1143 8.13853 17.7891C7.61118 17.2793 7.10142 17.0947 6.41587 17.1562L5.97642 17.2002L5.79185 16.708C5.09751 14.8799 5.30845 13.2451 6.37193 12.1992C7.54087 11.0479 9.72935 10.5557 12.5243 10.8105ZM34.8485 10.8105C37.2215 11.0127 38.7245 11.7949 39.3485 13.1572C39.6034 13.7109 39.7001 14.5986 39.6034 15.416L39.5418 15.9082H39.1288C37.3797 15.917 36.4745 17.9912 37.5731 19.4766C37.7049 19.6611 37.6874 19.6963 37.2567 20.2676C37.0018 20.6016 36.6151 21.085 36.4042 21.3311L36.0174 21.7969L34.9803 20.7949C34.0926 19.9424 33.4686 19.415 31.3944 17.7627C31.1131 17.543 31.0956 17.499 30.9725 16.5674C30.7967 15.1963 30.5418 13.8252 30.1991 12.4365C30.0409 11.7861 29.9266 11.2324 29.9618 11.2148C30.0936 11.1357 31.8602 10.8721 32.6952 10.8193C33.2049 10.7754 33.662 10.7402 33.7059 10.7402C33.7586 10.7314 34.2684 10.7666 34.8485 10.8105ZM16.787 11.6016C17.8592 11.874 21.1024 12.9902 21.2518 13.1396C21.2694 13.1572 20.9178 13.3594 20.4696 13.5879C19.2391 14.2031 17.5956 15.1436 16.242 16.0049C15.5741 16.4268 15.0292 16.7432 15.0292 16.6992C15.0292 16.4004 15.5301 13.7812 15.785 12.7178C16.0487 11.6367 16.1278 11.4258 16.2508 11.4609C16.3299 11.4873 16.5672 11.5488 16.787 11.6016ZM29.118 12.085C29.3641 12.9814 29.7069 14.6689 29.8739 15.7588L30.0321 16.7871L29.7596 16.6113C28.0018 15.46 25.7782 14.168 24.4159 13.5088C24.0819 13.3594 23.8182 13.2012 23.8182 13.1748C23.8182 12.9727 28.7752 11.3555 28.9247 11.5049C28.951 11.5312 29.0389 11.7949 29.118 12.085ZM24.0643 14.4492C24.8729 14.8535 25.9891 15.4512 26.5428 15.7764C27.7821 16.4971 29.9002 17.877 30.0848 18.0879C30.3221 18.3516 30.4715 22.0781 30.3397 24.6445C30.2782 25.7783 30.2079 26.7715 30.1815 26.833C30.0497 27.1846 26.578 29.3291 24.161 30.542L22.5174 31.377L20.9002 30.5596C19.1073 29.6455 17.5428 28.7314 15.9344 27.6592L14.8709 26.9473L14.7918 26.1035C14.6952 25.0137 14.704 19.8633 14.7918 18.8701L14.8709 18.0967L16.242 17.1914C17.0067 16.6904 18.1141 15.9961 18.7206 15.6445C19.8368 15.0117 22.3768 13.7109 22.5174 13.7109C22.5526 13.7109 23.2557 14.0449 24.0643 14.4492ZM39.9901 17.1826C40.4911 17.6572 40.535 18.2988 40.1131 18.8086C39.6385 19.3711 38.8475 19.3447 38.329 18.7646C37.8719 18.2373 38.0038 17.4287 38.6102 17.042C39.0145 16.7871 39.6473 16.8486 39.9901 17.1826ZM7.18931 18.2812C7.34751 18.3779 7.54966 18.5801 7.64634 18.7383C8.26157 19.7578 7.03989 20.9355 6.05552 20.2764C5.44907 19.8721 5.30845 19.125 5.73032 18.5889C6.09947 18.1143 6.70591 17.9912 7.18931 18.2812ZM13.7547 22.4912V26.0859L13.535 25.9277C12.9549 25.5059 11.4696 24.2139 10.6346 23.3965L9.71177 22.5L10.5467 21.7002C11.0038 21.2607 11.9178 20.4521 12.5682 19.8984C13.2186 19.3535 13.7547 18.8965 13.7547 18.8965C13.7547 18.8965 13.7547 20.5137 13.7547 22.4912ZM32.9325 20.2852C33.5038 20.7686 34.2772 21.4805 34.6551 21.8672L35.3407 22.5615L34.3475 23.4932C33.2577 24.5127 31.3768 26.1035 31.2626 26.1035C31.2274 26.1035 31.2186 25.9541 31.2626 25.7695C31.3504 25.3301 31.3504 19.8457 31.2538 19.3008L31.1834 18.8701L31.5438 19.1338C31.7372 19.2744 32.3612 19.793 32.9325 20.2852ZM9.96665 24.1436C10.951 25.0928 12.2518 26.2002 13.2801 26.9648L13.9569 27.4658L14.0536 28.3447C14.203 29.5664 14.5458 31.3945 14.8709 32.6777C15.0204 33.2754 15.117 33.7764 15.0907 33.8027C15.0643 33.8291 14.5985 33.9346 14.0448 34.0312C12.8055 34.2598 10.0633 34.3037 9.09654 34.1104C6.32798 33.5654 5.00962 31.8779 5.48423 29.4785C5.73032 28.2129 6.33677 26.8857 7.31236 25.4707C7.7606 24.8115 8.97349 23.291 9.0438 23.291C9.06138 23.291 9.47446 23.6777 9.96665 24.1436ZM37.5555 25.251C38.3905 26.4375 39.0057 27.6064 39.3485 28.6084C39.5506 29.2061 39.5858 29.4697 39.5858 30.3223C39.5946 31.2539 39.577 31.377 39.3397 31.8779C38.8651 32.915 37.828 33.6533 36.3163 34.04C35.244 34.3125 32.4491 34.3037 30.9549 34.0312C30.4012 33.9346 29.9442 33.8379 29.9266 33.8203C29.909 33.8115 30.0321 33.2578 30.1991 32.6074C30.4452 31.6494 30.8495 29.373 31.078 27.7207C31.1043 27.5098 31.2362 27.3604 31.7108 27.0176C32.5545 26.4023 34.1805 25.0137 35.1561 24.0908L35.9911 23.2998L36.4129 23.7568C36.6415 24.0117 37.1512 24.6797 37.5555 25.251ZM30.0145 28.4502C29.6102 30.9199 29.0565 33.4424 28.9071 33.5391C28.7489 33.6357 26.2264 32.8623 24.5389 32.1943L23.7303 31.8779L25.1102 31.1572C26.5428 30.4277 28.4413 29.3115 29.4432 28.6172C29.7596 28.3975 30.0233 28.2217 30.0321 28.2217C30.0409 28.2129 30.0321 28.3184 30.0145 28.4502ZM16.1014 28.9424C17.3231 29.7422 18.6678 30.5156 20.162 31.2979L21.2958 31.8867L20.953 32.0361C19.617 32.5986 16.2333 33.6621 16.119 33.5566C15.9784 33.4072 15.0292 28.9072 15.0292 28.3623C15.0292 28.2568 15.0907 28.292 16.1014 28.9424ZM23.7743 32.9414C25.0311 33.4512 26.3495 33.9082 27.6502 34.2773C28.1688 34.418 28.5995 34.5498 28.617 34.5586C28.661 34.6113 27.9227 36.4658 27.536 37.2568C26.6307 39.0938 25.286 40.7461 24.2049 41.3262C21.8143 42.6094 19.5028 41.2119 17.5604 37.3096C17.077 36.3604 16.3915 34.6465 16.4618 34.5762C16.4793 34.5586 16.91 34.4268 17.411 34.2861C18.6415 33.9346 20.4696 33.293 21.5594 32.8271C22.0516 32.6162 22.5174 32.458 22.5877 32.4756C22.6581 32.4932 23.1942 32.7041 23.7743 32.9414Z" fill="white"/>
</svg>
