<svg width="33" height="22" viewBox="0 0 33 22" fill="none" xmlns="http://www.w3.org/2000/svg">
<mask id="path-1-outside-1_54_9" maskUnits="userSpaceOnUse" x="0" y="0" width="33" height="22" fill="black">
<rect fill="white" width="33" height="22"/>
<path d="M2.42925 20C2.07725 20 1.78125 19.88 1.54125 19.64C1.30125 19.4 1.18125 19.104 1.18125 18.752V2.504C1.18125 2.136 1.30125 1.84 1.54125 1.616C1.78125 1.376 2.07725 1.256 2.42925 1.256H6.74925C7.94925 1.256 9.01325 1.512 9.94125 2.024C10.8693 2.52 11.5893 3.208 12.1013 4.088C12.6293 4.968 12.8932 5.992 12.8932 7.16C12.8932 8.248 12.6293 9.216 12.1013 10.064C11.5893 10.912 10.8693 11.576 9.94125 12.056C9.01325 12.536 7.94925 12.776 6.74925 12.776H3.67725V18.752C3.67725 19.104 3.55725 19.4 3.31725 19.64C3.09325 19.88 2.79725 20 2.42925 20ZM12.3893 20C12.1653 20 11.9573 19.952 11.7653 19.856C11.5893 19.76 11.4373 19.608 11.3093 19.4L6.98925 12.44L9.41325 11.744L13.3493 18.08C13.6373 18.544 13.6773 18.984 13.4693 19.4C13.2613 19.8 12.9013 20 12.3893 20ZM3.67725 10.472H6.74925C7.48525 10.472 8.13325 10.336 8.69325 10.064C9.25325 9.776 9.69325 9.384 10.0133 8.888C10.3333 8.376 10.4933 7.8 10.4933 7.16C10.4933 6.456 10.3333 5.832 10.0133 5.288C9.69325 4.744 9.25325 4.32 8.69325 4.016C8.13325 3.712 7.48525 3.56 6.74925 3.56H3.67725V10.472ZM24.1933 20.384C22.6573 20.384 21.2973 20.104 20.1133 19.544C18.9293 18.968 18.0013 18.176 17.3293 17.168C16.6733 16.16 16.3453 15.008 16.3453 13.712V2.504C16.3453 2.136 16.4653 1.84 16.7053 1.616C16.9453 1.376 17.2413 1.256 17.5933 1.256C17.9613 1.256 18.2573 1.376 18.4813 1.616C18.7213 1.84 18.8413 2.136 18.8413 2.504V13.712C18.8413 14.576 19.0653 15.344 19.5133 16.016C19.9773 16.672 20.6093 17.192 21.4093 17.576C22.2253 17.944 23.1533 18.128 24.1933 18.128C25.2013 18.128 26.0893 17.944 26.8573 17.576C27.6413 17.192 28.2493 16.672 28.6813 16.016C29.1293 15.344 29.3533 14.576 29.3533 13.712V2.504C29.3533 2.136 29.4733 1.84 29.7133 1.616C29.9533 1.376 30.2493 1.256 30.6013 1.256C30.9693 1.256 31.2653 1.376 31.4893 1.616C31.7133 1.84 31.8253 2.136 31.8253 2.504V13.712C31.8253 15.008 31.4973 16.16 30.8413 17.168C30.2013 18.176 29.3053 18.968 28.1533 19.544C27.0013 20.104 25.6813 20.384 24.1933 20.384Z"/>
</mask>
<path d="M2.42925 20C2.07725 20 1.78125 19.88 1.54125 19.64C1.30125 19.4 1.18125 19.104 1.18125 18.752V2.504C1.18125 2.136 1.30125 1.84 1.54125 1.616C1.78125 1.376 2.07725 1.256 2.42925 1.256H6.74925C7.94925 1.256 9.01325 1.512 9.94125 2.024C10.8693 2.52 11.5893 3.208 12.1013 4.088C12.6293 4.968 12.8932 5.992 12.8932 7.16C12.8932 8.248 12.6293 9.216 12.1013 10.064C11.5893 10.912 10.8693 11.576 9.94125 12.056C9.01325 12.536 7.94925 12.776 6.74925 12.776H3.67725V18.752C3.67725 19.104 3.55725 19.4 3.31725 19.64C3.09325 19.88 2.79725 20 2.42925 20ZM12.3893 20C12.1653 20 11.9573 19.952 11.7653 19.856C11.5893 19.76 11.4373 19.608 11.3093 19.4L6.98925 12.44L9.41325 11.744L13.3493 18.08C13.6373 18.544 13.6773 18.984 13.4693 19.4C13.2613 19.8 12.9013 20 12.3893 20ZM3.67725 10.472H6.74925C7.48525 10.472 8.13325 10.336 8.69325 10.064C9.25325 9.776 9.69325 9.384 10.0133 8.888C10.3333 8.376 10.4933 7.8 10.4933 7.16C10.4933 6.456 10.3333 5.832 10.0133 5.288C9.69325 4.744 9.25325 4.32 8.69325 4.016C8.13325 3.712 7.48525 3.56 6.74925 3.56H3.67725V10.472ZM24.1933 20.384C22.6573 20.384 21.2973 20.104 20.1133 19.544C18.9293 18.968 18.0013 18.176 17.3293 17.168C16.6733 16.16 16.3453 15.008 16.3453 13.712V2.504C16.3453 2.136 16.4653 1.84 16.7053 1.616C16.9453 1.376 17.2413 1.256 17.5933 1.256C17.9613 1.256 18.2573 1.376 18.4813 1.616C18.7213 1.84 18.8413 2.136 18.8413 2.504V13.712C18.8413 14.576 19.0653 15.344 19.5133 16.016C19.9773 16.672 20.6093 17.192 21.4093 17.576C22.2253 17.944 23.1533 18.128 24.1933 18.128C25.2013 18.128 26.0893 17.944 26.8573 17.576C27.6413 17.192 28.2493 16.672 28.6813 16.016C29.1293 15.344 29.3533 14.576 29.3533 13.712V2.504C29.3533 2.136 29.4733 1.84 29.7133 1.616C29.9533 1.376 30.2493 1.256 30.6013 1.256C30.9693 1.256 31.2653 1.376 31.4893 1.616C31.7133 1.84 31.8253 2.136 31.8253 2.504V13.712C31.8253 15.008 31.4973 16.16 30.8413 17.168C30.2013 18.176 29.3053 18.968 28.1533 19.544C27.0013 20.104 25.6813 20.384 24.1933 20.384Z" fill="white"/>
<path d="M1.54125 19.64L0.834143 20.3471H0.834144L1.54125 19.64ZM1.54125 1.616L2.22357 2.34705L2.23617 2.33529L2.24836 2.32311L1.54125 1.616ZM9.94125 2.024L9.45813 2.89966L9.46987 2.90593L9.94125 2.024ZM12.1012 4.088L11.2368 4.59094L11.2438 4.60249L12.1012 4.088ZM12.1012 10.064L11.2523 9.53539L11.2452 9.54713L12.1012 10.064ZM9.94125 12.056L10.4007 12.9442H10.4007L9.94125 12.056ZM3.67725 12.776V11.776H2.67725V12.776H3.67725ZM3.31725 19.64L2.61014 18.9329L2.59796 18.9451L2.58619 18.9577L3.31725 19.64ZM11.7653 19.856L11.2864 20.7339L11.3021 20.7424L11.318 20.7504L11.7653 19.856ZM11.3092 19.4L12.1609 18.8759L12.1589 18.8726L11.3092 19.4ZM6.98925 12.44L6.71327 11.4788L5.44222 11.8438L6.13961 12.9674L6.98925 12.44ZM9.41325 11.744L10.2627 11.2163L9.86382 10.5742L9.13727 10.7828L9.41325 11.744ZM13.3493 18.08L14.1989 17.5526L14.1987 17.5523L13.3493 18.08ZM13.4693 19.4L14.3565 19.8614L14.3601 19.8543L14.3637 19.8472L13.4693 19.4ZM3.67725 10.472H2.67725V11.472H3.67725V10.472ZM8.69325 10.064L9.13015 10.9635L9.14044 10.9585L9.1506 10.9533L8.69325 10.064ZM10.0133 8.888L10.8535 9.43013L10.8574 9.42409L10.8612 9.418L10.0133 8.888ZM8.69325 4.016L8.21616 4.89485L8.21616 4.89485L8.69325 4.016ZM3.67725 3.56V2.56H2.67725V3.56H3.67725ZM2.42925 20V19C2.33148 19 2.29319 18.9777 2.24836 18.9329L1.54125 19.64L0.834144 20.3471C1.26931 20.7823 1.82302 21 2.42925 21V20ZM1.54125 19.64L2.24836 18.9329C2.20352 18.8881 2.18125 18.8498 2.18125 18.752H1.18125H0.18125C0.18125 19.3582 0.398981 19.9119 0.834143 20.3471L1.54125 19.64ZM1.18125 18.752H2.18125V2.504H1.18125H0.18125V18.752H1.18125ZM1.18125 2.504H2.18125C2.18125 2.42939 2.19316 2.39361 2.19799 2.3817C2.20179 2.37233 2.20687 2.36264 2.22357 2.34705L1.54125 1.616L0.858932 0.884944C0.390718 1.32194 0.18125 1.89586 0.18125 2.504H1.18125ZM1.54125 1.616L2.24836 2.32311C2.29319 2.27827 2.33148 2.256 2.42925 2.256V1.256V0.256C1.82302 0.256 1.26931 0.47373 0.834144 0.908892L1.54125 1.616ZM2.42925 1.256V2.256H6.74925V1.256V0.256H2.42925V1.256ZM6.74925 1.256V2.256C7.80297 2.256 8.69676 2.47949 9.45817 2.89958L9.94125 2.024L10.4243 1.14842C9.32974 0.544514 8.09553 0.256 6.74925 0.256V1.256ZM9.94125 2.024L9.46987 2.90593C10.24 3.31756 10.8214 3.8768 11.2369 4.59089L12.1012 4.088L12.9656 3.5851C12.3571 2.5392 11.4985 1.72243 10.4126 1.14207L9.94125 2.024ZM12.1012 4.088L11.2438 4.60249C11.6662 5.30654 11.8932 6.14769 11.8932 7.16H12.8932H13.8932C13.8932 5.83631 13.5923 4.62946 12.9587 3.5735L12.1012 4.088ZM12.8932 7.16H11.8932C11.8932 8.07843 11.6728 8.86011 11.2524 9.53544L12.1012 10.064L12.9501 10.5926C13.5857 9.57189 13.8932 8.41756 13.8932 7.16H12.8932ZM12.1012 10.064L11.2452 9.54713C10.8339 10.2283 10.2552 10.7677 9.48183 11.1678L9.94125 12.056L10.4007 12.9442C11.4833 12.3843 12.3446 11.5957 12.9573 10.5809L12.1012 10.064ZM9.94125 12.056L9.48183 11.1678C8.71562 11.5641 7.81326 11.776 6.74925 11.776V12.776V13.776C8.08525 13.776 9.31088 13.5079 10.4007 12.9442L9.94125 12.056ZM6.74925 12.776V11.776H3.67725V12.776V13.776H6.74925V12.776ZM3.67725 12.776H2.67725V18.752H3.67725H4.67725V12.776H3.67725ZM3.67725 18.752H2.67725C2.67725 18.8498 2.65498 18.8881 2.61014 18.9329L3.31725 19.64L4.02436 20.3471C4.45952 19.9119 4.67725 19.3582 4.67725 18.752H3.67725ZM3.31725 19.64L2.58619 18.9577C2.57061 18.9744 2.56092 18.9795 2.55155 18.9833C2.53964 18.9881 2.50385 19 2.42925 19V20V21C3.03739 21 3.61131 20.7905 4.04831 20.3223L3.31725 19.64ZM12.3893 20V19C12.3135 19 12.2595 18.9851 12.2125 18.9616L11.7653 19.856L11.318 20.7504C11.655 20.9189 12.017 21 12.3893 21V20ZM11.7653 19.856L12.2441 18.9781C12.2512 18.982 12.2174 18.9677 12.1609 18.8759L11.3092 19.4L10.4576 19.9241C10.6571 20.2483 10.9273 20.538 11.2864 20.7339L11.7653 19.856ZM11.3092 19.4L12.1589 18.8726L7.83889 11.9126L6.98925 12.44L6.13961 12.9674L10.4596 19.9274L11.3092 19.4ZM6.98925 12.44L7.26523 13.4012L9.68923 12.7052L9.41325 11.744L9.13727 10.7828L6.71327 11.4788L6.98925 12.44ZM9.41325 11.744L8.56381 12.2717L12.4998 18.6077L13.3493 18.08L14.1987 17.5523L10.2627 11.2163L9.41325 11.744ZM13.3493 18.08L12.4996 18.6074C12.6419 18.8367 12.5982 18.906 12.5748 18.9528L13.4693 19.4L14.3637 19.8472C14.7563 19.062 14.6326 18.2513 14.1989 17.5526L13.3493 18.08ZM13.4693 19.4L12.582 18.9386C12.569 18.9636 12.5601 18.9734 12.5585 18.975C12.5575 18.9761 12.5581 18.9756 12.5576 18.9758C12.5566 18.9764 12.5464 18.982 12.5212 18.9878C12.4952 18.9938 12.4526 19 12.3893 19V20V21C12.7744 21 13.1684 20.9245 13.5289 20.7242C13.8965 20.5199 14.1709 20.2182 14.3565 19.8614L13.4693 19.4ZM3.67725 10.472V11.472H6.74925V10.472V9.472H3.67725V10.472ZM6.74925 10.472V11.472C7.60925 11.472 8.41136 11.3126 9.13015 10.9635L8.69325 10.064L8.25635 9.16449C7.85514 9.35936 7.36125 9.472 6.74925 9.472V10.472ZM8.69325 10.064L9.1506 10.9533C9.85568 10.5907 10.4322 10.0833 10.8535 9.43013L10.0133 8.888L9.17295 8.34587C8.95434 8.68472 8.65082 8.96132 8.2359 9.17471L8.69325 10.064ZM10.0133 8.888L10.8612 9.418C11.2866 8.73738 11.4933 7.97566 11.4933 7.16H10.4933H9.49325C9.49325 7.62433 9.37987 8.01461 9.16525 8.358L10.0133 8.888ZM10.4933 7.16H11.4933C11.4933 6.2988 11.2957 5.49587 10.8752 4.78098L10.0133 5.288L9.15132 5.79502C9.37079 6.16813 9.49325 6.6132 9.49325 7.16H10.4933ZM10.0133 5.288L10.8752 4.78098C10.4621 4.0788 9.8884 3.52695 9.17034 3.13715L8.69325 4.016L8.21616 4.89485C8.6181 5.11305 8.92436 5.4092 9.15132 5.79502L10.0133 5.288ZM8.69325 4.016L9.17034 3.13715C8.4426 2.74208 7.62586 2.56 6.74925 2.56V3.56V4.56C7.34464 4.56 7.8239 4.68191 8.21616 4.89485L8.69325 4.016ZM6.74925 3.56V2.56H3.67725V3.56V4.56H6.74925V3.56ZM3.67725 3.56H2.67725V10.472H3.67725H4.67725V3.56H3.67725ZM20.1133 19.544L19.6758 20.4433L19.6858 20.448L20.1133 19.544ZM17.3293 17.168L16.4911 17.7135L16.4973 17.7227L17.3293 17.168ZM16.7053 1.616L17.3876 2.34705L17.4002 2.33529L17.4124 2.32311L16.7053 1.616ZM18.4813 1.616L17.7503 2.29832L17.7738 2.32353L17.799 2.34705L18.4813 1.616ZM19.5133 16.016L18.6813 16.5707L18.6889 16.5822L18.6969 16.5935L19.5133 16.016ZM21.4093 17.576L20.9766 18.4775L20.9873 18.4827L20.9982 18.4876L21.4093 17.576ZM26.8573 17.576L27.2894 18.4778L27.2972 18.4741L26.8573 17.576ZM28.6813 16.016L27.8493 15.4613L27.8461 15.466L28.6813 16.016ZM29.7133 1.616L30.3956 2.34705L30.4082 2.33529L30.4204 2.32311L29.7133 1.616ZM31.4893 1.616L30.7583 2.29832L30.77 2.31092L30.7822 2.32311L31.4893 1.616ZM30.8413 17.168L30.0031 16.6225L29.9971 16.632L30.8413 17.168ZM28.1533 19.544L28.5905 20.4434L28.6005 20.4384L28.1533 19.544ZM24.1933 20.384V19.384C22.7798 19.384 21.57 19.1268 20.5409 18.64L20.1133 19.544L19.6858 20.448C21.0246 21.0812 22.5348 21.384 24.1933 21.384V20.384ZM20.1133 19.544L20.5508 18.6448C19.5123 18.1395 18.7263 17.4607 18.1614 16.6133L17.3293 17.168L16.4973 17.7227C17.2763 18.8913 18.3464 19.7965 19.6758 20.4432L20.1133 19.544ZM17.3293 17.168L18.1675 16.6225C17.6253 15.7895 17.3453 14.83 17.3453 13.712H16.3453H15.3453C15.3453 15.186 15.7213 16.5305 16.4912 17.7135L17.3293 17.168ZM16.3453 13.712H17.3453V2.504H16.3453H15.3453V13.712H16.3453ZM16.3453 2.504H17.3453C17.3453 2.42939 17.3572 2.39361 17.3621 2.3817C17.3659 2.37233 17.3709 2.36264 17.3876 2.34705L16.7053 1.616L16.023 0.884944C15.5548 1.32194 15.3453 1.89586 15.3453 2.504H16.3453ZM16.7053 1.616L17.4124 2.32311C17.4573 2.27827 17.4955 2.256 17.5933 2.256V1.256V0.256C16.9871 0.256 16.4334 0.47373 15.9982 0.908892L16.7053 1.616ZM17.5933 1.256V2.256C17.6679 2.256 17.7037 2.26791 17.7156 2.27274C17.725 2.27654 17.7347 2.28162 17.7503 2.29832L18.4813 1.616L19.2124 0.933681C18.7754 0.465467 18.2015 0.256 17.5933 0.256V1.256ZM18.4813 1.616L17.799 2.34705C17.8157 2.36264 17.8208 2.37233 17.8246 2.3817C17.8294 2.39361 17.8413 2.42939 17.8413 2.504H18.8413H19.8413C19.8413 1.89586 19.6318 1.32194 19.1636 0.884944L18.4813 1.616ZM18.8413 2.504H17.8413V13.712H18.8413H19.8413V2.504H18.8413ZM18.8413 13.712H17.8413C17.8413 14.759 18.116 15.7228 18.6813 16.5707L19.5133 16.016L20.3454 15.4613C20.0146 14.9652 19.8413 14.393 19.8413 13.712H18.8413ZM19.5133 16.016L18.6969 16.5935C19.2691 17.4025 20.0396 18.0278 20.9766 18.4775L21.4093 17.576L21.842 16.6745C21.179 16.3562 20.6855 15.9415 20.3297 15.4385L19.5133 16.016ZM21.4093 17.576L20.9982 18.4876C21.9627 18.9226 23.0343 19.128 24.1933 19.128V18.128V17.128C23.2723 17.128 22.4879 16.9655 21.8204 16.6644L21.4093 17.576ZM24.1933 18.128V19.128C25.3237 19.128 26.364 18.9213 27.2894 18.4778L26.8573 17.576L26.4252 16.6742C25.8146 16.9667 25.079 17.128 24.1933 17.128V18.128ZM26.8573 17.576L27.2972 18.4741C28.2233 18.0204 28.9755 17.3874 29.5165 16.566L28.6813 16.016L27.8461 15.466C27.5231 15.9566 27.0593 16.3636 26.4174 16.6779L26.8573 17.576ZM28.6813 16.016L29.5134 16.5707C30.0786 15.7228 30.3533 14.759 30.3533 13.712H29.3533H28.3533C28.3533 14.393 28.18 14.9652 27.8493 15.4613L28.6813 16.016ZM29.3533 13.712H30.3533V2.504H29.3533H28.3533V13.712H29.3533ZM29.3533 2.504H30.3533C30.3533 2.42939 30.3652 2.39361 30.3701 2.3817C30.3739 2.37233 30.3789 2.36264 30.3956 2.34705L29.7133 1.616L29.031 0.884944C28.5628 1.32194 28.3533 1.89586 28.3533 2.504H29.3533ZM29.7133 1.616L30.4204 2.32311C30.4653 2.27827 30.5035 2.256 30.6013 2.256V1.256V0.256C29.9951 0.256 29.4414 0.47373 29.0062 0.908891L29.7133 1.616ZM30.6013 1.256V2.256C30.6759 2.256 30.7117 2.26791 30.7236 2.27274C30.733 2.27654 30.7427 2.28162 30.7583 2.29832L31.4893 1.616L32.2204 0.933681C31.7834 0.465467 31.2095 0.256 30.6013 0.256V1.256ZM31.4893 1.616L30.7822 2.32311C30.7883 2.32915 30.8253 2.35486 30.8253 2.504H31.8253H32.8253C32.8253 1.91714 32.6384 1.35085 32.1964 0.908891L31.4893 1.616ZM31.8253 2.504H30.8253V13.712H31.8253H32.8253V2.504H31.8253ZM31.8253 13.712H30.8253C30.8253 14.83 30.5453 15.7895 30.0032 16.6225L30.8413 17.168L31.6795 17.7135C32.4493 16.5305 32.8253 15.186 32.8253 13.712H31.8253ZM30.8413 17.168L29.9971 16.632C29.4621 17.4746 28.7089 18.1482 27.7061 18.6496L28.1533 19.544L28.6005 20.4384C29.9017 19.7878 30.9405 18.8774 31.6855 17.704L30.8413 17.168ZM28.1533 19.544L27.7161 18.6446C26.7207 19.1285 25.5543 19.384 24.1933 19.384V20.384V21.384C25.8084 21.384 27.2819 21.0795 28.5905 20.4434L28.1533 19.544Z" fill="white" mask="url(#path-1-outside-1_54_9)"/>
</svg>
