<svg width="32" height="22" viewBox="0 0 32 22" fill="none" xmlns="http://www.w3.org/2000/svg">
<mask id="path-1-outside-1_54_17" maskUnits="userSpaceOnUse" x="0" y="0" width="32" height="22" fill="black">
<rect fill="white" width="32" height="22"/>
<path d="M8.11372 20.24C7.08972 20.24 6.11372 20.08 5.18572 19.76C4.25772 19.44 3.44972 18.992 2.76172 18.416C2.07372 17.84 1.56972 17.176 1.24972 16.424C1.08972 16.088 1.08972 15.776 1.24972 15.488C1.42572 15.2 1.71372 15.016 2.11372 14.936C2.40172 14.872 2.68172 14.92 2.95372 15.08C3.24172 15.224 3.45772 15.448 3.60172 15.752C3.79372 16.152 4.10572 16.52 4.53772 16.856C4.98572 17.192 5.52172 17.464 6.14572 17.672C6.76972 17.88 7.42572 17.984 8.11372 17.984C8.88172 17.984 9.58572 17.864 10.2257 17.624C10.8817 17.384 11.4097 17.04 11.8097 16.592C12.2097 16.128 12.4097 15.56 12.4097 14.888C12.4097 14.04 12.0737 13.28 11.4017 12.608C10.7457 11.936 9.65772 11.52 8.13772 11.36C6.15372 11.168 4.59372 10.584 3.45772 9.608C2.32172 8.632 1.75372 7.424 1.75372 5.984C1.75372 4.928 2.04972 4.032 2.64172 3.296C3.23372 2.56 4.03372 2 5.04172 1.616C6.06572 1.232 7.20172 1.04 8.44972 1.04C9.42572 1.04 10.2737 1.176 10.9937 1.448C11.7297 1.72 12.3697 2.096 12.9137 2.576C13.4577 3.056 13.9297 3.624 14.3297 4.28C14.5537 4.632 14.6417 4.968 14.5937 5.288C14.5617 5.592 14.4097 5.832 14.1377 6.008C13.8337 6.2 13.5057 6.24 13.1537 6.128C12.8017 6.016 12.5377 5.808 12.3617 5.504C12.1057 5.04 11.7937 4.648 11.4257 4.328C11.0577 4.008 10.6257 3.76 10.1297 3.584C9.63372 3.392 9.04972 3.296 8.37772 3.296C7.19372 3.28 6.20172 3.504 5.40172 3.968C4.60172 4.416 4.20172 5.112 4.20172 6.056C4.20172 6.536 4.32172 7 4.56172 7.448C4.81772 7.88 5.27372 8.256 5.92972 8.576C6.60172 8.896 7.56172 9.12 8.80972 9.248C10.7137 9.44 12.1937 10.024 13.2497 11C14.3217 11.96 14.8577 13.232 14.8577 14.816C14.8577 15.728 14.6657 16.52 14.2817 17.192C13.9137 17.864 13.4097 18.432 12.7697 18.896C12.1457 19.344 11.4257 19.68 10.6097 19.904C9.80972 20.128 8.97772 20.24 8.11372 20.24ZM19.9332 20C19.5812 20 19.2852 19.88 19.0452 19.64C18.8052 19.4 18.6852 19.104 18.6852 18.752V2.504C18.6852 2.136 18.8052 1.84 19.0452 1.616C19.2852 1.376 19.5812 1.256 19.9332 1.256H24.7332C25.9332 1.256 26.9972 1.52 27.9252 2.048C28.8532 2.576 29.5732 3.312 30.0852 4.256C30.6132 5.184 30.8772 6.256 30.8772 7.472C30.8772 8.64 30.6132 9.68 30.0852 10.592C29.5732 11.504 28.8532 12.216 27.9252 12.728C26.9972 13.24 25.9332 13.496 24.7332 13.496H21.1812V18.752C21.1812 19.104 21.0612 19.4 20.8212 19.64C20.5972 19.88 20.3012 20 19.9332 20ZM21.1812 11.192H24.7332C25.4692 11.192 26.1172 11.032 26.6772 10.712C27.2372 10.392 27.6772 9.952 27.9972 9.392C28.3172 8.832 28.4772 8.192 28.4772 7.472C28.4772 6.704 28.3172 6.032 27.9972 5.456C27.6772 4.864 27.2372 4.4 26.6772 4.064C26.1172 3.728 25.4692 3.56 24.7332 3.56H21.1812V11.192Z"/>
</mask>
<path d="M8.11372 20.24C7.08972 20.24 6.11372 20.08 5.18572 19.76C4.25772 19.44 3.44972 18.992 2.76172 18.416C2.07372 17.84 1.56972 17.176 1.24972 16.424C1.08972 16.088 1.08972 15.776 1.24972 15.488C1.42572 15.2 1.71372 15.016 2.11372 14.936C2.40172 14.872 2.68172 14.92 2.95372 15.08C3.24172 15.224 3.45772 15.448 3.60172 15.752C3.79372 16.152 4.10572 16.52 4.53772 16.856C4.98572 17.192 5.52172 17.464 6.14572 17.672C6.76972 17.88 7.42572 17.984 8.11372 17.984C8.88172 17.984 9.58572 17.864 10.2257 17.624C10.8817 17.384 11.4097 17.04 11.8097 16.592C12.2097 16.128 12.4097 15.56 12.4097 14.888C12.4097 14.04 12.0737 13.28 11.4017 12.608C10.7457 11.936 9.65772 11.52 8.13772 11.36C6.15372 11.168 4.59372 10.584 3.45772 9.608C2.32172 8.632 1.75372 7.424 1.75372 5.984C1.75372 4.928 2.04972 4.032 2.64172 3.296C3.23372 2.56 4.03372 2 5.04172 1.616C6.06572 1.232 7.20172 1.04 8.44972 1.04C9.42572 1.04 10.2737 1.176 10.9937 1.448C11.7297 1.72 12.3697 2.096 12.9137 2.576C13.4577 3.056 13.9297 3.624 14.3297 4.28C14.5537 4.632 14.6417 4.968 14.5937 5.288C14.5617 5.592 14.4097 5.832 14.1377 6.008C13.8337 6.2 13.5057 6.24 13.1537 6.128C12.8017 6.016 12.5377 5.808 12.3617 5.504C12.1057 5.04 11.7937 4.648 11.4257 4.328C11.0577 4.008 10.6257 3.76 10.1297 3.584C9.63372 3.392 9.04972 3.296 8.37772 3.296C7.19372 3.28 6.20172 3.504 5.40172 3.968C4.60172 4.416 4.20172 5.112 4.20172 6.056C4.20172 6.536 4.32172 7 4.56172 7.448C4.81772 7.88 5.27372 8.256 5.92972 8.576C6.60172 8.896 7.56172 9.12 8.80972 9.248C10.7137 9.44 12.1937 10.024 13.2497 11C14.3217 11.96 14.8577 13.232 14.8577 14.816C14.8577 15.728 14.6657 16.52 14.2817 17.192C13.9137 17.864 13.4097 18.432 12.7697 18.896C12.1457 19.344 11.4257 19.68 10.6097 19.904C9.80972 20.128 8.97772 20.24 8.11372 20.24ZM19.9332 20C19.5812 20 19.2852 19.88 19.0452 19.64C18.8052 19.4 18.6852 19.104 18.6852 18.752V2.504C18.6852 2.136 18.8052 1.84 19.0452 1.616C19.2852 1.376 19.5812 1.256 19.9332 1.256H24.7332C25.9332 1.256 26.9972 1.52 27.9252 2.048C28.8532 2.576 29.5732 3.312 30.0852 4.256C30.6132 5.184 30.8772 6.256 30.8772 7.472C30.8772 8.64 30.6132 9.68 30.0852 10.592C29.5732 11.504 28.8532 12.216 27.9252 12.728C26.9972 13.24 25.9332 13.496 24.7332 13.496H21.1812V18.752C21.1812 19.104 21.0612 19.4 20.8212 19.64C20.5972 19.88 20.3012 20 19.9332 20ZM21.1812 11.192H24.7332C25.4692 11.192 26.1172 11.032 26.6772 10.712C27.2372 10.392 27.6772 9.952 27.9972 9.392C28.3172 8.832 28.4772 8.192 28.4772 7.472C28.4772 6.704 28.3172 6.032 27.9972 5.456C27.6772 4.864 27.2372 4.4 26.6772 4.064C26.1172 3.728 25.4692 3.56 24.7332 3.56H21.1812V11.192Z" fill="white"/>
<path d="M5.18572 19.76L5.51171 18.8146L5.18572 19.76ZM2.76172 18.416L2.11978 19.1828L2.76172 18.416ZM1.24972 16.424L2.16987 16.0324L2.16163 16.0131L2.15258 15.9941L1.24972 16.424ZM1.24972 15.488L0.396437 14.9665L0.385628 14.9842L0.375562 15.0024L1.24972 15.488ZM2.11372 14.936L2.30983 15.9166L2.32026 15.9145L2.33065 15.9122L2.11372 14.936ZM2.95372 15.08L2.4467 15.9419L2.47605 15.9592L2.50651 15.9744L2.95372 15.08ZM3.60172 15.752L2.69797 16.1801L2.7002 16.1847L3.60172 15.752ZM4.53772 16.856L3.92378 17.6454L3.9307 17.6507L3.93772 17.656L4.53772 16.856ZM6.14572 17.672L5.82949 18.6207H5.82949L6.14572 17.672ZM10.2257 17.624L9.88213 16.6848L9.8746 16.6877L10.2257 17.624ZM11.8097 16.592L12.5557 17.258L12.5615 17.2515L12.5671 17.2449L11.8097 16.592ZM11.4017 12.608L10.6861 13.3066L10.6946 13.3151L11.4017 12.608ZM8.13772 11.36L8.24241 10.3655L8.23404 10.3646L8.13772 11.36ZM3.45772 9.608L4.10939 8.8495H4.10939L3.45772 9.608ZM5.04172 1.616L4.69059 0.679657L4.68572 0.681512L5.04172 1.616ZM10.9937 1.448L10.6403 2.3835L10.6471 2.38599L10.9937 1.448ZM12.9137 2.576L12.2521 3.32584L12.9137 2.576ZM14.3297 4.28L13.4759 4.80061L13.4809 4.80879L13.4861 4.81687L14.3297 4.28ZM14.5937 5.288L13.6048 5.13966L13.6015 5.16143L13.5992 5.18332L14.5937 5.288ZM14.1377 6.008L14.6717 6.85354L14.681 6.84757L14.1377 6.008ZM13.1537 6.128L12.8505 7.08092L12.8505 7.08093L13.1537 6.128ZM12.3617 5.504L11.4861 5.98708L11.4911 5.99611L11.4963 6.00504L12.3617 5.504ZM11.4257 4.328L12.0819 3.57339L12.0819 3.57339L11.4257 4.328ZM10.1297 3.584L9.76872 4.51657L9.78195 4.52169L9.79531 4.52643L10.1297 3.584ZM8.37772 3.296L8.36421 4.296H8.37772V3.296ZM5.40172 3.968L5.89032 4.8405L5.89691 4.83682L5.90344 4.83303L5.40172 3.968ZM4.56172 7.448L3.68024 7.92022L3.69043 7.93924L3.70143 7.9578L4.56172 7.448ZM5.92972 8.576L5.49128 9.47481L5.49979 9.47886L5.92972 8.576ZM8.80972 9.248L8.70769 10.2428L8.70939 10.243L8.80972 9.248ZM13.2497 11L12.571 11.7344L12.5767 11.7397L12.5826 11.7449L13.2497 11ZM14.2817 17.192L13.4135 16.6959L13.409 16.7037L13.4046 16.7117L14.2817 17.192ZM12.7697 18.896L13.3529 19.7083L13.3567 19.7056L12.7697 18.896ZM10.6097 19.904L10.345 18.9397L10.3401 18.941L10.6097 19.904ZM8.11372 20.24V19.24C7.19582 19.24 6.33035 19.0969 5.51171 18.8146L5.18572 19.76L4.85973 20.7054C5.89709 21.0631 6.98361 21.24 8.11372 21.24V20.24ZM5.18572 19.76L5.51171 18.8146C4.68818 18.5307 3.9897 18.1399 3.40366 17.6492L2.76172 18.416L2.11978 19.1828C2.90974 19.8441 3.82726 20.3493 4.85973 20.7054L5.18572 19.76ZM2.76172 18.416L3.40366 17.6492C2.82465 17.1645 2.42217 16.6254 2.16987 16.0324L1.24972 16.424L0.329564 16.8156C0.717263 17.7266 1.32279 18.5155 2.11978 19.1828L2.76172 18.416ZM1.24972 16.424L2.15258 15.9941C2.13833 15.9641 2.13265 15.9453 2.13056 15.9368C2.12859 15.9288 2.12972 15.9298 2.12972 15.938C2.12972 15.9466 2.12848 15.9567 2.12595 15.9662C2.1235 15.9754 2.1214 15.9781 2.12388 15.9736L1.24972 15.488L0.375562 15.0024C0.0364261 15.6128 0.0686841 16.2698 0.346859 16.8539L1.24972 16.424ZM1.24972 15.488L2.103 16.0094C2.11077 15.9967 2.11844 15.988 2.13611 15.9767C2.15746 15.9631 2.20848 15.9369 2.30983 15.9166L2.11372 14.936L1.9176 13.9554C1.3058 14.0778 0.74773 14.3917 0.396437 14.9665L1.24972 15.488ZM2.11372 14.936L2.33065 15.9122C2.35283 15.9073 2.36371 15.9084 2.37076 15.9096C2.37902 15.911 2.40346 15.9165 2.4467 15.9419L2.95372 15.08L3.46074 14.2181C2.98722 13.9395 2.45009 13.8369 1.89679 13.9598L2.11372 14.936ZM2.95372 15.08L2.50651 15.9744C2.58505 16.0137 2.64512 16.0685 2.69798 16.1801L3.60172 15.752L4.50546 15.3239C4.27032 14.8275 3.89839 14.4343 3.40093 14.1856L2.95372 15.08ZM3.60172 15.752L2.7002 16.1847C2.97298 16.753 3.39759 17.2361 3.92378 17.6454L4.53772 16.856L5.15166 16.0666C4.81385 15.8039 4.61446 15.551 4.50324 15.3193L3.60172 15.752ZM4.53772 16.856L3.93772 17.656C4.48522 18.0666 5.12089 18.3845 5.82949 18.6207L6.14572 17.672L6.46195 16.7233C5.92255 16.5435 5.48622 16.3174 5.13772 16.056L4.53772 16.856ZM6.14572 17.672L5.82949 18.6207C6.56008 18.8642 7.32322 18.984 8.11372 18.984V17.984V16.984C7.52822 16.984 6.97936 16.8958 6.46195 16.7233L6.14572 17.672ZM8.11372 17.984V18.984C8.98691 18.984 9.81157 18.8473 10.5768 18.5603L10.2257 17.624L9.8746 16.6877C9.35987 16.8807 8.77652 16.984 8.11372 16.984V17.984ZM10.2257 17.624L10.5693 18.5631C11.3545 18.2758 12.0294 17.8474 12.5557 17.258L11.8097 16.592L11.0638 15.926C10.79 16.2326 10.4089 16.4922 9.88214 16.6849L10.2257 17.624ZM11.8097 16.592L12.5671 17.2449C13.1392 16.5813 13.4097 15.7747 13.4097 14.888H12.4097H11.4097C11.4097 15.3453 11.2802 15.6747 11.0523 15.9391L11.8097 16.592ZM12.4097 14.888H13.4097C13.4097 13.7417 12.9436 12.7357 12.1088 11.9009L11.4017 12.608L10.6946 13.3151C11.2038 13.8243 11.4097 14.3383 11.4097 14.888H12.4097ZM11.4017 12.608L12.1173 11.9095C11.2235 10.9939 9.85886 10.5356 8.2424 10.3655L8.13772 11.36L8.03303 12.3545C9.45658 12.5044 10.2679 12.8781 10.6861 13.3065L11.4017 12.608ZM8.13772 11.36L8.23404 10.3646C6.38819 10.186 5.04484 9.65319 4.10939 8.8495L3.45772 9.608L2.80605 10.3665C4.1426 11.5148 5.91925 12.15 8.0414 12.3554L8.13772 11.36ZM3.45772 9.608L4.10939 8.8495C3.18437 8.05477 2.75372 7.11938 2.75372 5.984H1.75372H0.753719C0.753719 7.72862 1.45906 9.20923 2.80605 10.3665L3.45772 9.608ZM1.75372 5.984H2.75372C2.75372 5.12747 2.98872 4.4601 3.42093 3.92276L2.64172 3.296L1.8625 2.66924C1.11072 3.6039 0.753719 4.72853 0.753719 5.984H1.75372ZM2.64172 3.296L3.42093 3.92276C3.88663 3.34378 4.53164 2.88042 5.39771 2.55049L5.04172 1.616L4.68572 0.681512C3.5358 1.11958 2.58081 1.77622 1.8625 2.66924L2.64172 3.296ZM5.04172 1.616L5.39284 2.55233C6.2899 2.21593 7.3049 2.04 8.44972 2.04V1.04V0.039999C7.09854 0.039999 5.84154 0.248066 4.6906 0.67967L5.04172 1.616ZM8.44972 1.04V2.04C9.33596 2.04 10.059 2.16386 10.6403 2.38347L10.9937 1.448L11.3471 0.512527C10.4884 0.188137 9.51547 0.039999 8.44972 0.039999V1.04ZM10.9937 1.448L10.6471 2.38599C11.2769 2.61874 11.8079 2.93388 12.2521 3.32584L12.9137 2.576L13.5753 1.82616C12.9316 1.25812 12.1826 0.821258 11.3404 0.510004L10.9937 1.448ZM12.9137 2.576L12.2521 3.32584C12.7166 3.73568 13.125 4.22515 13.4759 4.80061L14.3297 4.28L15.1835 3.75939C14.7344 3.02285 14.1989 2.37632 13.5753 1.82616L12.9137 2.576ZM14.3297 4.28L13.4861 4.81687C13.619 5.02574 13.6077 5.12037 13.6048 5.13966L14.5937 5.288L15.5827 5.43634C15.6758 4.81562 15.4885 4.23826 15.1734 3.74312L14.3297 4.28ZM14.5937 5.288L13.5992 5.18332C13.5984 5.19059 13.5978 5.18989 13.5999 5.1836C13.6009 5.18062 13.6024 5.17692 13.6044 5.17279C13.6063 5.16865 13.6086 5.16465 13.6109 5.16095C13.6159 5.15312 13.6195 5.14958 13.6189 5.15019C13.618 5.15106 13.6111 5.15769 13.5945 5.16843L14.1377 6.008L14.681 6.84757C15.1892 6.51869 15.5225 6.01736 15.5882 5.39268L14.5937 5.288ZM14.1377 6.008L13.6037 5.16251C13.5656 5.18659 13.5472 5.1888 13.5427 5.18935C13.5373 5.19001 13.5122 5.19267 13.4569 5.17507L13.1537 6.128L12.8505 7.08093C13.4749 7.27959 14.1104 7.20799 14.6717 6.85349L14.1377 6.008ZM13.1537 6.128L13.4569 5.17507C13.3286 5.13425 13.2716 5.07976 13.2271 5.00296L12.3617 5.504L11.4963 6.00504C11.8038 6.53624 12.2748 6.89775 12.8505 7.08092L13.1537 6.128ZM12.3617 5.504L13.2373 5.02092C12.9296 4.46316 12.5458 3.97675 12.0819 3.57339L11.4257 4.328L10.7695 5.0826C11.0417 5.31925 11.2819 5.61684 11.4861 5.98708L12.3617 5.504ZM11.4257 4.328L12.0819 3.57339C11.6121 3.16487 11.0688 2.85613 10.4641 2.64157L10.1297 3.584L9.79531 4.52643C10.1826 4.66387 10.5033 4.85113 10.7695 5.0826L11.4257 4.328ZM10.1297 3.584L10.4907 2.65143C9.85368 2.40484 9.14198 2.296 8.37772 2.296V3.296V4.296C8.95746 4.296 9.41376 4.37916 9.76872 4.51657L10.1297 3.584ZM8.37772 3.296L8.39123 2.29609C7.07629 2.27832 5.89452 2.52615 4.9 3.10297L5.40172 3.968L5.90344 4.83303C6.50892 4.48185 7.31115 4.28168 8.36421 4.29591L8.37772 3.296ZM5.40172 3.968L4.91312 3.09549C4.37833 3.39497 3.93693 3.80184 3.6347 4.32771C3.33334 4.8521 3.20172 5.44011 3.20172 6.056H4.20172H5.20172C5.20172 5.72789 5.2701 5.4959 5.36873 5.32428C5.46651 5.15416 5.6251 4.98903 5.89032 4.8405L5.40172 3.968ZM4.20172 6.056H3.20172C3.20172 6.71048 3.36715 7.3358 3.68024 7.92022L4.56172 7.448L5.4432 6.97578C5.27628 6.6642 5.20172 6.36152 5.20172 6.056H4.20172ZM4.56172 7.448L3.70143 7.9578C4.09263 8.61796 4.73523 9.10595 5.49129 9.47477L5.92972 8.576L6.36814 7.67723C5.81221 7.40605 5.54281 7.14204 5.42201 6.9382L4.56172 7.448ZM5.92972 8.576L5.49979 9.47886C6.32199 9.87039 7.41282 10.11 8.70769 10.2428L8.80972 9.248L8.91175 8.25322C7.71062 8.13003 6.88144 7.92161 6.35965 7.67314L5.92972 8.576ZM8.80972 9.248L8.70939 10.243C10.4684 10.4203 11.7199 10.9478 12.571 11.7344L13.2497 11L13.9285 10.2656C12.6676 9.10025 10.959 8.45966 8.91005 8.25305L8.80972 9.248ZM13.2497 11L12.5826 11.7449C13.42 12.4949 13.8577 13.4843 13.8577 14.816H14.8577H15.8577C15.8577 12.9797 15.2234 11.4251 13.9168 10.255L13.2497 11ZM14.8577 14.816H13.8577C13.8577 15.5852 13.6969 16.1999 13.4135 16.6959L14.2817 17.192L15.15 17.6881C15.6346 16.8401 15.8577 15.8708 15.8577 14.816H14.8577ZM14.2817 17.192L13.4046 16.7117C13.11 17.2496 12.7068 17.7065 12.1828 18.0864L12.7697 18.896L13.3567 19.7056C14.1127 19.1575 14.7174 18.4784 15.1588 17.6723L14.2817 17.192ZM12.7697 18.896L12.1865 18.0837C11.6681 18.4559 11.0583 18.7439 10.345 18.9397L10.6097 19.904L10.8744 20.8683C11.7932 20.6161 12.6233 20.2321 13.3529 19.7083L12.7697 18.896ZM10.6097 19.904L10.3401 18.941C9.63132 19.1395 8.89023 19.24 8.11372 19.24V20.24V21.24C9.0652 21.24 9.98812 21.1165 10.8793 20.867L10.6097 19.904ZM19.0452 19.64L18.338 20.3471L19.0452 19.64ZM19.0452 1.616L19.7275 2.34705L19.7401 2.33529L19.7523 2.32311L19.0452 1.616ZM27.9252 2.048L27.4306 2.91716L27.9252 2.048ZM30.0852 4.256L29.2061 4.73276L29.211 4.74169L29.216 4.75052L30.0852 4.256ZM30.0852 10.592L29.2197 10.0909L29.2132 10.1025L30.0852 10.592ZM27.9252 12.728L28.4082 13.6036L27.9252 12.728ZM21.1812 13.496V12.496H20.1812V13.496H21.1812ZM20.8212 19.64L20.114 18.9329L20.1019 18.9451L20.0901 18.9577L20.8212 19.64ZM21.1812 11.192H20.1812V12.192H21.1812V11.192ZM26.6772 10.712L26.181 9.84376L26.6772 10.712ZM27.9972 9.392L28.8654 9.88814H28.8654L27.9972 9.392ZM27.9972 5.456L27.1174 5.93155L27.123 5.94164L27.9972 5.456ZM21.1812 3.56V2.56H20.1812V3.56H21.1812ZM19.9332 20V19C19.8354 19 19.7971 18.9777 19.7523 18.9329L19.0452 19.64L18.338 20.3471C18.7732 20.7823 19.3269 21 19.9332 21V20ZM19.0452 19.64L19.7523 18.9329C19.7074 18.8881 19.6852 18.8498 19.6852 18.752H18.6852H17.6852C17.6852 19.3582 17.9029 19.9119 18.338 20.3471L19.0452 19.64ZM18.6852 18.752H19.6852V2.504H18.6852H17.6852V18.752H18.6852ZM18.6852 2.504H19.6852C19.6852 2.42939 19.6971 2.39361 19.7019 2.3817C19.7057 2.37233 19.7108 2.36264 19.7275 2.34705L19.0452 1.616L18.3628 0.884944C17.8946 1.32194 17.6852 1.89586 17.6852 2.504H18.6852ZM19.0452 1.616L19.7523 2.32311C19.7971 2.27827 19.8354 2.256 19.9332 2.256V1.256V0.256C19.3269 0.256 18.7732 0.47373 18.3381 0.908892L19.0452 1.616ZM19.9332 1.256V2.256H24.7332V1.256V0.256H19.9332V1.256ZM24.7332 1.256V2.256C25.7817 2.256 26.6713 2.48513 27.4306 2.91716L27.9252 2.048L28.4197 1.17884C27.323 0.554867 26.0846 0.256 24.7332 0.256V1.256ZM27.9252 2.048L27.4306 2.91716C28.1953 3.35226 28.7826 3.95188 29.2061 4.73276L30.0852 4.256L30.9642 3.77924C30.3637 2.67212 29.511 1.79974 28.4197 1.17884L27.9252 2.048ZM30.0852 4.256L29.216 4.75052C29.6469 5.50789 29.8772 6.40493 29.8772 7.472H30.8772H31.8772C31.8772 6.10707 31.5794 4.86011 30.9543 3.76148L30.0852 4.256ZM30.8772 7.472H29.8772C29.8772 8.4836 29.6503 9.3473 29.2197 10.091L30.0852 10.592L30.9506 11.093C31.576 10.0127 31.8772 8.7964 31.8772 7.472H30.8772ZM30.0852 10.592L29.2132 10.1025C28.7936 10.8498 28.2093 11.4291 27.4421 11.8524L27.9252 12.728L28.4082 13.6036C29.497 13.0029 30.3527 12.1582 30.9571 11.0815L30.0852 10.592ZM27.9252 12.728L27.4421 11.8524C26.6807 12.2725 25.7869 12.496 24.7332 12.496V13.496V14.496C26.0794 14.496 27.3136 14.2075 28.4082 13.6036L27.9252 12.728ZM24.7332 13.496V12.496H21.1812V13.496V14.496H24.7332V13.496ZM21.1812 13.496H20.1812V18.752H21.1812H22.1812V13.496H21.1812ZM21.1812 18.752H20.1812C20.1812 18.8498 20.1589 18.8881 20.114 18.9329L20.8212 19.64L21.5283 20.3471C21.9634 19.9119 22.1812 19.3582 22.1812 18.752H21.1812ZM20.8212 19.64L20.0901 18.9577C20.0745 18.9744 20.0648 18.9795 20.0555 18.9833C20.0435 18.9881 20.0078 19 19.9332 19V20V21C20.5413 21 21.1152 20.7905 21.5522 20.3223L20.8212 19.64ZM21.1812 11.192V12.192H24.7332V11.192V10.192H21.1812V11.192ZM24.7332 11.192V12.192C25.6182 12.192 26.4419 11.9982 27.1733 11.5802L26.6772 10.712L26.181 9.84376C25.7924 10.0658 25.3201 10.192 24.7332 10.192V11.192ZM26.6772 10.712L27.1733 11.5802C27.8883 11.1717 28.4568 10.6032 28.8654 9.88814L27.9972 9.392L27.1289 8.89586C26.8975 9.30083 26.586 9.61235 26.181 9.84376L26.6772 10.712ZM27.9972 9.392L28.8654 9.88814C29.2815 9.16004 29.4772 8.34534 29.4772 7.472H28.4772H27.4772C27.4772 8.03866 27.3529 8.50396 27.1289 8.89586L27.9972 9.392ZM28.4772 7.472H29.4772C29.4772 6.56238 29.2866 5.71785 28.8713 4.97036L27.9972 5.456L27.123 5.94164C27.3477 6.34615 27.4772 6.84562 27.4772 7.472H28.4772ZM27.9972 5.456L28.8769 4.98048C28.4743 4.23575 27.9103 3.63768 27.1917 3.20651L26.6772 4.064L26.1627 4.92149C26.564 5.16232 26.88 5.49225 27.1175 5.93152L27.9972 5.456ZM26.6772 4.064L27.1917 3.20651C26.4572 2.76584 25.6268 2.56 24.7332 2.56V3.56V4.56C25.3115 4.56 25.7771 4.69016 26.1627 4.92149L26.6772 4.064ZM24.7332 3.56V2.56H21.1812V3.56V4.56H24.7332V3.56ZM21.1812 3.56H20.1812V11.192H21.1812H22.1812V3.56H21.1812Z" fill="white" mask="url(#path-1-outside-1_54_17)"/>
</svg>
